<svg width="512.000000pt" height="512.000000pt" viewBox="0 0 512.000000 512.000000" xmlns="http://www.w3.org/2000/svg">
  <g transform="translate(0.000000,512.000000) scale(0.100000,-0.100000)" fill="#ffffff00" stroke="none">
    <path d="M0 2560 l0 -2560 2560 0 2560 0 0 2560 0 2560 -2560 0 -2560 0 0
-2560z m3479 2060 l39 -19 21 -44 21 -44 -2 -1959 -3 -1959 -24 -34 -24 -34
-43 -19 -43 -19 -28 7 c-39 9 -90 49 -108 84 l-15 29 0 1956 0 1957 16 35 c9
19 33 45 53 59 l36 24 33 0 c18 0 50 -9 71 -20z m-1709 -141 l38 -21 21 -38
21 -38 0 -1813 0 -1814 -18 -35 c-9 -19 -32 -45 -51 -57 l-34 -23 -41 0 -41 0
-33 20 -33 20 -19 43 -20 42 0 1802 0 1802 11 28 c33 87 123 124 199 82z
m1149 -327 c14 -10 34 -31 45 -46 l21 -27 3 -1502 2 -1502 -18 -35 c-11 -19
-34 -45 -52 -57 l-33 -23 -42 0 -42 0 -34 23 c-19 12 -42 38 -51 57 l-18 35 0
1489 0 1490 21 42 20 42 42 22 42 21 35 -5 c19 -3 46 -14 59 -24z m1131 -244
c18 -13 43 -36 54 -51 l21 -28 3 -1247 2 -1247 -22 -45 -23 -45 -33 -18 c-64
-37 -144 -15 -190 53 l-22 33 2 1261 3 1261 22 31 c26 37 76 63 119 64 l31 0
33 -22z m-2855 -138 l41 -20 22 -39 22 -39 0 -1103 0 -1104 -18 -35 c-9 -19
-33 -45 -52 -58 l-35 -24 -46 4 -46 5 -26 19 c-15 10 -36 37 -47 60 l-20 41 2
1105 3 1105 29 37 c49 64 103 79 171 46z m1154 -248 c14 -10 34 -31 45 -46
l21 -27 3 -870 2 -870 -16 -35 c-9 -19 -33 -46 -53 -60 l-36 -24 -39 0 -39 0
-34 21 c-18 12 -42 38 -53 60 l-20 38 0 855 0 855 11 28 c14 37 47 72 84 89
l30 14 35 -5 c19 -2 46 -13 59 -23z m-1719 -324 l44 -23 18 -35 18 -35 0 -540
0 -540 -20 -33 c-11 -18 -34 -41 -52 -53 l-33 -20 -46 4 -46 4 -26 19 c-15 10
-36 38 -47 60 l-21 42 3 534 3 535 29 37 c50 66 105 80 176 44z m3974 8 c18
-8 46 -31 62 -52 l29 -37 3 -570 3 -569 -21 -44 -21 -43 -33 -21 -33 -20 -39
0 -39 0 -33 20 c-18 11 -41 34 -52 52 l-20 33 0 573 0 574 16 34 16 34 42 25
c47 28 73 31 120 11z" />
  </g>
  <g transform="translate(0.000000,512.000000) scale(0.100000,-0.100000)" fill="#000000" stroke="none">
    <path d="M3329 4626 c-20 -14 -44 -40 -53 -59 l-16 -35 0 -1967 0 -1966 15
-29 c20 -39 72 -77 116 -85 l37 -7 44 20 45 19 24 34 24 34 3 1969 2 1969 -21
44 -21 44 -39 19 -38 20 -43 0 -43 0 -36 -24z" />
    <path d="M1645 4496 c-37 -16 -70 -52 -84 -89 l-11 -28 0 -1812 0 -1812 20
-42 19 -43 33 -20 33 -20 51 0 51 0 34 23 c19 12 42 38 51 57 l18 35 0 1824 0
1823 -21 38 -21 38 -38 21 c-43 24 -91 26 -135 7z" />
    <path d="M2773 4170 l-42 -22 -20 -42 -21 -42 0 -1500 0 -1499 18 -35 c9 -19
32 -45 51 -57 l34 -23 52 0 52 0 33 23 c18 12 41 38 52 57 l18 35 -2 1512 -3
1512 -21 27 c-32 44 -68 66 -115 71 l-44 4 -42 -21z" />
    <path d="M3912 3923 c-18 -9 -43 -30 -55 -47 l-22 -31 -3 -1271 -2 -1271 22
-33 c13 -19 38 -43 57 -54 l34 -19 42 0 42 0 34 19 34 19 23 45 22 45 -2 1257
-3 1257 -21 28 c-11 15 -36 38 -54 51 l-33 22 -41 0 c-23 0 -56 -8 -74 -17z" />
    <path d="M1074 3786 c-17 -8 -44 -31 -60 -52 l-29 -37 -3 -1115 -2 -1115 20
-41 c11 -23 32 -50 47 -61 l27 -19 56 -4 55 -4 35 24 c19 13 43 39 52 58 l18
35 0 1114 0 1113 -22 39 -22 39 -41 20 c-48 23 -87 25 -131 6z" />
    <path d="M2215 3546 c-37 -17 -70 -52 -84 -89 l-11 -28 0 -865 0 -865 20 -38
c11 -22 35 -48 53 -60 l34 -21 49 0 49 0 36 24 c20 14 44 41 53 60 l16 35 -2
880 -3 880 -21 27 c-32 44 -68 66 -115 70 l-44 4 -30 -14z" />
    <path d="M504 3216 c-17 -8 -44 -31 -60 -52 l-29 -37 -3 -545 -3 -544 21 -42
c11 -22 32 -50 47 -61 l27 -19 56 -4 55 -3 33 20 c18 12 41 35 52 53 l20 33 0
550 0 550 -18 35 -18 35 -44 23 c-50 25 -91 27 -136 8z" />
    <path d="M4474 3205 l-42 -25 -16 -34 -16 -34 0 -585 0 -584 23 -33 c12 -19
37 -43 56 -54 l33 -19 44 1 44 0 34 21 35 22 21 43 21 44 -3 579 -3 580 -29
37 c-32 42 -78 66 -128 66 l-33 0 -41 -25z" />
  </g>
  <g transform="translate(0.000000,512.000000) scale(0.100000,-0.100000)" fill="#454545" stroke="none">
    <path d="M3265 2570 c0 -1070 1 -1507 2 -972 2 534 2 1410 0 1945 -1 534 -2
97 -2 -973z" />
    <path d="M1855 2565 c0 -990 1 -1396 2 -903 2 493 2 1303 0 1800 -1 497 -2 93
-2 -897z" />
  </g>
  <g transform="translate(0.000000,512.000000) scale(0.100000,-0.100000)" fill="#818181" stroke="none">
    <path d="M3565 2565 c0 -1072 1 -1510 2 -972 2 538 2 1416 0 1950 -1 535 -2
95 -2 -978z" />
    <path d="M1555 2570 c0 -993 1 -1399 2 -902 2 496 2 1308 0 1805 -1 496 -2 90
-2 -903z" />
  </g>
  <g transform="translate(0.000000,512.000000) scale(0.100000,-0.100000)" fill="#585858" stroke="none">
    <path d="M2695 2570 c0 -817 1 -1151 2 -743 2 409 2 1077 0 1485 -1 409 -2 75
-2 -742z" />
    <path d="M2425 2570 c0 -470 1 -663 2 -428 2 236 2 620 0 855 -1 236 -2 43 -2
-427z" />
  </g>
  <g transform="translate(0.000000,512.000000) scale(0.100000,-0.100000)" fill="#303030" stroke="none">
    <path d="M3835 2570 c0 -679 1 -957 2 -618 2 340 2 896 0 1235 -1 340 -2 62
-2 -617z" />
    <path d="M1285 2565 c0 -600 1 -846 2 -548 2 298 2 788 0 1090 -1 301 -2 58
-2 -542z" />
  </g>
  <g transform="translate(0.000000,512.000000) scale(0.100000,-0.100000)" fill="#6e6e6e" stroke="none">
    <path d="M2995 2570 c0 -817 1 -1151 2 -743 2 409 2 1077 0 1485 -1 409 -2 75
-2 -742z" />
    <path d="M2125 2570 c0 -470 1 -663 2 -428 2 236 2 620 0 855 -1 236 -2 43 -2
-427z" />
  </g>
  <g transform="translate(0.000000,512.000000) scale(0.100000,-0.100000)" fill="#949494" stroke="none">
    <path d="M4135 2570 c0 -679 1 -957 2 -618 2 340 2 896 0 1235 -1 340 -2 62
-2 -617z" />
    <path d="M985 2570 c0 -602 1 -849 2 -547 2 301 2 793 0 1095 -1 301 -2 54 -2
-548z" />
  </g>
  <g transform="translate(0.000000,512.000000) scale(0.100000,-0.100000)" fill="#a7a7a7" stroke="none">
    <path d="M415 2570 c0 -289 1 -407 2 -262 2 144 2 380 0 525 -1 144 -2 26 -2
-263z" />
    <path d="M4705 2535 c0 -308 1 -435 2 -283 2 152 2 404 0 560 -1 156 -2 31 -2
-277z" />
  </g>
  <g transform="translate(0.000000,512.000000) scale(0.100000,-0.100000)" fill="#1d1d1d" stroke="none">
    <path d="M715 2565 c0 -286 1 -402 2 -257 2 145 2 379 0 520 -1 141 -2 23 -2
-263z" />
  </g>
  <g transform="translate(0.000000,512.000000) scale(0.100000,-0.100000)" fill="#202020" stroke="none">
    <path d="M4405 2535 c0 -308 1 -435 2 -283 2 152 2 404 0 560 -1 156 -2 31 -2
-277z" />
  </g>
  <g transform="translate(0.000000,512.000000) scale(0.100000,-0.100000)" fill="#d7d7d7" stroke="none">
    <path d="M3335 4630 c-32 -21 -64 -59 -65 -75 0 -5 12 5 27 24 14 18 40 42 57
52 17 10 27 19 21 19 -5 0 -23 -9 -40 -20z" />
  </g>
  <g transform="translate(0.000000,512.000000) scale(0.100000,-0.100000)" fill="#bdbdbd" stroke="none" />
  <g transform="translate(0.000000,512.000000) scale(0.100000,-0.100000)" fill="#0b0b0b" stroke="none" />
  <g transform="translate(0.000000,512.000000) scale(0.100000,-0.100000)" fill="#393939" stroke="none" />
  <g transform="translate(0.000000,512.000000) scale(0.100000,-0.100000)" fill="#646464" stroke="none" />
  <g transform="translate(0.000000,512.000000) scale(0.100000,-0.100000)" fill="#8a8a8a" stroke="none" />
  <g transform="translate(0.000000,512.000000) scale(0.100000,-0.100000)" fill="#b1b1b1" stroke="none" />
  <g transform="translate(0.000000,512.000000) scale(0.100000,-0.100000)" fill="#131313" stroke="none" />
  <g transform="translate(0.000000,512.000000) scale(0.100000,-0.100000)" fill="#292929" stroke="none" />
  <g transform="translate(0.000000,512.000000) scale(0.100000,-0.100000)" fill="#777777" stroke="none" />
  <g transform="translate(0.000000,512.000000) scale(0.100000,-0.100000)" fill="#9c9c9c" stroke="none" />
  <g transform="translate(0.000000,512.000000) scale(0.100000,-0.100000)" fill="#505050" stroke="none" />
  <g transform="translate(0.000000,512.000000) scale(0.100000,-0.100000)" fill="#4b4b4b" stroke="none" />
  <g transform="translate(0.000000,512.000000) scale(0.100000,-0.100000)" fill="#737373" stroke="none" />
</svg>