<svg width="512.000000pt" height="512.000000pt" viewBox="0 0 512.000000 512.000000" xmlns="http://www.w3.org/2000/svg">
  <g transform="translate(0.000000,512.000000) scale(0.100000,-0.100000)" fill="#ffffff00" stroke="none">
    <path d="M0 2560 l0 -2560 345 0 c355 0 380 3 295 33 -94 33 -191 130 -226
227 l-17 45 -5 147 -4 148 11 102 c74 653 553 1197 1174 1333 l78 17 18 37
c38 73 183 193 305 253 l46 22 0 56 0 57 -88 89 -87 89 -40 75 c-21 41 -49
109 -61 150 l-22 75 -78 6 -79 6 -40 21 c-47 24 -95 73 -121 122 l-18 35 -4
108 -4 108 11 46 c7 25 26 66 42 90 l31 44 49 27 49 27 0 116 0 117 -13 5
c-26 10 -45 73 -73 237 l-28 165 -171 64 c-93 36 -197 76 -231 91 l-60 27 -13
32 -13 31 12 31 c7 17 23 37 34 44 31 20 1386 532 1429 540 20 4 37 11 37 16
l0 9 -1235 0 -1235 0 0 -2560z" />
    <path d="M2670 5111 c0 -5 16 -12 36 -15 19 -4 182 -63 362 -131 l326 -124 13
-17 c7 -10 13 -30 13 -45 l0 -27 94 -37 94 -36 25 25 c35 35 26 37 268 -55
257 -98 247 -92 265 -134 l14 -34 0 -118 0 -118 37 -20 c20 -11 45 -34 56 -52
l18 -32 20 -163 c10 -90 19 -185 19 -212 l0 -48 -38 -38 -38 -38 -58 -7 c-32
-4 -94 -5 -137 -2 l-79 5 -31 19 c-18 10 -41 35 -52 56 l-19 37 22 193 c26
225 44 269 118 292 l22 6 0 60 c0 72 19 72 -181 -3 l-166 -62 -28 -165 c-28
-166 -40 -206 -69 -230 l-16 -13 0 -118 0 -118 30 -12 c43 -18 100 -77 124
-129 l21 -46 0 -125 -1 -125 -16 -36 c-22 -51 -74 -107 -122 -131 l-41 -21
-82 -5 -83 -5 0 -18 c0 -10 -14 -57 -31 -105 l-32 -87 -49 -73 -49 -74 -75
-67 -74 -68 0 -50 0 -51 46 -22 c122 -59 267 -180 304 -253 l19 -36 93 -22
c627 -153 1085 -678 1159 -1329 l11 -102 -4 -148 -5 -147 -17 -45 c-35 -97
-132 -194 -226 -227 -85 -30 -60 -33 295 -33 l345 0 0 2560 0 2560 -1225 0
-1225 0 0 -9z" />
    <path d="M2258 1342 l-38 -17 0 -16 c0 -23 90 -159 105 -159 l13 0 22 66 22
65 -27 40 -28 39 -16 -1 c-9 0 -33 -8 -53 -17z" />
    <path d="M2765 1321 l-27 -40 22 -65 22 -66 13 0 c15 0 105 136 105 159 l0 16
-43 18 c-57 23 -60 23 -92 -22z" />
  </g>
  <g transform="translate(0.000000,512.000000) scale(0.100000,-0.100000)" fill="#000000" stroke="none">
    <path d="M2390 5096 c-74 -23 -1358 -509 -1392 -527 -42 -23 -58 -90 -33 -138
l14 -29 73 -30 c40 -16 143 -56 228 -88 l156 -59 28 -165 c28 -164 47 -227 73
-237 l13 -5 0 -107 0 -106 -49 -27 -49 -27 -31 -44 c-16 -24 -35 -65 -42 -90
l-11 -46 4 -118 4 -118 18 -35 c26 -49 74 -98 121 -122 l40 -21 79 -6 78 -6
22 -75 c12 -41 40 -109 61 -150 l40 -75 87 -89 88 -89 0 -47 0 -46 -46 -22
c-122 -60 -267 -180 -305 -253 l-18 -37 -78 -17 c-621 -136 -1100 -680 -1174
-1332 l-11 -103 4 -157 5 -158 17 -45 c36 -98 130 -191 231 -229 l56 -21 1869
0 1869 0 56 21 c101 38 195 131 231 229 l17 45 5 158 4 157 -11 103 c-74 650
-532 1175 -1159 1328 l-93 22 -19 36 c-37 73 -182 194 -304 253 l-46 22 0 41
0 40 74 68 75 67 49 74 49 73 32 87 c17 48 31 95 31 105 l0 18 83 5 82 5 41
21 c47 24 100 80 123 131 l16 36 0 135 0 135 -21 46 c-24 52 -81 111 -124 129
l-30 12 0 108 0 108 16 13 c29 24 41 64 69 230 l28 165 116 44 c64 23 137 51
164 61 l47 19 0 -49 0 -50 -22 -6 c-75 -23 -92 -67 -119 -301 l-22 -201 20
-39 c11 -21 34 -47 52 -58 l32 -19 88 -5 c49 -2 115 -1 147 3 l58 7 38 38 38
38 0 58 c0 33 -9 132 -19 222 l-20 163 -18 32 c-11 18 -36 41 -56 52 l-37 20
0 118 0 118 -14 34 c-8 18 -23 38 -33 43 -47 25 -449 172 -470 172 l-24 0 -24
-25 -25 -24 0 -31 0 -31 23 -22 22 -23 132 -49 c73 -27 129 -52 125 -56 -4 -4
-63 -28 -131 -53 l-123 -47 -117 30 c-148 38 -343 76 -507 98 l-129 17 -315 1
-315 0 -105 -13 c-165 -20 -379 -60 -531 -98 l-139 -35 -123 46 c-67 26 -125
50 -129 54 -7 6 1109 435 1216 466 125 38 173 27 573 -125 l288 -110 41 0 41
0 16 18 17 19 0 36 0 37 -18 18 c-18 18 -602 243 -695 268 l-52 14 -100 -1
-100 0 -75 -23z m598 -750 c143 -19 293 -47 445 -83 l109 -25 -5 -22 c-3 -11
-13 -70 -23 -131 -21 -138 -5 -129 -173 -95 -179 36 -323 56 -511 71 l-145 12
-210 -6 c-250 -7 -419 -26 -654 -73 -95 -19 -174 -34 -176 -32 -1 2 -10 53
-19 113 -10 61 -20 122 -23 136 l-5 27 113 27 c152 36 350 71 484 84 61 6 126
13 145 15 19 2 145 3 280 1 l245 -3 123 -16z m1172 -373 c7 -65 13 -134 14
-153 l1 -35 -59 -3 c-32 -2 -64 -1 -71 1 l-12 5 18 149 c10 81 18 149 19 151
0 1 17 2 39 2 l39 0 12 -117z m-1360 -73 c69 -5 166 -15 217 -21 l91 -11 4
-127 3 -128 30 -48 30 -48 57 -31 58 -31 0 -155 c0 -459 -138 -694 -477 -813
l-88 -31 -126 -4 -126 -4 -84 21 c-46 11 -122 39 -168 62 l-85 42 -81 81 -81
81 -37 72 c-21 40 -47 107 -59 150 l-21 78 -4 211 -5 211 33 14 c19 7 53 31
76 52 l43 40 15 50 15 51 0 102 0 102 100 12 c237 29 463 36 670 20z m-941
-233 l-12 -29 -33 -14 c-19 -8 -49 -14 -69 -14 l-36 0 3 98 3 97 75 16 75 15
3 -70 3 -70 -12 -29z m1569 40 l3 -97 -36 0 c-20 0 -51 7 -70 15 l-35 14 -10
26 c-6 15 -10 59 -10 99 l0 74 78 -17 77 -17 3 -97z m-1738 -428 l0 -172 -51
5 -51 5 -26 27 -27 26 -4 97 -3 98 17 31 c21 39 47 52 103 53 l42 1 0 -171z
m1882 142 l33 -29 3 -99 3 -98 -21 -33 c-22 -36 -54 -52 -106 -52 l-34 0 0
170 0 170 45 0 45 0 32 -29z m-1109 -1132 l97 -12 104 11 c87 10 197 37 269
67 l17 7 0 -31 c0 -18 9 -59 20 -92 l21 -60 -11 -41 c-7 -22 -17 -50 -23 -60
-16 -27 -389 -359 -399 -356 -16 6 -369 322 -387 347 -11 14 -24 45 -30 67
l-11 42 20 63 c11 35 20 78 20 95 l0 31 98 -33 97 -33 98 -12z m-464 -260 c1
-3 14 -26 31 -50 l29 -45 181 -159 181 -159 -83 -53 c-46 -29 -102 -63 -125
-75 l-42 -22 -28 9 -28 10 -162 243 c-90 133 -163 251 -163 262 0 25 50 82
120 137 l55 43 17 -68 c9 -37 17 -70 17 -73z m1287 29 c61 -65 63 -59 -118
-330 l-163 -243 -28 -10 -28 -9 -42 22 c-23 12 -79 46 -125 75 l-82 53 179
158 c219 192 244 226 266 354 l7 42 45 -32 c24 -18 64 -54 89 -80z m-1636
-168 c0 -6 71 -117 159 -248 87 -131 250 -379 361 -552 224 -349 228 -355 285
-381 l40 -19 65 0 65 0 40 19 c57 26 62 33 275 366 106 165 269 414 361 553
93 139 169 258 169 263 0 6 8 8 18 5 9 -3 36 -10 60 -16 l44 -11 -15 -22 c-8
-12 -173 -274 -367 -582 -417 -662 -425 -673 -587 -706 l-63 -13 -62 13 c-151
31 -184 65 -413 428 l-181 288 -37 9 -37 10 -28 -21 -27 -20 0 -44 0 -44 175
-280 175 -280 65 -65 65 -65 57 -27 c159 -78 337 -78 496 0 l57 27 65 65 65
65 378 602 379 602 23 -9 c109 -42 277 -160 401 -284 l100 -101 63 -94 c111
-167 171 -311 213 -504 l21 -102 1 -196 1 -195 -30 -49 c-17 -27 -50 -63 -74
-80 l-43 -30 -229 -3 -229 -3 0 260 0 260 -9 24 -10 25 -34 11 c-36 12 -61 7
-90 -17 l-17 -15 0 -274 0 -273 -1250 0 -1250 0 0 273 0 274 -17 15 c-29 24
-54 29 -90 17 l-34 -11 -10 -25 -9 -24 0 -260 0 -260 -229 3 -229 3 -43 30
c-24 17 -57 53 -74 80 l-30 49 1 195 1 196 21 102 c92 430 402 826 764 976
l37 16 117 -185 117 -185 25 -10 c57 -22 112 15 112 76 l0 30 -104 165 c-58
91 -103 166 -101 168 3 4 93 29 108 31 4 1 7 -4 7 -9z m963 -417 c23 -15 44
-28 46 -30 2 -1 -7 -18 -20 -38 l-24 -35 -55 0 -55 0 -25 37 -25 36 11 4 c5 2
26 14 45 28 44 31 51 31 102 -2z m-271 -159 l26 -36 -20 -60 c-11 -33 -24 -56
-28 -51 -13 13 -90 136 -90 142 0 5 65 37 81 40 3 1 17 -15 31 -35z m511 16
c20 -8 37 -17 37 -20 0 -7 -77 -129 -90 -143 -4 -5 -17 18 -28 51 l-20 60 26
36 c14 20 28 35 31 34 3 -2 23 -10 44 -18z m-211 -237 l39 -111 -27 -44 c-15
-23 -37 -53 -48 -65 l-19 -23 -27 0 -27 0 -19 23 c-11 12 -33 42 -48 66 l-28
43 33 92 c18 50 36 101 41 114 l8 23 41 -3 41 -3 40 -112z" />
  </g>
  <g transform="translate(0.000000,512.000000) scale(0.100000,-0.100000)" fill="#746d77" stroke="none">
    <path d="M2330 4374 c-19 -2 -84 -9 -145 -15 -133 -13 -332 -48 -483 -84
l-112 -27 1 -21 c0 -12 10 -80 23 -152 l22 -130 11 2 c6 1 88 18 184 37 96 19
239 43 319 52 l145 17 235 1 c129 1 288 -3 352 -7 l117 -8 11 20 c12 24 57
277 50 284 -21 21 -605 45 -730 31z" />
    <path d="M1846 3664 c-15 -40 4 -48 22 -9 l12 25 -14 0 c-8 0 -17 -7 -20 -16z" />
    <path d="M2041 2644 l24 -25 3 10 c4 13 -22 41 -39 41 l-12 0 24 -26z" />
    <path d="M2965 2243 c8 -31 13 -39 20 -31 9 9 -6 58 -17 58 l-10 0 7 -27z" />
    <path d="M1277 1780 c-125 -64 -225 -137 -338 -250 l-105 -105 -63 -94 c-111
-167 -171 -311 -213 -504 l-21 -102 -1 -206 -1 -205 30 -49 c17 -27 50 -63 74
-80 l43 -30 239 -3 239 -3 0 260 0 260 10 25 9 25 28 8 c35 9 53 6 76 -14 l17
-16 0 -274 0 -273 1260 0 1260 0 0 273 0 274 18 16 c22 20 40 23 75 14 l28 -8
9 -25 10 -25 0 -250 0 -249 13 0 14 0 14 42 14 43 -1 195 -1 195 -18 100 c-46
269 -175 534 -348 720 l-63 69 -15 -6 c-8 -3 -143 -210 -299 -459 l-285 -454
-65 -65 -65 -65 -57 -27 c-158 -77 -318 -77 -476 0 l-57 27 -65 65 -65 65
-174 279 c-96 154 -177 292 -179 308 l-4 29 17 19 c21 23 20 27 -40 120 l-46
72 -27 -5 c-14 -3 -36 -1 -48 3 l-21 9 -118 185 c-64 102 -122 186 -129 186
-6 0 -47 -18 -89 -40z" />
  </g>
  <g transform="translate(0.000000,512.000000) scale(0.100000,-0.100000)" fill="#665e66" stroke="none">
    <path d="M2415 4946 c-112 -37 -1189 -447 -1199 -457 -14 -13 -10 -15 144 -74
l142 -55 18 10 c53 29 429 105 650 132 l105 13 305 0 305 -1 129 -17 c213 -29
557 -101 607 -127 l16 -9 147 56 c81 31 145 60 143 66 -1 5 -66 34 -142 63
l-140 53 -18 23 -19 22 5 22 4 22 -24 11 c-14 6 -29 9 -34 6 -5 -4 -9 -2 -9 3
0 9 -40 25 -65 26 -5 1 -16 7 -23 14 -18 16 -25 15 -55 -8 -41 -32 -67 -26
-370 90 -158 60 -310 116 -339 125 l-52 15 -80 0 -81 -1 -70 -23z" />
    <path d="M3046 4336 c17 -44 -45 -286 -73 -286 -42 0 4 -11 100 -25 113 -16
341 -59 394 -74 l33 -10 5 22 c7 33 45 263 45 275 0 12 -157 51 -353 87 -162
29 -158 29 -151 11z" />
    <path d="M4060 4098 c-16 -98 -36 -315 -31 -321 4 -4 41 -7 82 -5 l74 3 -1 45
c0 25 -6 98 -13 163 l-13 117 -49 0 c-27 0 -49 -1 -49 -2z" />
    <path d="M2520 3909 c0 -5 23 -9 50 -9 28 0 50 4 50 9 0 5 -22 9 -50 9 -27 0
-50 -4 -50 -9z" />
    <path d="M3582 3708 l-2 -117 21 -6 c11 -4 23 -5 26 -2 2 3 -5 8 -16 12 l-20
6 -4 112 -3 112 -2 -117z" />
    <path d="M1700 3705 l0 -105 10 0 10 0 0 105 0 105 -10 0 -10 0 0 -105z" />
    <path d="M2006 3624 c-4 -15 -5 -29 -1 -32 7 -8 12 0 20 31 l7 27 -10 0 c-5 0
-13 -12 -16 -26z" />
    <path d="M1520 3285 l0 -85 10 0 10 0 0 85 0 85 -10 0 -10 0 0 -85z" />
    <path d="M2240 2342 c0 -11 49 -26 58 -17 8 7 0 12 -31 20 l-27 7 0 -10z" />
    <path d="M2060 1932 c0 -13 23 -32 39 -32 l14 0 -18 20 c-19 21 -35 26 -35 12z" />
    <path d="M3025 1920 l-18 -20 14 0 c16 0 39 19 39 32 0 14 -16 9 -35 -12z" />
    <path d="M3652 1677 l-90 -144 68 -70 c175 -183 308 -455 355 -728 l18 -100 1
-185 1 -185 -14 -42 c-8 -23 -18 -40 -22 -37 -5 3 -9 -4 -9 -16 l0 -21 239 3
239 3 43 30 c24 17 57 53 74 80 l30 49 -1 205 -1 206 -21 102 c-42 193 -102
337 -213 504 l-63 94 -105 105 c-130 129 -366 290 -426 290 -7 0 -53 -65 -103
-143z" />
  </g>
  <g transform="translate(0.000000,512.000000) scale(0.100000,-0.100000)" fill="#feebe4" stroke="none">
    <path d="M2408 3915 c-2 -2 -46 -5 -98 -9 -52 -3 -111 -8 -130 -10 -19 -3 -62
-8 -95 -11 -33 -4 -61 -7 -62 -8 -1 -1 -2 -56 -4 -122 l-2 -120 -11 -14 c-6
-8 -10 -17 -10 -20 3 -15 -12 -37 -45 -65 -19 -17 -40 -37 -47 -44 -7 -7 -15
-12 -16 -11 -2 1 -13 -1 -26 -5 l-23 -8 4 -206 c2 -114 7 -223 10 -242 12 -63
19 -95 25 -105 4 -5 8 -18 9 -29 2 -10 20 -51 41 -90 l37 -71 81 -81 82 -80
68 -36 c38 -20 74 -37 79 -38 6 -2 20 -6 33 -11 34 -13 39 -12 90 23 77 53
152 129 202 204 l46 71 27 80 c14 43 31 108 36 144 l11 64 0 426 0 426 -155 0
c-85 0 -155 -1 -157 -2z" />
    <path d="M4058 3623 c28 -2 76 -2 105 0 28 2 5 3 -53 3 -58 0 -81 -1 -52 -3z" />
    <path d="M2160 2346 c0 -18 -7 -52 -15 -75 -8 -23 -14 -42 -13 -44 0 -1 -2
-12 -6 -25 l-8 -23 13 -51 12 -51 51 -51 c28 -28 72 -69 97 -91 25 -22 68 -60
95 -84 27 -24 65 -57 85 -75 20 -17 49 -42 64 -56 l27 -24 12 15 c6 9 18 20
27 25 10 5 54 43 100 84 45 41 101 91 123 111 23 20 62 56 89 79 26 23 47 49
47 56 0 8 5 14 12 14 6 0 8 3 5 7 -4 3 -2 12 4 20 15 18 14 138 -1 138 -4 0
-12 43 -17 83 l-5 42 -13 0 c-7 0 -30 -7 -51 -16 -22 -9 -41 -16 -44 -16 -3 0
-20 -6 -37 -13 -18 -8 -33 -12 -33 -11 0 2 -17 0 -37 -6 -21 -5 -91 -11 -155
-13 l-116 -3 -76 18 c-42 10 -76 15 -76 12 0 -2 -7 1 -15 8 -8 7 -15 9 -15 5
0 -4 -7 -2 -15 5 -8 7 -15 10 -15 6 0 -4 -11 1 -25 10 -14 9 -25 13 -25 8 0
-4 -5 -3 -12 4 -7 7 -18 12 -25 12 l-13 0 0 -34z" />
  </g>
  <g transform="translate(0.000000,512.000000) scale(0.100000,-0.100000)" fill="#fedcce" stroke="none">
    <path d="M2708 3502 l3 -417 -11 -69 c-6 -37 -22 -105 -37 -149 l-27 -80 -46
-71 c-50 -76 -125 -151 -203 -205 -48 -33 -52 -42 -19 -49 55 -11 70 -14 97
-18 38 -5 171 -5 210 0 76 11 109 17 119 23 6 4 19 9 28 10 133 21 393 251
412 365 1 7 7 22 13 33 10 20 22 60 30 105 2 14 7 39 10 55 3 17 7 121 10 232
l5 201 -24 8 c-12 4 -26 7 -30 6 -5 -1 -8 3 -8 10 0 6 -3 9 -6 5 -9 -8 -69 55
-90 94 l-18 34 -4 127 -4 127 -16 0 c-10 0 -35 2 -57 6 -64 9 -124 15 -205 20
-41 3 -88 7 -105 10 l-30 5 3 -418z" />
    <path d="M1574 3448 c-12 -5 -27 -21 -35 -34 l-12 -24 0 -115 1 -115 27 -27
27 -28 56 0 57 0 3 178 2 177 -52 -1 c-29 0 -63 -5 -74 -11z" />
    <path d="M3442 3283 l3 -178 45 -1 c25 -1 50 1 55 5 6 3 14 6 20 6 5 0 20 15
32 34 l23 34 0 98 0 98 -10 6 c-6 4 -8 10 -5 15 3 4 -9 20 -26 34 l-31 26 -54
0 -54 0 2 -177z" />
  </g>
  <g transform="translate(0.000000,512.000000) scale(0.100000,-0.100000)" fill="#f3df65" stroke="none">
    <path d="M1615 1905 c-5 -2 -29 -9 -52 -15 -57 -14 -59 -8 62 -199 110 -175
115 -186 89 -230 l-16 -27 52 -83 53 -82 23 5 c12 3 33 2 46 -3 l24 -9 183
-290 183 -291 43 -40 c151 -139 386 -132 526 16 31 31 610 938 625 976 l4 12
-48 33 c-26 17 -54 32 -62 32 l-15 0 -79 -123 c-44 -67 -178 -275 -299 -462
-243 -376 -245 -380 -302 -406 l-40 -19 -55 0 -55 0 -40 19 c-57 26 -61 32
-285 381 -111 173 -274 421 -361 552 -88 131 -159 242 -159 248 0 10 -24 12
-45 5z" />
  </g>
  <g transform="translate(0.000000,512.000000) scale(0.100000,-0.100000)" fill="#e0dddf" stroke="none">
    <path d="M3876 3730 c9 -33 34 -70 47 -70 l10 0 -15 18 c-9 9 -23 31 -32 47
l-17 30 7 -25z" />
    <path d="M1926 2155 c-15 -14 -30 -25 -34 -25 -4 0 -30 -22 -57 -50 l-49 -49
-2 -36 -3 -35 159 -240 c159 -239 177 -260 224 -260 28 0 76 19 76 31 0 4 10
9 23 13 12 3 31 13 42 23 12 10 37 27 58 37 20 11 37 22 37 26 0 4 10 10 23
14 l22 6 -40 36 c-22 20 -58 52 -81 72 -22 21 -75 68 -118 107 -43 38 -91 77
-107 87 -16 10 -34 29 -39 43 -5 14 -13 25 -18 25 -10 0 -48 108 -58 163 l-6
37 -13 0 c-6 0 -24 -11 -39 -25z" />
    <path d="M3136 2143 c-10 -55 -48 -163 -58 -163 -5 0 -13 -11 -18 -25 -5 -13
-27 -35 -48 -49 -22 -14 -48 -35 -58 -48 -11 -14 -26 -28 -35 -34 -9 -5 -50
-39 -90 -75 -41 -37 -91 -82 -113 -101 l-39 -34 50 -32 c27 -18 55 -32 61 -32
7 0 12 -4 12 -8 0 -5 17 -17 38 -28 20 -10 39 -22 42 -25 23 -27 87 -37 121
-18 11 5 92 118 179 249 l159 240 -3 35 -2 36 -49 49 c-27 28 -53 50 -57 50
-4 0 -19 11 -34 25 -15 14 -33 25 -39 25 l-13 0 -6 -37z" />
  </g>
  <g transform="translate(0.000000,512.000000) scale(0.100000,-0.100000)" fill="#8a828a" stroke="none">
    <path d="M1846 3841 c-3 -5 -15 -7 -25 -4 -10 3 -22 0 -25 -5 -3 -6 -15 -8
-26 -5 -11 3 -20 1 -20 -4 0 -5 -9 -9 -21 -9 l-20 1 -2 -109 -2 -108 58 4 59
4 7 13 c5 7 12 13 17 13 5 0 8 4 7 9 -2 5 2 9 8 9 5 0 7 5 4 10 -3 6 -1 10 4
10 l11 0 0 90 0 90 -14 0 c-8 0 -17 -4 -20 -9z" />
    <path d="M3260 3763 l0 -88 13 -25 c8 -14 19 -24 25 -22 7 1 12 -3 12 -9 0 -5
4 -8 9 -4 5 3 12 1 16 -5 3 -5 29 -10 56 -10 l50 0 -3 108 -3 107 -20 0 c-11
1 -26 4 -32 8 -7 5 -29 9 -48 11 -20 2 -38 6 -42 10 -3 3 -12 6 -20 6 l-13 0
0 -87z" />
    <path d="M1887 1801 c84 -130 119 -181 126 -181 4 0 -24 47 -63 105 -39 58
-73 105 -76 105 -3 0 2 -13 13 -29z" />
    <path d="M3160 1710 c-44 -66 -77 -120 -73 -120 7 0 60 76 146 211 11 16 16
29 13 29 -3 0 -42 -54 -86 -120z" />
    <path d="M384 475 c0 -60 1 -84 3 -52 2 32 2 81 0 110 -2 29 -3 3 -3 -58z" />
    <path d="M4734 475 c0 -60 1 -84 3 -52 2 32 2 81 0 110 -2 29 -3 3 -3 -58z" />
  </g>
  <g transform="translate(0.000000,512.000000) scale(0.100000,-0.100000)" fill="#779ad2" stroke="none">
    <path d="M2501 1485 c-29 -18 -55 -36 -58 -39 -3 -3 8 -23 23 -45 l29 -41 65
0 65 0 28 39 c34 49 37 42 -32 85 -70 43 -55 43 -120 1z" />
    <path d="M2505 1208 c-2 -7 -20 -57 -40 -112 -45 -125 -42 -142 39 -233 l19
-23 37 0 37 0 19 23 c82 92 84 106 35 243 l-39 109 -51 3 -51 3 -5 -13z" />
  </g>
  <g transform="translate(0.000000,512.000000) scale(0.100000,-0.100000)" fill="#0e0d0c" stroke="none">
    <path d="M4024 3790 l1 -15 74 -3 c41 -2 78 1 82 5 4 4 -27 7 -71 5 l-78 -3
-5 13 -4 13 1 -15z" />
    <path d="M1750 3610 l-55 -7 52 -1 c28 -1 55 3 58 8 3 6 5 9 3 8 -2 -1 -28 -4
-58 -8z" />
    <path d="M3385 3610 l-50 -7 53 -1 52 -2 0 10 c0 6 -1 9 -2 8 -2 0 -25 -4 -53
-8z" />
    <path d="M1800 1935 c0 -10 73 -115 77 -111 3 2 -12 29 -33 60 -34 52 -44 63
-44 51z" />
    <path d="M3276 1884 c-21 -31 -36 -58 -33 -60 2 -2 21 21 41 52 21 31 36 58
33 60 -2 2 -21 -21 -41 -52z" />
    <path d="M1675 1853 c44 -68 65 -97 65 -90 0 9 -71 117 -78 117 -2 0 4 -12 13
-27z" />
    <path d="M1147 1706 c-55 -39 -76 -59 -32 -31 62 38 99 65 90 64 -6 0 -32 -15
-58 -33z" />
    <path d="M3911 1736 c14 -14 112 -76 116 -73 4 4 -103 77 -114 77 -3 0 -4 -2
-2 -4z" />
    <path d="M3306 1664 c-21 -31 -36 -58 -34 -60 2 -2 21 22 41 53 21 31 36 58
34 60 -2 2 -21 -22 -41 -53z" />
    <path d="M2046 1560 c26 -39 49 -68 51 -66 6 6 -80 136 -90 136 -4 0 14 -32
39 -70z" />
    <path d="M3052 1549 c-18 -28 -32 -53 -29 -55 2 -2 20 21 41 51 20 30 33 55
29 55 -5 0 -23 -23 -41 -51z" />
    <path d="M1936 1463 c10 -16 31 -49 47 -76 17 -26 32 -45 34 -43 5 5 -87 146
-95 146 -2 0 4 -12 14 -27z" />
    <path d="M3126 1389 c-26 -39 -46 -73 -43 -75 2 -2 17 17 34 43 16 27 37 60
47 76 10 15 16 27 14 27 -3 0 -26 -32 -52 -71z" />
    <path d="M625 194 c22 -18 85 -47 90 -42 2 2 -22 15 -53 30 -32 15 -48 21 -37
12z" />
    <path d="M4480 196 c-6 -8 -27 -20 -46 -26 -20 -7 -33 -14 -31 -17 6 -6 67 21
92 41 11 8 15 16 9 16 -6 0 -17 -7 -24 -14z" />
  </g>
  <g transform="translate(0.000000,512.000000) scale(0.100000,-0.100000)" fill="#1e1c1d" stroke="none">
    <path d="M2533 4523 c20 -2 54 -2 75 0 20 2 3 4 -38 4 -41 0 -58 -2 -37 -4z" />
    <path d="M1857 3843 l12 -9 4 -79 3 -80 0 84 -1 84 -15 4 -15 5 12 -9z" />
    <path d="M3387 1781 c-30 -45 -32 -51 -17 -51 6 0 10 7 10 15 0 8 5 15 10 15
6 0 10 6 10 14 0 8 5 16 12 18 6 2 9 10 7 17 l-5 13 -27 -41z" />
    <path d="M1755 1735 c46 -74 165 -249 165 -242 0 9 -157 247 -173 262 -6 6 -2
-3 8 -20z" />
    <path d="M3216 1525 c-20 -30 -36 -58 -36 -62 0 -7 21 22 65 90 9 15 15 27 13
27 -3 0 -22 -25 -42 -55z" />
    <path d="M1304 415 c0 -148 2 -211 3 -138 2 72 2 194 0 270 -1 76 -3 17 -3
-132z" />
    <path d="M3814 415 c0 -148 2 -211 3 -138 2 72 2 194 0 270 -1 76 -3 17 -3
-132z" />
  </g>
  <g transform="translate(0.000000,512.000000) scale(0.100000,-0.100000)" fill="#312e2d" stroke="none">
    <path d="M3264 3837 c-3 -8 -4 -47 -2 -88 l3 -74 5 88 c5 87 4 99 -6 74z" />
    <path d="M3273 3469 l17 -10 2 -172 2 -172 3 169 3 168 -11 14 c-6 8 -17 14
-23 14 -6 0 -3 -5 7 -11z" />
    <path d="M2050 1567 c0 -16 61 -97 72 -97 l12 0 -16 13 c-8 6 -27 30 -42 52
-14 22 -26 36 -26 32z" />
    <path d="M3046 1538 c-11 -17 -27 -39 -37 -49 -11 -11 -15 -19 -9 -19 10 0 74
89 68 95 -2 3 -12 -10 -22 -27z" />
    <path d="M2484 1383 l19 -23 58 0 c32 0 60 3 62 8 3 4 -22 5 -55 4 l-59 -4
-22 19 -22 18 19 -22z" />
    <path d="M534 490 c0 -74 1 -105 3 -67 2 37 2 97 0 135 -2 37 -3 6 -3 -68z" />
    <path d="M4584 485 c0 -66 1 -92 3 -57 2 34 2 88 0 120 -2 31 -3 3 -3 -63z" />
  </g>
  <g transform="translate(0.000000,512.000000) scale(0.100000,-0.100000)" fill="#403d3d" stroke="none">
    <path d="M4025 4300 c0 -32 3 -56 8 -53 4 2 7 26 7 53 0 27 -3 51 -7 53 -5 3
-8 -21 -8 -53z" />
    <path d="M1554 3705 c0 -60 1 -84 3 -52 2 32 2 81 0 110 -2 29 -3 3 -3 -58z" />
    <path d="M3613 3285 c0 -44 2 -61 4 -37 2 23 2 59 0 80 -2 20 -4 1 -4 -43z" />
  </g>
  <g transform="translate(0.000000,512.000000) scale(0.100000,-0.100000)" fill="#5a555a" stroke="none">
    <path d="M1844 3330 c0 -74 1 -105 3 -67 2 37 2 97 0 135 -2 37 -3 6 -3 -68z" />
    <path d="M1154 410 c0 -146 2 -205 3 -132 2 72 2 192 0 265 -1 72 -3 13 -3
-133z" />
    <path d="M3964 415 c0 -143 2 -200 3 -127 2 73 2 190 0 260 -1 70 -3 10 -3
-133z" />
  </g>
  <g transform="translate(0.000000,512.000000) scale(0.100000,-0.100000)" fill="#4d494e" stroke="none">
    <path d="M3434 3710 c0 -58 1 -81 3 -52 2 28 2 76 0 105 -2 28 -3 5 -3 -53z" />
    <path d="M3272 1879 c-17 -27 -32 -52 -32 -56 0 -4 16 16 36 45 20 30 34 55
32 57 -2 2 -18 -19 -36 -46z" />
  </g>
  <g transform="translate(0.000000,512.000000) scale(0.100000,-0.100000)" fill="#bab6b5" stroke="none">
    <path d="M4182 4373 c-1 -67 1 -124 6 -126 4 -3 6 34 4 81 -4 153 -8 170 -10
45z" />
    <path d="M2024 3785 c0 -49 1 -71 3 -48 2 23 2 64 0 90 -2 26 -3 8 -3 -42z" />
    <path d="M3442 3288 c2 -176 6 -156 10 55 2 64 0 117 -4 117 -5 0 -7 -78 -6
-172z" />
    <path d="M3764 3280 c0 -52 1 -74 3 -47 2 26 2 68 0 95 -2 26 -3 4 -3 -48z" />
  </g>
  <g transform="translate(0.000000,512.000000) scale(0.100000,-0.100000)" fill="#9f9894" stroke="none">
    <path d="M3114 3770 c0 -58 1 -81 3 -52 2 28 2 76 0 105 -2 28 -3 5 -3 -53z" />
    <path d="M1688 3348 c4 -205 8 -225 10 -55 1 92 -1 167 -5 167 -5 0 -7 -51 -5
-112z" />
    <path d="M1374 3285 c0 -55 1 -76 3 -47 2 29 2 74 0 100 -2 26 -3 2 -3 -53z" />
  </g>
  <g transform="translate(0.000000,512.000000) scale(0.100000,-0.100000)" fill="#edd033" stroke="none">
    <path d="M3455 1881 c-7 -15 -36 -60 -64 -100 l-50 -73 57 -38 56 -38 74 119
c41 66 73 122 70 124 -2 2 -32 11 -66 19 l-62 14 -15 -27z" />
  </g>
  <g transform="translate(0.000000,512.000000) scale(0.100000,-0.100000)" fill="#d1c9c7" stroke="none" />
  <g transform="translate(0.000000,512.000000) scale(0.100000,-0.100000)" fill="#7d7979" stroke="none" />
  <g transform="translate(0.000000,512.000000) scale(0.100000,-0.100000)" fill="#b8a848" stroke="none" />
  <g transform="translate(0.000000,512.000000) scale(0.100000,-0.100000)" fill="#74692d" stroke="none" />
  <g transform="translate(0.000000,512.000000) scale(0.100000,-0.100000)" fill="#506992" stroke="none" />
  <g transform="translate(0.000000,512.000000) scale(0.100000,-0.100000)" fill="#6986b4" stroke="none" />
</svg>