<svg width="512.000000pt" height="512.000000pt" viewBox="0 0 512.000000 512.000000" xmlns="http://www.w3.org/2000/svg">
  <g transform="translate(0.000000,512.000000) scale(0.100000,-0.100000)" fill="#ffffff00" stroke="none">
    <path d="M0 2560 l0 -2560 1240 0 1240 0 0 10 c0 6 -7 10 -16 10 -9 0 -75 29
-148 64 -208 103 -383 155 -661 197 l-130 20 -235 6 -235 5 -40 19 -40 19 -25
37 -25 36 -3 226 -3 226 -43 18 c-24 10 -62 34 -84 53 l-41 35 -33 67 -33 67
0 165 0 165 24 50 c31 61 91 123 159 161 l52 29 0 286 0 285 16 47 16 46 34
30 34 30 0 64 0 63 25 50 25 49 37 25 36 25 166 5 166 5 60 36 c112 68 231
112 395 144 172 34 239 94 240 212 l0 42 -89 88 -88 88 -36 65 c-31 57 -64
150 -81 230 l-5 26 -43 11 c-56 15 -120 71 -149 131 l-24 47 1 125 0 125 24
45 24 45 0 76 1 77 19 21 c10 11 27 23 37 26 l19 6 0 103 0 102 -31 23 -31 23
5 45 5 45 42 86 43 86 68 67 68 67 80 40 c43 22 98 43 120 47 23 4 41 11 41
16 l0 9 -1095 0 -1095 0 0 -2560z" />
    <path d="M3050 5111 c0 -5 10 -11 23 -15 61 -15 130 -104 143 -184 l6 -39 54
-12 54 -13 42 -31 c23 -18 52 -52 65 -76 l23 -44 0 -459 0 -459 -14 -33 c-17
-42 -72 -93 -114 -107 l-32 -11 -6 -26 c-43 -202 -145 -363 -294 -463 l-49
-34 -1 -30 c0 -43 32 -107 69 -138 34 -28 61 -37 249 -81 123 -29 234 -73 327
-130 l60 -36 147 0 147 0 28 -11 c40 -15 82 -57 104 -104 l19 -40 0 -63 0 -63
35 -30 35 -31 15 -51 c8 -28 15 -76 15 -107 l0 -57 -20 -26 c-11 -14 -29 -29
-40 -32 l-20 -6 0 -102 0 -102 28 -13 c37 -16 52 -50 52 -115 l0 -52 52 -29
c104 -58 159 -133 179 -243 l11 -58 -4 -122 -5 -122 -32 -65 -32 -65 -41 -35
c-22 -19 -60 -43 -84 -53 l-43 -18 -3 -225 -3 -225 -23 -37 -23 -37 -42 -19
-42 -20 -235 -5 -235 -6 -135 -20 c-273 -42 -481 -105 -679 -207 -58 -30 -113
-54 -123 -54 -10 0 -18 -4 -18 -10 l0 -10 1240 0 1240 0 0 2560 0 2560 -1035
0 -1035 0 0 -9z" />
    <path d="M1166 2534 c-3 -9 -6 -33 -6 -54 l0 -37 133 -7 c484 -25 765 -89
1084 -248 l162 -80 38 7 c21 4 87 33 148 65 173 92 356 156 563 195 l93 18 -3
61 -3 61 -45 -3 c-145 -11 -450 -114 -595 -201 -44 -26 -97 -54 -119 -61 l-38
-12 -47 6 -46 6 -90 54 c-273 161 -639 246 -1066 246 l-157 0 -6 -16z" />
  </g>
  <g transform="translate(0.000000,512.000000) scale(0.100000,-0.100000)" fill="#000000" stroke="none">
    <path d="M2125 5101 c-33 -9 -89 -32 -125 -51 l-64 -35 -67 -66 -66 -65 -43
-87 -43 -87 -5 -54 -4 -53 27 -21 c60 -48 113 -20 141 72 42 138 154 249 293
290 l55 16 393 0 394 0 18 -10 c20 -10 36 -47 46 -102 10 -65 80 -128 140
-128 90 0 95 -15 95 -299 l0 -237 -12 -12 c-28 -28 -62 -13 -109 51 -43 58
-77 64 -261 52 l-107 -8 -83 26 -84 26 -62 41 c-35 22 -101 76 -147 120 l-85
79 -52 16 c-65 19 -91 19 -157 -1 l-53 -15 -42 -42 -41 -42 -13 -41 -12 -41 0
-132 c0 -72 -4 -131 -8 -131 -27 0 -105 35 -117 53 l-15 21 0 63 0 63 -20 20
-20 20 -29 0 -30 0 -28 -24 -28 -24 -1 -79 -2 -80 -23 -44 -23 -44 -1 -135 0
-135 23 -47 c30 -60 94 -116 150 -131 l43 -11 5 -26 c17 -80 50 -173 81 -230
l36 -65 88 -88 89 -88 0 -32 c-1 -108 -73 -169 -240 -202 -164 -32 -283 -76
-395 -144 l-60 -36 -166 -5 -166 -5 -36 -25 -37 -25 -25 -49 -25 -50 0 -63 0
-64 -34 -30 -34 -30 -16 -46 -16 -47 0 -285 0 -286 -52 -29 c-68 -38 -128
-100 -159 -161 l-24 -50 0 -175 0 -175 33 -67 33 -67 41 -35 c22 -19 60 -43
84 -53 l43 -18 3 -226 3 -226 25 -36 25 -37 40 -19 40 -19 235 -5 235 -6 130
-20 c281 -43 455 -95 665 -199 l135 -67 115 0 116 0 109 56 c205 105 410 168
685 210 l135 20 235 6 235 5 42 20 42 19 23 37 23 37 3 225 3 225 43 18 c24
10 62 34 84 53 l41 35 32 65 33 66 4 131 4 132 -11 58 c-20 110 -75 185 -179
243 l-52 29 0 53 c0 82 -28 121 -88 122 l-32 0 -20 -20 -20 -20 0 -148 0 -148
-12 -12 -12 -12 -60 0 -61 0 -40 -19 c-46 -21 -98 -69 -123 -115 l-17 -31 -3
-165 -4 -165 11 -36 c15 -51 48 -88 95 -110 l41 -19 93 0 92 0 -2 -192 -3
-193 -215 -6 c-406 -13 -690 -68 -1002 -194 l-18 -7 0 900 0 899 91 42 c237
108 549 170 945 187 l162 6 21 -21 21 -21 0 -74 0 -75 26 -20 c15 -12 38 -21
51 -21 l25 0 29 29 29 29 0 69 c0 38 -7 92 -15 120 l-15 51 -35 31 -35 30 0
63 0 63 -19 40 c-22 47 -64 89 -104 104 l-28 11 -147 0 -147 0 -60 36 c-93 57
-204 101 -327 130 -188 44 -215 53 -249 81 -33 28 -69 94 -69 128 l1 20 49 34
c149 100 251 261 294 463 l6 26 32 11 c43 14 97 65 115 109 l14 34 -1 466 0
467 -23 45 -23 45 -42 32 -42 31 -54 13 -54 12 -6 39 c-13 82 -69 153 -143
185 l-32 13 -433 -1 -433 0 -60 -18z m211 -751 c200 -189 413 -269 638 -240
l79 10 36 -41 c19 -23 53 -50 75 -60 l41 -19 51 0 51 0 7 -80 7 -80 -13 -27
-13 -28 -35 -3 c-19 -1 -45 -5 -57 -7 l-23 -5 -15 -30 c-8 -16 -15 -46 -15
-67 0 -203 -173 -417 -397 -490 l-78 -26 -90 0 -90 0 -78 27 c-230 78 -397
285 -397 494 l0 39 -21 27 -20 26 -47 0 -47 0 -32 20 -32 19 -10 38 c-6 21
-11 66 -11 101 l0 62 9 0 c6 0 41 -11 79 -25 l69 -25 48 0 47 0 30 18 c16 9
38 34 49 54 l19 37 0 149 0 149 20 26 c41 52 73 44 166 -43z m191 -1355 l78
-7 75 11 c41 6 87 14 101 17 l25 6 13 -43 c14 -46 33 -81 64 -116 l19 -22 -61
-30 c-178 -90 -408 -76 -578 35 l-23 14 24 38 c19 31 40 83 52 128 l3 12 65
-18 c36 -10 100 -22 143 -25z m-386 -268 c70 -49 195 -105 277 -122 l73 -15
97 0 c159 0 300 41 423 123 l55 36 112 -25 c62 -14 129 -31 149 -38 l38 -14
-40 -7 c-289 -51 -501 -126 -717 -252 l-48 -28 -47 28 c-217 126 -429 201
-718 252 l-40 7 40 15 c32 11 114 31 295 72 3 0 26 -14 51 -32z m-530 -202
c320 -34 563 -107 775 -232 l92 -54 55 -6 54 -6 39 13 c21 7 75 35 119 61 238
143 580 224 987 236 l188 6 15 -13 15 -12 0 -33 0 -32 -152 -7 c-452 -21 -794
-102 -1083 -255 -60 -32 -124 -62 -140 -65 l-30 -7 -155 78 -155 78 -115 37
c-244 79 -470 116 -817 134 l-133 7 0 27 c0 16 3 35 6 44 l6 16 147 0 c80 0
207 -7 282 -15z m-47 -261 c253 -28 484 -87 664 -169 l82 -38 0 -899 0 -900
-17 7 c-288 121 -601 181 -1008 194 l-210 6 -3 193 -2 192 90 0 91 0 36 15
c50 21 72 42 94 90 l19 40 0 156 0 155 -16 46 c-18 55 -72 114 -128 139 l-41
19 -60 0 -61 0 -12 12 -12 12 0 358 0 358 21 21 21 21 162 -6 c88 -4 219 -14
290 -22z m1086 -1195 l0 -897 -22 -6 c-29 -7 -107 -7 -135 0 l-23 6 0 897 0
898 90 0 90 0 0 -898z m-1728 396 c18 -70 94 -115 196 -115 64 0 87 -11 107
-50 l15 -29 0 -119 0 -120 -15 -12 -14 -12 -128 3 -128 4 -37 23 c-20 13 -47
40 -60 60 l-23 37 0 141 0 140 28 43 c31 47 47 49 59 6z m3327 9 c12 -15 26
-45 32 -68 l11 -41 -4 -116 -4 -115 -22 -37 c-13 -20 -40 -46 -60 -59 l-37
-23 -128 -4 -128 -3 -14 12 -15 12 0 122 0 121 20 32 19 32 23 5 c13 3 54 7
91 9 l69 5 35 28 c33 28 56 60 67 97 8 24 21 21 45 -9z" />
    <path d="M3555 1844 c-234 -26 -554 -101 -576 -136 -16 -23 -21 -57 -15 -83
l7 -26 33 -15 33 -16 89 26 c169 49 397 88 603 102 l105 7 23 23 23 23 0 29
c0 16 -9 41 -21 56 l-20 26 -77 -1 c-42 -1 -135 -8 -207 -15z" />
  </g>
  <g transform="translate(0.000000,512.000000) scale(0.100000,-0.100000)" fill="#ebbd6a" stroke="none">
    <path d="M1081 2281 l-21 -21 0 -368 0 -368 12 -12 12 -12 61 0 60 0 41 -19
c56 -25 110 -84 128 -139 l16 -46 0 -145 0 -146 -19 -40 c-22 -48 -44 -69 -94
-90 l-36 -15 -91 0 -90 0 2 -202 3 -203 215 -7 c415 -12 723 -73 1023 -203
l17 -7 0 915 0 914 -82 38 c-249 113 -555 174 -959 190 l-176 8 -22 -22z" />
    <path d="M3294 2236 c-147 -31 -295 -78 -405 -128 l-89 -41 0 -913 c0 -503 2
-914 4 -914 2 0 28 11 57 24 130 57 366 122 532 146 l87 13 0 629 0 628 -10 0
c-28 0 -278 -53 -349 -75 l-83 -25 -28 15 c-35 18 -46 48 -30 85 l12 28 26 11
c62 24 206 60 330 82 l132 24 -2 215 -3 215 -35 2 c-19 1 -85 -8 -146 -21z" />
    <path d="M4110 1965 l0 -105 13 0 12 0 0 105 0 105 -12 0 -13 0 0 -105z" />
  </g>
  <g transform="translate(0.000000,512.000000) scale(0.100000,-0.100000)" fill="#feebe3" stroke="none">
    <path d="M2203 4433 c-13 -2 -32 -16 -43 -30 l-20 -26 0 -149 0 -149 -19 -37
c-40 -77 -104 -89 -236 -43 -46 17 -86 27 -89 24 -10 -10 -7 -145 5 -186 l10
-38 32 -19 32 -20 47 0 47 0 20 -26 21 -27 0 -39 c0 -199 160 -407 374 -487
l59 -22 54 37 c113 78 205 214 237 354 l16 65 0 257 0 257 -57 16 c-114 33
-233 107 -347 216 -71 67 -99 81 -143 72z" />
    <path d="M869 1489 c-16 -17 -34 -49 -40 -72 l-11 -41 4 -126 3 -125 23 -37
c13 -20 40 -47 60 -60 l37 -23 138 -3 138 -4 14 12 15 12 0 130 0 129 -15 29
c-20 39 -43 50 -107 50 -74 0 -116 14 -155 52 l-33 32 -11 38 c-12 46 -22 47
-60 7z" />
  </g>
  <g transform="translate(0.000000,512.000000) scale(0.100000,-0.100000)" fill="#e7ae4d" stroke="none">
    <path d="M3770 2293 c-88 -4 -291 -23 -313 -29 l-18 -6 16 -12 16 -11 -3 -208
-3 -207 30 5 c54 9 236 25 285 25 l49 0 20 -26 c27 -34 26 -59 -2 -88 l-22
-22 -150 -13 c-83 -6 -163 -15 -180 -19 l-30 -7 0 -628 c0 -345 1 -627 2 -627
1 0 37 5 80 11 43 6 175 14 293 18 l215 6 3 203 2 202 -92 0 -93 0 -41 19
c-47 22 -80 59 -95 110 l-11 37 4 154 3 155 17 31 c25 46 77 94 123 115 l40
19 60 0 61 0 12 12 12 12 0 148 0 148 20 20 c11 11 26 20 33 20 l12 0 0 102 0
103 -30 20 -30 21 -5 83 -5 83 -19 14 -20 14 -90 -2 c-50 -1 -120 -3 -156 -5z" />
  </g>
  <g transform="translate(0.000000,512.000000) scale(0.100000,-0.100000)" fill="#feddce" stroke="none">
    <path d="M2738 3881 l3 -250 -16 -68 c-33 -144 -123 -278 -240 -359 l-57 -38
29 -9 c15 -5 73 -9 128 -10 l100 0 78 25 c224 74 397 288 397 491 0 21 7 51
15 67 l15 30 23 5 c12 2 38 6 57 7 l35 3 13 28 14 29 -7 89 -7 89 -52 0 -51 0
-41 19 c-22 10 -56 37 -76 60 l-36 43 -89 -11 -88 -10 -70 9 c-38 5 -72 9 -75
10 -3 0 -4 -112 -2 -249z" />
    <path d="M2306 3038 c-14 -56 -33 -100 -58 -137 l-29 -44 13 -9 c172 -121 434
-141 618 -48 l60 30 0 15 c0 7 -5 17 -10 20 -18 11 -56 77 -70 120 -7 22 -14
43 -16 47 -2 3 -30 -1 -62 -10 l-57 -15 -110 0 -110 -1 -78 22 c-91 26 -87 25
-91 10z" />
    <path d="M4193 1488 l-6 -32 -42 -41 -41 -42 -33 -6 c-19 -4 -56 -7 -83 -7
-60 0 -83 -11 -103 -50 l-15 -29 0 -129 0 -130 15 -12 14 -12 138 4 138 3 37
23 c20 13 47 40 60 60 l22 36 4 126 4 125 -12 44 -12 44 -28 29 c-37 36 -49
35 -57 -4z" />
  </g>
  <g transform="translate(0.000000,512.000000) scale(0.100000,-0.100000)" fill="#88808b" stroke="none">
    <path d="M2150 4951 c-135 -43 -243 -152 -284 -287 -19 -62 -45 -94 -77 -94
l-19 0 0 -105 0 -105 15 0 c8 0 24 -9 35 -20 l20 -20 0 -63 0 -63 15 -21 15
-21 53 -18 c28 -9 57 -19 64 -21 l12 -5 3 154 3 153 21 40 c11 22 39 54 62 72
l42 31 53 12 54 12 56 -16 57 -17 83 -77 c120 -114 245 -191 310 -192 l18 0
-4 203 c-6 310 -17 350 -136 464 l-24 23 -196 -1 -196 0 -55 -18z" />
    <path d="M3680 2540 c0 -5 14 -10 30 -10 17 0 30 5 30 10 0 6 -13 10 -30 10
-16 0 -30 -4 -30 -10z" />
    <path d="M1013 2470 c0 -36 2 -50 4 -32 2 17 2 47 0 65 -2 17 -4 3 -4 -33z" />
    <path d="M4103 2465 c0 -33 2 -45 4 -27 2 18 2 45 0 60 -2 15 -4 0 -4 -33z" />
  </g>
  <g transform="translate(0.000000,512.000000) scale(0.100000,-0.100000)" fill="#746e77" stroke="none">
    <path d="M2605 4942 c48 -45 84 -90 78 -96 -4 -3 -1 -6 6 -6 7 0 9 -4 6 -10
-3 -5 -1 -10 5 -10 6 0 8 -4 5 -10 -3 -5 -1 -10 5 -10 6 0 9 -4 5 -9 -3 -5 -1
-12 5 -16 6 -4 8 -11 5 -16 -4 -5 -3 -14 1 -21 13 -20 15 -55 20 -252 l5 -189
-12 -8 -12 -7 44 -12 44 -12 115 6 c183 11 206 6 249 -51 11 -16 28 -36 38
-45 l16 -18 32 0 c17 0 36 5 43 12 l12 12 0 247 c0 295 -4 309 -95 309 -60 0
-130 63 -140 128 -10 55 -26 92 -46 102 l-18 10 -223 0 -222 0 29 -28z" />
    <path d="M1172 2538 c-13 -13 -17 -98 -4 -98 4 0 6 15 4 34 -2 18 1 43 7 55
13 24 11 27 -7 9z" />
    <path d="M3940 2480 l0 -40 10 0 10 0 0 40 0 40 -10 0 -10 0 0 -40z" />
    <path d="M2693 2473 c-7 -2 -13 -11 -13 -19 l0 -14 25 12 c39 18 28 38 -12 21z" />
    <path d="M1244 1155 c0 -71 1 -99 3 -62 2 37 2 96 0 130 -2 34 -3 4 -3 -68z" />
    <path d="M3874 1155 c0 -71 1 -99 3 -62 2 37 2 96 0 130 -2 34 -3 4 -3 -68z" />
    <path d="M3035 180 c-27 -10 -43 -18 -35 -18 8 0 38 8 65 18 28 10 43 18 35
18 -8 0 -37 -8 -65 -18z" />
  </g>
  <g transform="translate(0.000000,512.000000) scale(0.100000,-0.100000)" fill="#e39542" stroke="none">
    <path d="M2460 1076 l0 -914 23 -6 c29 -7 125 -7 155 0 l22 6 0 914 0 914 -27
-7 c-16 -3 -48 -7 -73 -7 -25 0 -57 4 -72 7 l-28 7 0 -914z" />
  </g>
  <g transform="translate(0.000000,512.000000) scale(0.100000,-0.100000)" fill="#87a7d7" stroke="none">
    <path d="M2060 2763 c-8 -2 -22 -7 -30 -10 -8 -3 -32 -7 -54 -9 -21 -2 -43 -7
-49 -11 -6 -4 -27 -8 -46 -10 -20 -2 -38 -7 -41 -11 -3 -4 -9 -7 -15 -7 -30
-1 -74 -18 -79 -31 l-5 -14 22 -2 c12 -1 31 -3 42 -3 11 -1 28 -6 37 -10 9 -4
21 -4 27 -1 5 4 13 2 16 -4 4 -6 14 -10 23 -9 10 1 24 -1 32 -4 28 -11 245
-68 254 -67 5 1 12 -2 15 -7 8 -13 91 -45 91 -35 0 4 4 2 8 -4 8 -13 112 -67
112 -59 0 3 9 -3 20 -13 12 -9 23 -16 25 -14 3 1 14 -7 25 -18 12 -12 25 -18
30 -15 6 4 10 1 10 -4 0 -6 14 -11 30 -11 17 0 30 5 30 11 0 5 4 8 10 4 5 -3
18 3 30 15 11 11 23 20 28 20 4 0 14 6 24 14 9 8 19 12 22 9 3 -4 6 0 6 7 0 7
3 11 6 7 8 -7 86 31 96 47 4 6 8 8 8 4 0 -10 83 22 91 35 3 5 8 8 10 6 2 -1
28 4 57 11 l52 14 0 12 c0 6 -22 26 -50 44 l-49 32 -31 -7 c-16 -4 -30 -10
-30 -14 0 -4 -8 -7 -17 -8 -10 -1 -31 -7 -48 -14 -16 -6 -43 -13 -60 -15 -16
-2 -41 -6 -55 -10 -39 -9 -190 -5 -237 6 -24 5 -46 9 -50 8 -5 0 -20 4 -34 10
-15 6 -35 12 -45 14 -11 2 -21 6 -24 9 -5 7 -127 69 -135 69 -2 0 -16 12 -29
25 -24 24 -44 29 -76 18z" />
  </g>
  <g transform="translate(0.000000,512.000000) scale(0.100000,-0.100000)" fill="#ebe9eb" stroke="none">
    <path d="M1860 4945 c-18 -19 -32 -37 -29 -39 3 -3 22 13 43 34 21 22 34 40
29 40 -5 0 -24 -16 -43 -35z" />
    <path d="M1643 3940 c0 -47 2 -66 4 -42 2 23 2 61 0 85 -2 23 -4 4 -4 -43z" />
    <path d="M3596 2543 c-2 -2 -30 -5 -62 -8 -32 -2 -77 -7 -99 -10 -22 -3 -52
-7 -68 -9 -15 -1 -30 -6 -35 -10 -4 -5 2 -6 13 -4 l20 3 0 -58 0 -58 20 6 c32
9 93 17 225 30 78 7 119 9 260 13 l85 2 0 43 c-1 23 -4 48 -9 55 l-7 12 -170
-2 c-93 -1 -171 -3 -173 -5z" />
    <path d="M4345 1590 c16 -16 31 -28 33 -25 7 7 -39 55 -52 55 -5 0 3 -13 19
-30z" />
  </g>
  <g transform="translate(0.000000,512.000000) scale(0.100000,-0.100000)" fill="#342d24" stroke="none">
    <path d="M2425 4480 c33 -33 62 -60 64 -60 3 0 -21 27 -54 60 -33 33 -62 60
-64 60 -3 0 21 -27 54 -60z" />
    <path d="M1988 4240 c-2 -72 0 -130 5 -130 4 0 7 59 7 130 0 168 -8 168 -12 0z" />
    <path d="M3005 2725 l-30 -25 18 0 c9 0 17 5 17 10 0 6 7 10 15 10 8 0 15 7
15 15 0 19 1 19 -35 -10z" />
    <path d="M1158 2293 c18 -2 45 -2 60 0 15 2 0 4 -33 4 -33 0 -45 -2 -27 -4z" />
    <path d="M1070 2271 l-10 -20 0 -363 0 -364 12 -12 12 -12 46 2 45 1 -50 6
-50 6 -3 368 -2 368 10 19 c6 11 8 20 6 20 -3 0 -10 -9 -16 -19z" />
    <path d="M4053 2195 c0 -38 2 -53 4 -32 2 20 2 52 0 70 -2 17 -4 1 -4 -38z" />
    <path d="M2221 2107 c18 -15 99 -54 99 -48 0 7 -84 51 -97 51 -3 0 -4 -1 -2
-3z" />
    <path d="M2843 2087 c-24 -11 -43 -24 -43 -28 0 -6 81 33 99 48 13 10 -20 -1
-56 -20z" />
    <path d="M4050 1665 l-5 -150 -50 -6 -50 -6 46 -1 47 -2 11 14 12 14 -3 143
-3 144 -5 -150z" />
    <path d="M824 1280 c0 -69 1 -97 3 -62 2 34 2 90 0 125 -2 34 -3 6 -3 -63z" />
    <path d="M4294 1275 c0 -66 1 -92 3 -57 2 34 2 88 0 120 -2 31 -3 3 -3 -63z" />
    <path d="M1060 661 c0 -110 3 -202 8 -204 4 -3 7 87 7 199 0 112 -3 204 -7
204 -5 0 -8 -90 -8 -199z" />
    <path d="M4048 728 c4 -249 8 -273 10 -70 1 111 -1 202 -5 202 -5 0 -7 -60 -5
-132z" />
  </g>
  <g transform="translate(0.000000,512.000000) scale(0.100000,-0.100000)" fill="#826839" stroke="none">
    <path d="M2305 1155 c0 -502 3 -911 8 -908 9 6 9 1810 0 1816 -5 3 -8 -406 -8
-908z" />
    <path d="M2807 2063 c-4 -3 -7 -413 -7 -909 l0 -903 9 -6 c5 -3 13 0 17 6 l7
12 -12 -7 -11 -7 2 910 c2 501 3 911 2 911 0 0 -4 -3 -7 -7z" />
    <path d="M1394 1155 c0 -82 2 -115 3 -72 2 43 2 110 0 150 -1 40 -3 5 -3 -78z" />
    <path d="M3724 1150 c0 -85 2 -120 3 -77 2 42 2 112 0 155 -1 42 -3 7 -3 -78z" />
    <path d="M3730 987 c0 -31 75 -117 102 -117 6 0 -4 10 -23 23 -18 12 -44 40
-56 62 -13 22 -23 36 -23 32z" />
    <path d="M3938 853 c23 -2 61 -2 85 0 23 2 4 4 -43 4 -47 0 -66 -2 -42 -4z" />
    <path d="M1227 453 c18 -2 50 -2 70 0 21 2 7 4 -32 4 -38 0 -55 -2 -38 -4z" />
  </g>
  <g transform="translate(0.000000,512.000000) scale(0.100000,-0.100000)" fill="#5d3f1d" stroke="none">
    <path d="M2462 1073 c2 -505 4 -769 5 -588 7 865 7 1505 1 1505 -5 0 -7 -413
-6 -917z" />
    <path d="M2648 1081 l2 -910 -21 -6 c-27 -9 -20 -16 9 -8 l22 5 0 914 c0 503
-3 914 -7 914 -5 0 -7 -409 -5 -909z" />
    <path d="M3893 453 c20 -2 54 -2 75 0 20 2 3 4 -38 4 -41 0 -58 -2 -37 -4z" />
  </g>
  <g transform="translate(0.000000,512.000000) scale(0.100000,-0.100000)" fill="#0d0c0b" stroke="none">
    <path d="M1843 4245 c0 -33 2 -45 4 -27 2 18 2 45 0 60 -2 15 -4 0 -4 -33z" />
    <path d="M1794 4017 c-3 -8 -4 -47 -2 -88 l3 -74 5 88 c5 87 4 99 -6 74z" />
    <path d="M2200 2695 c0 -8 82 -47 87 -41 3 2 -13 14 -36 25 -41 22 -51 25 -51
16z" />
    <path d="M3350 2680 c0 -5 -7 -10 -15 -10 -8 0 -15 -4 -15 -10 0 -13 17 -13
26 1 l6 11 26 -5 27 -5 -20 14 c-22 16 -35 18 -35 4z" />
  </g>
  <g transform="translate(0.000000,512.000000) scale(0.100000,-0.100000)" fill="#7194cd" stroke="none">
    <path d="M3025 2736 c-16 -14 -57 -39 -90 -56 -33 -17 -50 -28 -37 -25 l23 7
51 -33 51 -33 -19 -7 -19 -8 17 0 c9 -1 20 4 23 9 4 6 10 8 15 5 5 -3 19 -1
31 5 11 7 33 14 47 16 37 6 182 34 212 41 14 4 31 5 38 4 6 -1 12 2 12 8 0 10
-70 38 -110 44 -14 2 -32 6 -40 9 -13 5 -49 13 -155 34 l-20 4 -30 -24z" />
    <path d="M2185 2704 c24 -19 96 -57 100 -52 2 2 -24 18 -58 36 -34 18 -53 25
-42 16z" />
  </g>
  <g transform="translate(0.000000,512.000000) scale(0.100000,-0.100000)" fill="#201d1a" stroke="none">
    <path d="M3088 4084 c10 -20 61 -60 66 -52 1 2 -15 19 -37 38 l-40 35 11 -21z" />
    <path d="M3898 2293 c23 -2 59 -2 80 0 20 2 1 4 -43 4 -44 0 -61 -2 -37 -4z" />
  </g>
  <g transform="translate(0.000000,512.000000) scale(0.100000,-0.100000)" fill="#484547" stroke="none">
    <path d="M1048 1003 c34 -2 88 -2 120 0 31 2 3 3 -63 3 -66 0 -92 -1 -57 -3z" />
    <path d="M3958 1003 c34 -2 88 -2 120 0 31 2 3 3 -63 3 -66 0 -92 -1 -57 -3z" />
  </g>
  <g transform="translate(0.000000,512.000000) scale(0.100000,-0.100000)" fill="#bcb9b9" stroke="none">
    <path d="M1769 4464 l-4 -101 10 0 10 0 -3 71 c-5 125 -8 133 -13 30z" />
    <path d="M914 1980 c0 -157 2 -221 3 -142 2 78 2 206 0 285 -1 78 -3 14 -3
-143z" />
    <path d="M4203 2195 c0 -38 2 -53 4 -32 2 20 2 52 0 70 -2 17 -4 1 -4 -38z" />
    <path d="M914 660 c0 -118 2 -167 3 -108 2 60 2 156 0 216 -1 59 -3 10 -3
-108z" />
    <path d="M4204 660 c0 -118 2 -167 3 -108 2 60 2 156 0 216 -1 59 -3 10 -3
-108z" />
  </g>
  <g transform="translate(0.000000,512.000000) scale(0.100000,-0.100000)" fill="#d7ccc8" stroke="none">
    <path d="M674 1280 c0 -63 1 -89 3 -57 2 31 2 83 0 115 -2 31 -3 5 -3 -58z" />
    <path d="M4444 1280 c0 -63 1 -89 3 -57 2 31 2 83 0 115 -2 31 -3 5 -3 -58z" />
  </g>
  <g transform="translate(0.000000,512.000000) scale(0.100000,-0.100000)" fill="#5f5b5c" stroke="none" />
  <g transform="translate(0.000000,512.000000) scale(0.100000,-0.100000)" fill="#b58e4a" stroke="none">
    <path d="M1113 853 c26 -2 67 -2 90 0 23 2 2 3 -48 3 -49 0 -68 -1 -42 -3z" />
  </g>
  <g transform="translate(0.000000,512.000000) scale(0.100000,-0.100000)" fill="#a19590" stroke="none">
    <path d="M2144 4220 c0 -74 1 -105 3 -67 2 37 2 97 0 135 -2 37 -3 6 -3 -68z" />
  </g>
  <g transform="translate(0.000000,512.000000) scale(0.100000,-0.100000)" fill="#a8a5a4" stroke="none" />
  <g transform="translate(0.000000,512.000000) scale(0.100000,-0.100000)" fill="#485a77" stroke="none" />
</svg>