<svg width="512.000000pt" height="512.000000pt" viewBox="0 0 512.000000 512.000000" xmlns="http://www.w3.org/2000/svg">
  <g transform="translate(0.000000,512.000000) scale(0.100000,-0.100000)" fill="#ffffff00" stroke="none">
    <path d="M0 4493 l0 -627 8 9 c5 6 15 30 23 55 55 177 274 332 489 347 l75 5
60 -15 c33 -9 70 -18 82 -22 l22 -7 3 394 3 393 23 32 c12 17 31 35 42 38 11
4 20 11 20 16 l0 9 -425 0 -425 0 0 -627z" />
    <path d="M910 5110 c0 -5 7 -10 16 -10 9 0 43 -26 77 -58 34 -32 73 -66 87
-75 l24 -17 64 0 c76 0 90 7 164 76 l57 54 25 0 25 0 20 -26 21 -27 0 -89 0
-89 -25 -24 c-13 -14 -31 -25 -39 -25 -8 0 -48 -31 -89 -69 l-74 -68 -37 -13
-37 -12 -35 7 -35 6 -76 70 c-42 38 -82 69 -90 69 l-13 0 0 -429 0 -429 -19
-61 c-60 -193 -256 -340 -488 -366 l-58 -7 -60 11 c-33 6 -88 25 -122 41 l-62
31 -43 48 c-24 27 -50 67 -58 90 -7 23 -17 41 -22 41 l-8 0 0 -1880 0 -1880
260 0 260 0 0 9 c0 5 -10 11 -22 15 -13 3 -40 20 -62 37 l-39 33 -23 50 c-52
111 4 242 123 293 l32 13 480 0 479 0 53 -28 54 -28 33 -54 32 -54 0 -56 0
-56 -33 -54 -32 -54 -52 -26 c-80 -39 -72 -40 237 -40 296 0 320 3 250 34 -52
23 -97 78 -116 144 l-15 52 15 53 c19 66 63 119 121 146 l45 21 480 0 481 0
49 -25 50 -25 29 -40 c16 -22 34 -62 40 -88 l12 -47 -15 -48 c-19 -65 -59
-114 -112 -140 -72 -35 -57 -37 246 -37 309 0 317 1 237 40 l-52 26 -32 54
-33 54 0 56 0 56 33 54 32 54 54 28 53 28 479 0 480 0 32 -13 c48 -21 95 -64
119 -111 l22 -41 0 -55 0 -55 -22 -42 c-23 -45 -84 -100 -119 -109 -13 -4 -23
-10 -23 -15 l0 -9 260 0 260 0 -2 1888 c-1 1038 -4 1851 -7 1806 l-6 -81 -15
-18 c-8 -9 -37 -27 -65 -40 l-50 -23 -73 -72 c-110 -108 -186 -133 -280 -90
l-43 19 -84 81 c-46 44 -90 80 -99 80 l-15 0 -4 -602 c-2 -332 -7 -614 -11
-629 l-8 -25 131 -10 130 -10 43 -30 c50 -35 84 -82 99 -137 l10 -39 -6 -39
c-4 -22 -21 -61 -38 -86 l-32 -47 -54 -28 -53 -28 -503 0 -502 0 -77 20 c-43
11 -104 34 -136 51 l-59 32 -51 53 c-28 30 -63 80 -78 111 l-26 58 -4 77 -4
78 21 67 c74 246 328 443 622 483 l79 11 75 -10 c41 -6 102 -20 135 -31 33
-11 62 -20 65 -20 3 0 5 233 5 518 l0 517 23 39 c12 22 37 49 56 60 l34 19 41
0 c58 0 99 -24 187 -109 42 -41 93 -81 113 -89 l35 -15 66 0 66 0 41 21 c23
12 74 52 114 90 l73 69 26 0 27 0 30 -30 c16 -17 31 -30 34 -30 2 0 4 279 4
620 l0 620 -2105 0 -2105 0 0 -10z m2102 -290 l25 -19 5 -783 5 -783 -8 -67
-8 -67 -32 -63 -31 -62 -62 -61 c-70 -70 -142 -114 -241 -146 l-70 -24 -100 1
-100 0 -58 23 c-31 12 -78 39 -105 60 l-47 38 -27 49 c-15 27 -32 71 -37 96
l-11 47 10 53 c6 29 22 78 37 108 l26 55 71 70 71 70 76 38 c42 21 110 45 150
53 l74 16 70 -6 c39 -3 90 -12 114 -21 24 -8 47 -15 52 -15 l9 0 0 500 0 500
-47 -6 c-128 -15 -206 -51 -316 -146 -76 -65 -146 -104 -222 -124 l-50 -14
-142 0 -143 0 0 -648 0 -648 -15 -57 c-23 -89 -52 -136 -129 -212 l-71 -71
-60 -31 c-34 -18 -95 -41 -137 -53 l-76 -21 -474 3 -475 3 -49 30 -48 31 -31
48 -30 49 1 56 0 56 22 41 c24 47 71 90 119 111 l32 13 255 0 254 0 28 48
c122 210 385 331 599 276 33 -8 70 -18 82 -21 l22 -5 3 634 3 634 18 27 c9 15
29 35 44 44 l27 18 216 6 c118 3 229 11 245 16 65 22 135 64 209 127 129 110
211 141 382 145 l71 1 25 -20z m-1471 -2568 l54 -28 29 -47 29 -47 5 -50 5
-50 -17 -44 -17 -44 -44 -41 -43 -40 -41 -11 -40 -11 -474 3 -474 3 -49 30
-48 31 -31 48 -30 49 1 56 0 56 22 41 c23 46 71 90 117 110 l30 13 481 1 482
0 53 -28z m-34 -593 c15 -5 45 -22 65 -36 l37 -25 26 -51 25 -51 0 -45 c-1
-89 -73 -187 -157 -211 l-38 -11 -476 3 -476 3 -49 30 -48 31 -31 48 -30 49 1
56 0 56 22 41 c23 46 71 90 117 110 l30 13 477 1 477 0 28 -11z m1581 -15 l53
-26 26 -35 c14 -19 32 -56 39 -84 l13 -49 -13 -48 c-6 -27 -25 -65 -40 -85
l-28 -36 -51 -26 -51 -25 -476 0 -476 0 -51 25 -51 26 -28 36 c-15 20 -34 58
-40 85 l-13 48 13 49 c7 28 25 65 39 84 l26 35 53 26 52 26 476 0 476 0 52
-26z m1574 -9 c50 -36 84 -83 99 -138 l10 -39 -6 -39 c-4 -22 -21 -61 -38 -86
l-32 -47 -54 -28 -53 -28 -474 0 -475 0 -37 16 c-49 20 -100 70 -123 119 l-19
40 0 48 0 48 19 37 c25 50 67 91 116 113 l40 19 492 -3 491 -2 44 -30z m-3115
-605 l53 -30 30 -53 30 -52 0 -53 0 -53 -21 -41 c-26 -50 -62 -85 -114 -109
l-40 -19 -469 0 -469 0 -38 11 c-80 24 -143 102 -155 192 l-6 43 22 52 23 52
35 31 c19 17 49 37 66 45 l31 13 485 1 485 0 52 -30z m1540 5 l51 -26 28 -36
c15 -20 34 -58 40 -85 l13 -48 -13 -48 c-6 -27 -25 -65 -40 -85 l-28 -36 -51
-26 -51 -25 -476 0 -476 0 -52 26 -53 26 -26 35 c-14 19 -32 56 -39 84 l-13
49 13 48 c6 27 25 65 40 85 l28 36 51 26 51 25 476 0 476 0 51 -25z m1537 11
c18 -7 48 -28 68 -45 l35 -31 23 -52 22 -52 -6 -43 c-12 -90 -75 -168 -155
-192 l-38 -11 -469 0 -469 0 -40 19 c-49 22 -91 63 -117 115 l-20 39 4 61 4
61 29 43 29 44 50 29 51 29 483 0 483 0 33 -14z" />
  </g>
  <g transform="translate(0.000000,512.000000) scale(0.100000,-0.100000)" fill="#f64352" stroke="none">
    <path d="M485 1056 c-78 -34 -145 -130 -145 -208 l0 -38 655 0 655 0 0 -10 c0
-5 5 -10 10 -10 l10 0 0 58 0 57 -30 52 -30 53 -53 30 -52 30 -495 0 -495 -1
-30 -13z" />
    <path d="M3564 1041 l-50 -29 -29 -44 -29 -43 -4 -67 -4 -68 11 0 c6 0 11 5
11 10 l0 10 655 0 655 0 0 38 c0 80 -68 175 -147 209 l-32 13 -493 0 -493 0
-51 -29z" />
    <path d="M4746 774 c-4 -15 -4 -29 -1 -32 8 -8 25 19 25 41 0 26 -17 20 -24
-9z" />
    <path d="M485 446 c-78 -34 -145 -130 -145 -208 l0 -38 655 0 655 0 0 -10 c0
-5 5 -10 10 -10 l10 0 0 58 0 58 -33 54 -32 54 -54 28 -53 28 -492 0 -491 -1
-30 -13z" />
    <path d="M2025 440 c-22 -11 -55 -37 -73 -57 l-33 -37 -15 -54 -16 -54 6 -34
c7 -34 26 -48 26 -19 l0 15 640 0 640 0 0 -15 c0 -27 18 -16 25 15 l7 31 -12
49 c-7 27 -25 68 -41 90 l-29 40 -50 25 -49 25 -493 0 -493 -1 -40 -19z" />
    <path d="M3569 432 l-54 -28 -32 -54 -33 -54 0 -58 0 -58 10 0 c6 0 10 5 10
10 l0 10 656 0 657 0 -6 49 c-11 90 -65 164 -144 198 l-32 13 -490 0 -489 0
-53 -28z" />
  </g>
  <g transform="translate(0.000000,512.000000) scale(0.100000,-0.100000)" fill="#d53447" stroke="none">
    <path d="M340 813 c0 -6 5 -15 10 -18 6 -4 8 -10 5 -15 -7 -11 15 -60 27 -60
5 0 7 -4 4 -9 -9 -14 69 -76 113 -90 l39 -11 477 0 476 1 27 10 c62 23 174
138 135 139 -4 0 -2 4 6 9 l13 9 -7 21 -6 21 -660 2 -659 3 0 -12z" />
    <path d="M4118 822 l-657 -2 -6 -21 -7 -21 13 -9 c8 -5 11 -9 6 -9 -33 0 62
-106 119 -131 l40 -18 478 -1 478 0 39 11 c38 12 125 77 115 86 -3 3 2 12 10
20 8 8 12 19 9 24 -4 5 -1 9 5 9 6 0 10 6 9 13 -1 6 1 20 6 30 10 24 73 22
-657 19z" />
    <path d="M340 198 c0 -10 5 -18 11 -18 5 0 8 -4 4 -9 -7 -12 15 -61 27 -61 5
0 7 -4 4 -9 -8 -12 59 -70 100 -87 l32 -13 490 -1 491 0 6 10 c4 6 10 8 14 5
5 -2 28 8 52 24 l44 28 23 41 c13 23 20 42 15 42 -4 0 -2 4 6 9 l13 9 -7 21
-6 21 -660 2 -659 3 0 -17z" />
    <path d="M1890 209 c0 -3 3 -9 7 -12 3 -4 8 -19 9 -34 2 -14 8 -29 14 -33 7
-4 11 -11 10 -16 -3 -19 51 -72 94 -92 l45 -22 491 0 491 0 49 25 c45 23 95
73 90 90 -1 4 3 11 10 15 6 4 12 19 14 33 1 15 6 30 9 34 4 3 7 9 7 12 0 3
-301 6 -670 6 -368 0 -670 -3 -670 -6z" />
    <path d="M4115 210 l-660 -5 -3 -22 c-2 -13 1 -23 6 -23 5 0 9 -6 9 -14 0 -40
81 -123 128 -130 8 -1 18 -5 22 -9 3 -4 227 -7 496 -7 l489 1 32 13 c41 17
108 75 100 87 -3 5 -1 9 5 9 9 0 24 31 27 55 0 6 4 18 9 28 10 24 73 23 -660
17z" />
  </g>
  <g transform="translate(0.000000,512.000000) scale(0.100000,-0.100000)" fill="#fddb50" stroke="none">
    <path d="M485 1666 c-78 -34 -131 -108 -142 -197 l-6 -49 657 0 c361 0 656 -3
656 -6 0 -19 -24 -84 -32 -84 -4 0 -8 -7 -8 -16 l0 -15 11 7 c6 3 20 25 30 48
l19 41 0 56 0 55 -25 51 -26 51 -37 25 c-20 14 -50 31 -65 36 l-28 11 -487 0
-487 -1 -30 -13z" />
    <path d="M3585 1661 c-49 -22 -91 -63 -116 -113 l-19 -37 0 -58 0 -58 19 -41
c10 -23 24 -45 30 -48 l11 -7 0 15 c0 9 -4 16 -8 16 -8 0 -32 65 -32 84 0 3
295 6 656 6 l657 0 -6 49 c-11 90 -65 164 -144 198 l-32 13 -488 0 -488 0 -40
-19z" />
    <path d="M350 1393 c0 -22 17 -49 25 -41 8 8 -5 58 -16 58 -5 0 -9 -8 -9 -17z" />
    <path d="M4746 1384 c-4 -15 -4 -29 -1 -32 8 -8 25 19 25 41 0 26 -17 20 -24
-9z" />
    <path d="M4625 1255 c-16 -8 -40 -14 -52 -15 -13 0 -23 -4 -23 -10 0 -16 41
-11 88 10 42 19 54 31 30 29 -7 0 -26 -7 -43 -14z" />
    <path d="M2023 1045 l-51 -26 -28 -36 c-15 -20 -34 -60 -41 -87 l-13 -51 11
-52 c5 -29 19 -63 29 -75 l19 -23 0 15 c0 8 -6 26 -14 40 -8 14 -14 33 -15 43
l0 17 640 0 640 0 0 -17 c-1 -10 -7 -29 -15 -43 -8 -14 -14 -32 -14 -40 l0
-15 19 23 c10 12 24 46 29 75 l11 52 -13 51 c-7 27 -26 67 -41 87 l-28 36 -51
26 -51 25 -486 0 -486 0 -51 -25z" />
    <path d="M1999 650 c25 -22 41 -26 41 -10 0 6 -7 10 -15 10 -8 0 -15 5 -15 10
0 6 -8 10 -17 10 l-18 -1 24 -19z" />
    <path d="M3058 641 c-48 -16 -63 -31 -30 -31 19 0 102 36 102 45 0 8 -19 4
-72 -14z" />
  </g>
  <g transform="translate(0.000000,512.000000) scale(0.100000,-0.100000)" fill="#fdb423" stroke="none">
    <path d="M340 1423 c0 -6 5 -15 11 -18 6 -4 8 -13 5 -21 -3 -8 -1 -14 5 -14 6
0 8 -4 4 -9 -3 -5 0 -16 7 -23 7 -8 18 -23 24 -33 6 -11 33 -33 60 -50 l49
-30 493 -3 c272 -1 499 1 505 5 12 7 17 9 36 12 26 3 111 102 115 133 1 3 4 9
7 13 4 3 5 15 2 25 l-5 20 -659 2 -659 3 0 -12z" />
    <path d="M4119 1432 l-657 -2 -5 -19 c-3 -11 -2 -23 2 -26 3 -4 6 -10 7 -13 4
-32 88 -130 114 -133 20 -3 25 -4 36 -11 6 -4 229 -7 495 -7 l483 0 13 11 c7
6 13 8 13 5 0 -12 93 49 104 68 6 10 17 25 24 33 7 7 10 18 7 23 -4 5 -1 9 5
9 6 0 8 5 5 10 -4 6 -1 17 5 25 24 29 -6 30 -651 27z" />
    <path d="M1901 807 c6 -9 7 -22 4 -27 -3 -5 -1 -11 5 -15 6 -4 8 -11 5 -16 -4
-5 -1 -9 5 -9 6 0 8 -4 5 -10 -3 -5 -2 -10 2 -10 5 0 13 -10 18 -22 6 -12 19
-26 30 -32 11 -6 22 -13 25 -16 3 -3 21 -13 40 -23 l35 -16 486 0 c267 0 489
3 493 7 4 4 11 7 14 7 24 2 95 50 104 70 6 14 15 25 20 25 5 0 6 5 3 10 -3 6
-1 10 5 10 6 0 9 4 5 9 -3 5 -1 12 5 16 6 4 8 10 5 15 -3 5 -2 18 4 27 l9 18
-668 0 -668 0 9 -18z" />
  </g>
  <g transform="translate(0.000000,512.000000) scale(0.100000,-0.100000)" fill="#fd95cb" stroke="none">
    <path d="M4251 3837 l-111 -142 0 -413 0 -414 9 4 c5 2 61 69 125 150 l116
147 2 186 3 187 28 -22 27 -21 0 15 c0 9 -5 16 -11 16 -6 0 -17 6 -25 14 l-14
15 0 70 c0 39 2 71 4 71 2 0 28 -5 57 -11 117 -22 226 -39 264 -39 l40 0 92
118 c51 65 104 128 117 141 l25 24 41 -7 40 -6 0 9 c0 12 -26 21 -61 21 l-30
0 -73 -69 c-40 -38 -91 -78 -114 -90 l-41 -21 -56 0 c-78 0 -116 19 -204 104
-42 40 -90 81 -108 90 l-32 16 -110 -143z" />
    <path d="M3765 2879 c-118 -18 -258 -75 -356 -146 l-49 -35 -86 -110 -87 -110
-18 -50 c-11 -27 -23 -76 -28 -109 l-8 -59 30 0 c30 0 219 29 372 56 44 8 111
20 148 26 l68 12 181 230 180 231 19 -3 19 -3 0 14 c0 7 -6 14 -12 15 -7 0
-44 10 -81 21 -82 24 -210 33 -292 20z" />
    <path d="M4356 2328 c-8 -33 -8 -38 7 -38 l12 0 2 30 c3 35 -12 40 -21 8z" />
  </g>
  <g transform="translate(0.000000,512.000000) scale(0.100000,-0.100000)" fill="#c59adc" stroke="none">
    <path d="M2805 4843 c-98 -13 -182 -55 -281 -139 -85 -71 -152 -110 -229 -130
l-50 -14 -165 0 c-91 0 -181 -3 -200 -6 l-35 -6 -40 -51 -40 -51 -3 -504 -3
-504 15 4 c8 2 53 53 100 113 l86 110 0 258 0 257 143 0 142 0 51 14 c70 18
164 70 205 112 l33 34 -14 0 c-8 0 -28 -12 -44 -27 -17 -16 -24 -19 -15 -8
238 303 409 526 409 534 0 11 -9 12 -65 4z" />
    <path d="M2858 4265 l3 -215 9 0 10 0 0 215 0 215 -12 0 -13 0 3 -215z" />
    <path d="M2720 4463 c-49 -17 -130 -57 -130 -63 0 -4 -9 -10 -20 -13 -11 -3
-20 -12 -20 -20 l0 -16 53 35 c28 19 76 42 105 51 28 9 52 20 52 25 0 9 -17 9
-40 1z" />
    <path d="M2590 3520 c0 -5 14 -10 30 -10 17 0 30 5 30 10 0 6 -13 10 -30 10
-16 0 -30 -4 -30 -10z" />
    <path d="M2670 3520 c0 -5 14 -10 30 -10 17 0 30 5 30 10 0 6 -13 10 -30 10
-16 0 -30 -4 -30 -10z" />
    <path d="M2455 3493 c-47 -19 -50 -21 -43 -29 8 -7 108 28 108 38 0 12 -20 9
-65 -9z" />
    <path d="M2335 3433 l-40 -26 14 -5 c7 -2 16 0 20 5 3 6 16 13 29 17 12 4 22
14 22 22 0 17 3 18 -45 -13z" />
    <path d="M2240 3355 l-44 -45 15 0 c19 0 82 65 78 79 l-4 12 -45 -46z" />
    <path d="M2171 3272 l-22 -32 15 0 c9 0 16 6 16 14 0 8 5 16 12 18 6 2 9 10 6
18 l-4 13 -23 -31z" />
    <path d="M1441 3225 c-120 -27 -266 -113 -332 -197 -50 -65 -98 -155 -105
-197 l-7 -43 29 5 c16 4 86 14 157 24 l127 17 150 192 c83 106 150 197 150
203 l0 11 -52 -1 c-29 0 -82 -7 -117 -14z" />
    <path d="M1690 3213 c0 -9 56 -33 78 -33 7 0 12 6 12 14 l0 14 -22 0 c-13 0
-33 3 -45 7 l-23 7 0 -9z" />
    <path d="M2122 3171 c-14 -46 -15 -61 -3 -61 5 0 11 12 15 28 3 15 8 37 12 50
l6 22 -9 0 c-6 0 -15 -17 -21 -39z" />
    <path d="M3016 3088 c-3 -13 -6 -27 -6 -33 1 -15 30 27 30 42 0 22 -17 15 -24
-9z" />
    <path d="M2191 2844 l24 -25 3 11 c5 15 -17 40 -36 40 l-15 0 24 -26z" />
    <path d="M2830 2850 c0 -5 -7 -10 -15 -10 -8 0 -15 -4 -15 -10 0 -16 16 -12
41 10 l24 19 -17 1 c-10 0 -18 -4 -18 -10z" />
    <path d="M1870 2696 c0 -8 -5 -16 -11 -18 -7 -2 -10 -10 -8 -17 l4 -12 23 30
23 31 -16 0 c-8 0 -15 -6 -15 -14z" />
    <path d="M1653 2518 c-21 -10 -32 -28 -18 -28 10 0 65 30 65 35 0 8 -23 4 -47
-7z" />
  </g>
  <g transform="translate(0.000000,512.000000) scale(0.100000,-0.100000)" fill="#b183ca" stroke="none">
    <path d="M2853 4841 c1 -4 -100 -139 -225 -299 -213 -271 -251 -323 -213 -292
8 7 15 9 15 4 0 -4 7 1 15 12 8 10 15 15 15 11 0 -5 12 5 26 22 14 17 32 31
40 31 7 0 21 11 30 25 9 14 23 25 30 25 8 0 14 5 14 11 0 5 5 7 10 4 6 -3 10
-2 10 3 0 8 49 34 73 38 4 1 9 3 12 4 3 1 10 4 15 5 6 1 11 3 13 5 4 3 51 10
96 13 l44 4 -6 -306 c-4 -168 -7 -388 -7 -488 l0 -183 -26 10 c-31 12 -44 13
-44 2 0 -11 68 -34 80 -27 l10 6 0 272 0 272 85 109 85 108 0 283 0 284 -29
20 -29 21 -71 0 c-39 0 -70 -4 -68 -9z" />
    <path d="M1865 3568 c-48 -62 -92 -112 -97 -110 l-9 2 3 -135 c2 -74 2 -135 0
-135 -2 0 -13 5 -25 12 -12 7 -29 14 -37 15 -8 2 -24 6 -35 8 -11 2 -33 7 -48
11 l-28 6 3 -9 c2 -6 -63 -95 -144 -200 l-148 -189 -127 -18 c-71 -9 -138 -18
-150 -19 l-23 -1 0 -55 0 -54 63 6 c132 13 336 38 427 53 52 8 127 19 165 25
39 6 97 17 130 24 33 7 82 17 108 20 l48 7 9 24 9 23 1 401 c0 220 -1 400 -4
400 -2 0 -43 -51 -91 -112z" />
    <path d="M2484 3498 c-3 -5 -9 -6 -14 -3 -4 3 -13 -2 -20 -10 -7 -8 -9 -15 -5
-15 19 0 85 24 85 31 0 10 -40 7 -46 -3z" />
    <path d="M2395 3467 c-11 -6 -26 -17 -33 -24 -7 -7 -18 -13 -23 -13 -6 0 -16
-6 -24 -12 -7 -7 -38 -37 -69 -65 -31 -29 -56 -57 -56 -63 0 -5 -4 -10 -10
-10 -5 0 -10 -7 -10 -15 0 -8 -4 -15 -9 -15 -8 0 -20 -23 -27 -52 -1 -5 -3
-10 -4 -13 -1 -3 -4 -9 -5 -15 -1 -5 -3 -11 -4 -12 -8 -10 -8 -58 0 -58 5 0 9
5 9 10 0 6 10 10 23 10 l22 1 128 164 c70 90 127 168 127 174 0 16 -14 20 -35
8z" />
    <path d="M2905 2920 c-10 -11 -15 -23 -12 -27 8 -7 47 25 47 39 0 14 -16 9
-35 -12z" />
    <path d="M1916 2794 c-4 -15 -5 -29 -1 -32 7 -8 11 -1 19 31 l6 27 -9 0 c-5 0
-12 -12 -15 -26z" />
  </g>
  <g transform="translate(0.000000,512.000000) scale(0.100000,-0.100000)" fill="#9564b1" stroke="none">
    <path d="M2958 4147 l-87 -112 -1 -272 0 -272 -10 -6 c-5 -3 -10 -1 -10 4 0 6
-3 10 -7 10 -5 -1 -11 0 -15 1 -5 1 -12 4 -18 5 -5 1 -11 3 -12 5 -19 14 -251
12 -276 -4 -7 -4 -16 -4 -22 -1 -5 3 -10 1 -10 -5 l0 -12 -14 5 c-8 3 -16 1
-18 -4 -2 -5 -13 -11 -25 -12 -12 0 -19 -5 -17 -9 3 -4 -52 -82 -123 -173
l-128 -164 -21 -1 -22 0 -12 -31 -13 -30 13 -55 c13 -53 30 -81 30 -50 0 9 3
16 8 16 22 0 352 50 382 58 19 5 80 20 135 32 55 13 105 26 110 30 6 4 31 11
57 14 l46 7 90 116 90 117 -5 450 c-3 248 -6 452 -7 453 -1 1 -41 -49 -88
-110z" />
    <path d="M3016 3098 c-9 -35 -7 -43 6 -30 14 14 21 52 9 52 -5 0 -11 -10 -15
-22z" />
    <path d="M2970 2995 c0 -8 -4 -15 -10 -15 -5 0 -10 -8 -10 -17 l0 -17 20 22
c22 23 26 42 10 42 -5 0 -10 -7 -10 -15z" />
    <path d="M1825 2825 c-55 -13 -87 -18 -260 -46 -81 -13 -315 -44 -447 -59
l-108 -13 0 -19 c0 -10 11 -41 25 -68 l25 -50 15 0 c8 0 15 7 15 15 l0 15 43
0 c23 0 96 7 162 15 246 30 535 57 549 52 l14 -5 20 23 c11 13 18 26 15 29 -4
3 -2 6 4 6 10 0 20 22 29 64 3 11 9 25 14 31 23 28 -20 31 -115 10z" />
    <path d="M2730 2800 c-8 -5 -12 -12 -8 -15 9 -9 48 4 48 16 0 12 -21 11 -40
-1z" />
    <path d="M2310 2772 c0 -10 51 -24 59 -16 7 6 -2 12 -32 19 l-27 7 0 -10z" />
    <path d="M1805 2630 c-16 -16 -25 -33 -22 -37 8 -7 67 45 67 59 0 16 -17 8
-45 -22z" />
    <path d="M1730 2560 c0 -5 -7 -10 -15 -10 -8 0 -15 -7 -15 -15 l0 -16 30 23
c34 25 36 28 15 28 -8 0 -15 -4 -15 -10z" />
    <path d="M1573 2488 c-18 -6 -33 -15 -33 -21 l0 -9 18 7 c9 3 29 9 45 12 15 3
27 9 27 14 0 11 -15 10 -57 -3z" />
  </g>
  <g transform="translate(0.000000,512.000000) scale(0.100000,-0.100000)" fill="#fd7cb5" stroke="none">
    <path d="M4946 3899 c-22 -25 -75 -89 -116 -142 l-75 -97 -30 0 c-17 0 -56 4
-86 10 -30 5 -67 12 -84 14 -16 3 -54 10 -84 16 -29 5 -60 10 -67 10 l-14 0 0
-45 0 -44 38 -7 c20 -3 89 -17 152 -30 102 -20 235 -45 327 -60 l32 -5 3 -17
3 -16 20 20 c19 19 66 45 92 50 7 1 23 14 37 29 l25 27 -1 139 0 139 -20 25
c-11 14 -24 23 -29 20 -5 -4 -9 -2 -9 3 0 5 -16 8 -36 8 l-37 -1 -41 -46z" />
    <path d="M3 3805 c0 -33 2 -45 4 -27 2 18 2 45 0 60 -2 15 -4 0 -4 -33z" />
    <path d="M4265 3034 l-120 -154 -3 -32 -4 -32 -7 12 -7 12 -16 -13 c-9 -6 -95
-114 -191 -238 l-176 -225 -68 -12 c-37 -6 -104 -18 -148 -26 -148 -26 -342
-56 -369 -56 l-27 0 7 -22 c3 -12 7 -33 8 -47 1 -14 5 -32 10 -39 l8 -13 56 6
c175 20 568 76 682 97 30 6 75 14 100 18 25 4 77 15 115 23 39 9 109 25 157
36 l88 19 -6 -27 -7 -26 14 12 c7 7 15 21 18 30 5 21 14 727 9 800 l-3 50
-120 -153z" />
  </g>
  <g transform="translate(0.000000,512.000000) scale(0.100000,-0.100000)" fill="#b9e96a" stroke="none">
    <path d="M763 2900 l-271 -5 -44 -30 c-45 -32 -85 -83 -94 -122 -7 -25 5 -47
13 -25 l5 12 319 0 319 0 0 43 c0 24 6 65 14 90 8 26 13 46 13 45 -1 -1 -124
-5 -274 -8z" />
    <path d="M340 2670 c0 -16 5 -30 10 -30 6 0 10 14 10 30 0 17 -4 30 -10 30 -5
0 -10 -13 -10 -30z" />
    <path d="M485 2276 c-77 -34 -178 -176 -125 -176 6 0 10 5 10 10 l0 10 640 0
640 0 0 -20 c0 -11 5 -20 11 -20 l12 0 -7 33 c-3 17 -19 52 -34 77 l-27 44
-54 28 -53 28 -492 0 -491 -1 -30 -13z" />
    <path d="M4570 2282 c0 -6 5 -12 10 -14 l11 -3 -26 -35 c-29 -39 -31 -57 -9
-88 l15 -22 89 0 88 0 5 -12 c8 -22 20 0 13 25 -15 63 -98 140 -163 153 l-33
7 0 -11z" />
    <path d="M340 2060 c0 -16 5 -30 10 -30 6 0 10 14 10 30 0 17 -4 30 -10 30 -5
0 -10 -13 -10 -30z" />
    <path d="M4760 2060 c0 -16 5 -30 10 -30 6 0 10 14 10 30 0 17 -4 30 -10 30
-5 0 -10 -13 -10 -30z" />
    <path d="M1630 1955 c0 -8 -4 -15 -10 -15 -5 0 -10 -8 -10 -17 l1 -18 19 24
c22 25 26 41 10 41 -5 0 -10 -7 -10 -15z" />
    <path d="M2022 1654 c-70 -35 -143 -137 -117 -162 4 -4 10 -1 12 6 l5 12 638
0 638 0 5 -12 c2 -7 8 -10 12 -6 26 25 -47 127 -117 162 l-52 26 -486 0 -486
0 -52 -26z" />
    <path d="M1905 1383 c8 -31 13 -39 20 -31 9 9 -6 58 -17 58 l-10 0 7 -27z" />
    <path d="M3196 1384 c-4 -15 -5 -29 -1 -32 7 -8 12 0 20 31 l7 27 -10 0 c-5 0
-13 -12 -16 -26z" />
  </g>
  <g transform="translate(0.000000,512.000000) scale(0.100000,-0.100000)" fill="#90c13e" stroke="none">
    <path d="M345 2650 c-3 -5 -1 -19 5 -30 6 -11 8 -20 5 -20 -4 0 4 -18 16 -40
22 -38 39 -52 39 -30 l0 11 355 -3 355 -3 0 11 c0 6 -12 21 -27 35 -14 13 -23
18 -19 12 4 -7 5 -13 2 -13 -3 0 -15 18 -26 40 l-20 40 -340 0 -339 0 -6 -10z" />
    <path d="M4391 2244 c-48 -67 -65 -117 -64 -197 l0 -58 20 -18 c33 -31 90 -41
231 -41 l132 0 0 -10 c0 -51 56 46 63 110 l2 15 -132 3 -132 3 -26 33 c-34 44
-32 74 10 136 19 29 35 57 35 64 l0 11 -49 3 -49 3 -41 -57z" />
    <path d="M345 2040 c-3 -5 -1 -19 5 -30 6 -11 8 -20 5 -20 -4 0 4 -18 16 -40
22 -38 39 -52 39 -30 l0 10 613 0 612 0 13 30 c8 17 16 44 18 60 l5 30 -660 0
-660 0 -6 -10z" />
    <path d="M1518 1867 c-34 -13 -37 -29 -5 -23 34 7 57 17 57 27 0 11 -17 10
-52 -4z" />
    <path d="M560 1840 l0 -10 450 0 450 0 0 10 0 10 -450 0 -450 0 0 -10z" />
    <path d="M4190 1840 l0 -10 185 0 185 0 0 10 0 10 -185 0 -185 0 0 -10z" />
    <path d="M1900 1415 c5 -14 7 -25 4 -25 -4 0 0 -7 7 -17 8 -9 12 -18 10 -21
-5 -5 17 -38 47 -68 27 -28 32 -29 32 -9 0 8 -7 15 -15 15 -8 0 -15 7 -15 15
l0 15 590 0 590 0 0 -15 c0 -8 -7 -15 -15 -15 -8 0 -15 -7 -15 -15 0 -30 84
52 85 83 0 4 4 13 8 20 5 6 6 12 3 12 -3 0 -1 11 4 25 l10 25 -670 0 -670 0
10 -25z" />
    <path d="M2100 1230 l0 -10 460 0 460 0 0 10 0 10 -460 0 -460 0 0 -10z" />
  </g>
  <g transform="translate(0.000000,512.000000) scale(0.100000,-0.100000)" fill="#8ccbfd" stroke="none">
    <path d="M836 5003 l-85 -108 -1 -307 0 -308 14 0 c8 0 53 50 100 110 l86 110
0 141 0 141 15 -12 15 -12 0 16 c0 9 -4 16 -10 16 -5 0 -10 10 -10 23 l0 22
97 -3 98 -3 37 13 37 13 75 97 c42 54 76 102 76 108 0 5 7 10 15 10 8 0 15 5
15 10 0 20 -20 9 -77 -43 -74 -69 -90 -77 -155 -77 l-54 0 -24 17 c-14 9 -53
43 -87 75 -80 75 -77 76 -177 -49z" />
    <path d="M1430 5084 c0 -11 34 -33 49 -34 l14 0 -18 20 c-17 19 -45 27 -45 14z" />
    <path d="M1480 4935 l0 -85 10 0 10 0 0 85 0 85 -10 0 -10 0 0 -85z" />
    <path d="M1386 4787 c-11 -8 -17 -19 -15 -25 l4 -12 30 25 30 24 -16 1 c-8 0
-23 -6 -33 -13z" />
    <path d="M1228 4657 c-16 -6 -28 -14 -28 -19 0 -11 5 -10 45 6 57 24 40 36
-17 13z" />
    <path d="M425 4275 c-79 -20 -139 -46 -196 -84 l-54 -36 -72 -90 -71 -90 -16
-49 c-9 -26 -16 -75 -16 -107 l0 -59 17 -42 c9 -24 27 -58 41 -77 l26 -35 4
14 c3 7 -2 18 -9 24 -62 48 -45 79 56 101 44 10 127 36 185 59 l105 40 35 37
c19 20 89 106 155 192 l120 156 18 0 c9 1 17 7 17 15 0 8 -8 15 -17 15 -10 0
-45 7 -78 15 -72 19 -181 19 -250 1z" />
    <path d="M930 4075 l0 -135 10 0 10 0 0 135 0 135 -10 0 -10 0 0 -135z" />
    <path d="M720 3610 c0 -5 -7 -10 -15 -10 -8 0 -15 -4 -15 -10 0 -16 16 -12 41
10 l24 19 -17 1 c-10 0 -18 -4 -18 -10z" />
    <path d="M140 3564 c0 -9 111 -56 117 -50 8 7 9 6 -50 34 -48 22 -67 27 -67
16z" />
  </g>
  <g transform="translate(0.000000,512.000000) scale(0.100000,-0.100000)" fill="#64b9fa" stroke="none">
    <path d="M1390 5083 c-24 -9 -70 -55 -64 -64 3 -5 -21 -43 -53 -84 l-58 -75
-40 -11 -40 -11 -92 5 -91 5 -4 -38 c-2 -21 0 -36 4 -34 3 2 24 -12 45 -31
l38 -35 3 15 4 16 16 -5 c35 -11 215 -46 237 -46 l23 0 38 43 c21 23 42 41 46
40 5 -2 8 2 8 7 0 6 8 10 18 10 11 0 29 9 41 20 l23 19 1 109 0 109 -19 19
c-20 19 -57 27 -84 17z" />
    <path d="M1155 4640 c3 -5 17 -10 30 -10 13 0 27 5 30 10 l6 10 -36 0 -36 0 6
-10z" />
    <path d="M888 4443 c-30 -38 -68 -87 -87 -111 l-33 -42 -10 6 -11 7 5 -31 4
-32 -13 11 -13 11 0 -10 c0 -18 -269 -356 -298 -374 -15 -10 -22 -18 -17 -18
29 -1 -199 -83 -294 -106 l-110 -26 14 -22 c8 -13 12 -26 8 -29 -3 -4 -1 -7 5
-7 7 0 12 -4 12 -9 0 -12 52 -71 63 -71 5 0 7 6 4 14 l-6 14 87 12 c350 46
612 107 612 142 0 4 6 8 13 8 20 0 65 51 78 89 l12 33 7 -12 8 -12 8 13 8 13
-13 4 -12 4 10 12 10 12 7 287 c3 158 4 287 0 287 -3 0 -29 -30 -58 -67z" />
    <path d="M890 3810 c-14 -33 -28 -60 -32 -60 -5 0 -8 -8 -8 -17 l0 -18 21 25
c26 33 45 69 53 103 11 48 -8 29 -34 -33z" />
    <path d="M790 3675 c-13 -14 -20 -28 -17 -32 8 -7 57 35 57 49 0 15 -16 8 -40
-17z" />
    <path d="M643 3573 c-33 -17 -43 -33 -20 -33 13 0 77 37 77 45 0 9 -25 4 -57
-12z" />
  </g>
  <g transform="translate(0.000000,512.000000) scale(0.100000,-0.100000)" fill="#7bad27" stroke="none">
    <path d="M740 2550 c-201 -3 -359 -6 -352 -8 7 -1 11 -6 8 -11 -7 -10 17 -32
69 -62 l40 -24 393 -3 392 -3 0 13 c0 13 -99 59 -132 61 -9 1 -16 5 -15 10 1
5 -7 14 -18 20 l-20 12 -365 -5z" />
    <path d="M4406 2275 c-9 -13 -16 -29 -16 -35 0 -5 -4 -10 -10 -10 -5 0 -10 -6
-10 -14 0 -8 -4 -16 -9 -18 -6 -1 -46 -64 -90 -138 -44 -74 -90 -152 -102
-172 l-23 -38 -18 0 c-10 0 -18 -3 -18 -8 0 -4 115 -6 256 -5 l255 3 29 20
c15 11 32 20 37 20 6 0 18 9 28 20 10 11 14 20 9 20 -5 0 -2 5 6 10 l15 10
-145 0 c-152 0 -210 10 -242 40 l-20 19 -1 48 c0 72 18 125 68 192 l45 61 -14
0 c-7 0 -21 -11 -30 -25z" />
    <path d="M390 1930 c8 -5 11 -10 6 -10 -5 0 -1 -9 9 -20 10 -11 22 -20 28 -20
5 0 22 -9 38 -20 l28 -21 496 0 c272 0 500 3 505 6 6 3 15 3 20 0 6 -3 10 -1
10 5 0 6 5 8 10 5 6 -3 10 -1 10 5 0 6 3 9 8 7 4 -2 24 13 45 35 l37 38 -633
0 -632 0 15 -10z" />
    <path d="M1950 1315 c7 -8 9 -15 5 -15 -4 0 -2 -7 5 -15 7 -8 16 -12 21 -9 5
3 9 1 9 -5 0 -5 14 -17 32 -26 l32 -16 506 0 505 0 33 16 c17 9 32 21 32 26 0
6 4 8 9 5 5 -3 14 1 21 9 7 8 9 15 5 15 -4 0 -2 7 5 15 l12 15 -622 0 -622 0
12 -15z" />
  </g>
  <g transform="translate(0.000000,512.000000) scale(0.100000,-0.100000)" fill="#a5d754" stroke="none">
    <path d="M357 2738 c2 -5 1 -14 -4 -20 -4 -7 -8 -26 -8 -43 l0 -30 345 0 345
0 -14 47 -15 47 -327 3 c-180 2 -325 0 -322 -4z" />
    <path d="M920 2450 l-365 -5 382 -3 382 -2 6 10 6 10 -23 -2 c-13 -2 -187 -5
-388 -8z" />
    <path d="M4520 2290 c0 -4 -16 -31 -35 -60 l-35 -52 0 -36 0 -35 25 -33 25
-33 138 -3 137 -3 0 30 c0 17 -4 36 -8 43 -5 6 -6 15 -4 20 3 4 -37 6 -88 4
l-94 -3 -16 25 -17 26 31 47 c30 45 39 69 23 59 -4 -3 -25 -1 -45 4 -20 4 -37
4 -37 0z" />
    <path d="M357 2128 c2 -5 1 -14 -4 -20 -4 -7 -8 -26 -8 -43 l0 -30 654 3 655
2 8 -12 9 -13 -4 55 -3 55 -656 5 c-361 3 -654 2 -651 -2z" />
    <path d="M1903 1508 c-1 -7 -4 -28 -8 -45 l-7 -33 672 0 673 0 -8 33 c-4 17
-7 38 -8 45 l0 12 -657 0 -657 0 0 -12z" />
  </g>
  <g transform="translate(0.000000,512.000000) scale(0.100000,-0.100000)" fill="#fa5599" stroke="none">
    <path d="M4390 3586 l0 -45 20 -6 c11 -3 25 -15 31 -26 l11 -21 14 6 c8 3 65
-7 127 -23 61 -16 142 -34 180 -42 l67 -13 -10 -10 c-13 -13 -13 -26 -1 -26
16 0 121 101 121 116 0 8 5 13 11 12 6 -2 13 2 16 8 l4 11 -87 12 c-47 7 -175
30 -284 52 -109 21 -203 39 -209 39 l-11 0 0 -44z" />
    <path d="M4195 2324 c-82 -19 -172 -39 -200 -43 -27 -5 -75 -13 -105 -19 -119
-22 -458 -71 -643 -92 -43 -5 -82 -12 -88 -15 l-10 -7 13 -15 c7 -9 13 -19 12
-22 -1 -13 21 -61 28 -61 4 0 8 -4 8 -9 0 -16 68 -86 76 -78 4 4 -1 16 -11 27
-24 27 -31 25 145 39 243 18 544 51 738 80 40 6 84 8 96 5 l23 -6 22 36 22 36
-7 11 -7 12 11 -7 11 -7 16 32 c9 17 14 37 11 45 l-6 15 12 -7 11 -7 -7 27 -6
26 9 0 c5 0 7 9 4 20 -7 25 3 26 -178 -16z" />
    <path d="M3300 1940 c0 -5 7 -10 15 -10 8 0 15 -4 15 -10 0 -5 7 -10 15 -10 8
0 15 5 15 10 0 6 -7 10 -15 10 -8 0 -15 5 -15 10 0 6 -7 10 -15 10 -8 0 -15
-4 -15 -10z" />
    <path d="M3410 1881 c0 -5 12 -11 28 -14 15 -3 35 -9 45 -12 l17 -7 0 9 c0 6
-17 15 -39 21 -46 14 -51 15 -51 3z" />
  </g>
  <g transform="translate(0.000000,512.000000) scale(0.100000,-0.100000)" fill="#7d4e97" stroke="none">
    <path d="M2961 3250 l-93 -119 -46 -7 c-26 -3 -51 -10 -57 -14 -5 -4 -53 -17
-105 -29 -52 -12 -122 -28 -155 -36 -33 -7 -130 -23 -215 -35 -85 -12 -158
-25 -163 -29 -5 -6 34 -101 50 -121 17 -20 415 28 658 80 l100 21 3 -10 c5
-16 22 -13 22 4 0 7 7 18 16 23 9 5 15 12 15 15 -1 11 33 82 42 85 4 2 5 8 1
13 -3 5 -2 14 2 21 12 19 32 258 22 258 -3 0 -46 -54 -97 -120z" />
    <path d="M2210 2830 c0 -5 4 -10 9 -10 5 0 16 -6 23 -12 8 -7 28 -21 46 -30
l32 -17 0 13 c0 8 -15 19 -32 27 -18 7 -37 19 -41 26 -9 15 -37 18 -37 3z" />
    <path d="M1635 2664 c-115 -13 -271 -30 -345 -39 -74 -8 -154 -15 -177 -15
-24 0 -43 -4 -43 -10 0 -37 130 -126 213 -146 l27 -6 0 11 c0 6 -8 11 -17 11
-10 0 -36 9 -58 18 l-39 18 194 12 c107 7 218 15 245 17 l50 5 -32 -17 c-18
-9 -33 -22 -33 -29 l0 -12 42 21 c23 12 51 30 62 40 11 9 23 17 27 17 9 0 99
94 112 116 l8 14 -13 -1 c-7 -1 -107 -12 -223 -25z" />
    <path d="M1335 2450 c3 -5 30 -10 60 -10 30 0 57 5 60 10 l6 10 -66 0 -66 0 6
-10z" />
    <path d="M4202 2077 c-34 -35 -41 -57 -19 -57 16 0 77 62 77 78 0 22 -26 13
-58 -21z" />
    <path d="M4003 1933 c-15 -5 -18 -33 -4 -33 21 0 41 13 41 26 0 14 -14 17 -37
7z" />
  </g>
  <g transform="translate(0.000000,512.000000) scale(0.100000,-0.100000)" fill="#f32b79" stroke="none">
    <path d="M4440 3512 c0 -36 165 -154 233 -166 l38 -7 53 15 c29 9 61 25 71 36
l18 20 11 -7 11 -7 -12 15 c-7 8 -43 21 -80 28 -37 7 -128 29 -200 47 -148 38
-143 37 -143 26z" />
    <path d="M4175 2124 c-185 -30 -494 -65 -755 -84 -80 -6 -156 -13 -168 -16
l-24 -5 39 -43 c21 -23 41 -41 45 -39 4 2 11 -5 17 -14 6 -10 11 -15 11 -10 0
4 18 -4 40 -18 22 -14 40 -23 40 -21 0 2 28 -5 63 -16 l62 -20 123 -4 123 -4
-6 10 -6 10 32 -7 32 -6 -6 10 -6 10 26 -5 26 -5 -7 11 -6 10 22 -6 21 -5 -6
10 -7 11 22 -6 21 -5 -8 13 -8 13 12 -7 c15 -10 73 13 65 25 l-5 9 17 -7 17
-6 -8 13 -8 13 11 -7 c6 -4 21 -2 32 4 l21 11 -7 11 -7 11 12 -7 12 -8 25 17
c13 9 22 20 19 25 l-6 10 14 -5 13 -6 63 66 c53 55 70 89 43 84 -4 -1 -43 -8
-87 -15z" />
  </g>
  <g transform="translate(0.000000,512.000000) scale(0.100000,-0.100000)" fill="#3c9ff6" stroke="none">
    <path d="M1024 4728 c32 -42 74 -79 95 -83 9 -2 18 -4 21 -5 20 -7 99 4 118
16 12 8 22 11 22 8 0 -4 9 1 20 11 l20 18 -135 28 c-75 15 -147 30 -161 33
l-26 7 26 -33z" />
    <path d="M907 3913 c-12 -20 -22 -44 -24 -51 -2 -20 -54 -72 -70 -72 -7 0 -13
-4 -13 -8 0 -36 -290 -102 -617 -143 l-102 -12 22 -27 c50 -61 167 -101 297
-101 l75 0 70 21 c39 12 76 22 83 22 6 1 12 5 12 10 0 5 5 6 10 3 6 -3 10 -1
10 5 0 6 5 8 10 5 6 -3 10 -2 10 4 0 6 11 13 24 17 14 3 27 12 30 20 3 8 9 14
14 14 13 0 106 95 122 124 7 14 17 26 22 26 5 0 6 5 3 10 -3 6 -1 10 5 10 6 0
8 5 5 10 -3 6 -1 10 5 10 6 0 9 4 6 8 -3 5 1 19 8 33 7 13 11 30 9 36 -2 6 1
14 6 18 14 8 14 45 1 45 -6 0 -21 -17 -33 -37z" />
  </g>
  <g transform="translate(0.000000,512.000000) scale(0.100000,-0.100000)" fill="#6a3f83" stroke="none">
    <path d="M2940 2973 c-14 -2 -68 -13 -120 -24 -186 -39 -465 -79 -557 -79 -68
0 -78 -6 -57 -35 8 -10 14 -15 14 -9 1 5 10 -2 21 -16 12 -14 22 -23 23 -21 2
8 46 -11 46 -20 0 -6 3 -8 8 -6 4 3 18 0 32 -6 53 -21 238 -24 290 -4 8 3 24
7 35 9 11 2 23 7 26 11 3 4 16 9 27 10 12 1 22 5 22 10 0 4 5 5 10 2 6 -3 10
-1 10 6 0 7 3 10 6 6 3 -3 14 2 25 11 11 9 22 15 24 12 3 -3 12 5 20 18 9 12
19 21 23 19 4 -1 26 17 48 40 23 24 39 43 37 43 -3 0 0 7 7 15 7 8 11 14 9 14
-2 -1 -15 -4 -29 -6z" />
    <path d="M1510 2539 c-63 -5 -169 -13 -235 -17 l-120 -8 60 -29 60 -29 108 -5
c60 -3 111 -3 113 0 4 6 115 34 127 31 4 -1 7 2 7 7 0 9 60 37 72 34 3 -1 9 4
12 12 l5 15 -47 -1 c-26 -1 -99 -6 -162 -10z" />
  </g>
  <g transform="translate(0.000000,512.000000) scale(0.100000,-0.100000)" fill="#f4b9e2" stroke="none">
    <path d="M2873 4843 c26 -2 67 -2 90 0 23 2 2 3 -48 3 -49 0 -68 -1 -42 -3z" />
    <path d="M1973 4553 c48 -2 125 -2 170 0 45 1 6 3 -88 3 -93 0 -130 -2 -82 -3z" />
    <path d="M1804 4516 l-34 -34 0 -23 1 -24 35 40 c19 22 39 48 45 58 l10 17
-12 0 c-6 0 -26 -15 -45 -34z" />
    <path d="M1765 3815 c0 -341 1 -482 2 -313 2 169 2 448 0 620 -1 172 -2 34 -2
-307z" />
    <path d="M1955 3555 c0 -346 1 -487 2 -312 2 175 2 459 0 630 -1 172 -2 29 -2
-318z" />
    <path d="M4247 3976 c-49 -18 -64 -32 -88 -78 l-20 -39 3 -91 3 -90 114 146
c62 81 111 149 109 151 -2 2 -22 7 -43 10 l-40 5 -38 -14z" />
    <path d="M3054 3400 c0 -107 2 -151 3 -97 2 53 2 141 0 195 -1 53 -3 9 -3 -98z" />
    <path d="M4495 3450 c33 -33 62 -60 64 -60 3 0 -21 27 -54 60 -33 33 -62 60
-64 60 -3 0 21 -27 54 -60z" />
    <path d="M3322 2657 c-68 -68 -90 -97 -128 -169 -36 -71 -30 -67 43 29 36 48
83 108 103 133 73 90 66 92 -18 7z" />
  </g>
  <g transform="translate(0.000000,512.000000) scale(0.100000,-0.100000)" fill="#358b55" stroke="none">
    <path d="M4351 2263 c-67 -186 -297 -364 -541 -418 l-65 -14 202 2 203 2 17
25 c10 14 42 68 72 120 29 52 86 145 127 207 l73 113 -37 0 -38 0 -13 -37z" />
  </g>
  <g transform="translate(0.000000,512.000000) scale(0.100000,-0.100000)" fill="#bfe1fa" stroke="none">
    <path d="M819 5105 c-14 -8 -35 -27 -45 -42 l-19 -28 -1 -390 0 -390 5 317 6
316 83 106 c94 120 88 117 139 74 l38 -32 -25 28 c-46 53 -126 71 -181 41z" />
    <path d="M944 4490 c0 -162 2 -229 3 -147 2 81 2 213 0 295 -1 81 -3 14 -3
-148z" />
    <path d="M179 4156 c-52 -41 -110 -110 -138 -164 -28 -52 1 -28 69 60 40 51
86 105 104 120 49 43 27 33 -35 -16z" />
  </g>
  <g transform="translate(0.000000,512.000000) scale(0.100000,-0.100000)" fill="#f6c3c5" stroke="none" />
</svg>