<svg width="512.000000pt" height="512.000000pt" viewBox="0 0 512.000000 512.000000" xmlns="http://www.w3.org/2000/svg">
  <g transform="translate(0.000000,512.000000) scale(0.100000,-0.100000)" fill="#d3e5e6" stroke="none">
    <path d="M505 5024 c-23 -8 -58 -28 -79 -46 l-39 -32 -23 -50 -24 -51 0 -1612
0 -1613 2220 0 2220 0 0 1613 0 1612 -24 51 -23 50 -39 32 c-21 17 -58 38 -83
47 l-45 15 -2010 -1 -2011 -1 -40 -14z m2673 -623 l30 -21 17 -43 16 -42 -3
-510 -3 -510 -16 -36 c-26 -56 -79 -110 -134 -135 l-50 -24 -40 0 c-59 0 -109
17 -157 53 l-42 32 -28 54 -28 53 0 47 c0 98 55 187 144 233 l41 22 78 -1 77
-1 0 204 0 204 -13 0 c-7 0 -125 -22 -262 -50 -137 -27 -250 -50 -252 -50 -2
0 -3 -174 -3 -387 l0 -388 -24 -50 c-26 -56 -70 -98 -131 -126 l-40 -19 -50 0
-50 0 -50 24 c-190 88 -198 340 -14 441 l54 29 73 -1 72 -1 0 374 0 373 11 50
10 50 35 31 c19 16 38 30 42 30 4 1 135 28 292 60 l285 59 42 -3 41 -3 30 -22z
m-1947 -751 c10 -6 32 -37 48 -68 47 -92 127 -156 212 -168 90 -12 119 -34
119 -89 l0 -26 -26 -26 -26 -26 -66 6 -67 7 -71 35 c-40 19 -75 35 -78 35 -3
0 -6 -186 -6 -413 l0 -413 -26 -52 -26 -52 -38 -30 c-129 -102 -302 -64 -377
84 l-26 51 0 55 0 55 23 48 c28 59 88 111 153 133 l50 16 53 -6 53 -6 3 406 3
406 28 24 c30 26 57 30 88 14z m2737 -6 c12 -8 32 -37 43 -65 l22 -50 48 -43
49 -44 47 -16 c26 -9 57 -16 70 -16 13 0 37 -7 52 -15 l29 -14 10 -28 9 -28
-8 -22 c-4 -12 -20 -29 -34 -39 l-26 -17 -62 7 -61 6 -64 30 c-35 17 -68 30
-73 30 l-9 0 0 -84 0 -85 30 -21 c42 -30 132 -60 180 -60 22 0 56 -6 74 -14
l33 -14 10 -28 10 -29 -8 -21 c-4 -12 -18 -29 -31 -38 l-22 -16 -51 0 c-42 0
-117 17 -206 46 l-17 6 -3 -224 -4 -223 -28 -57 -28 -58 -37 -30 c-41 -33
-110 -60 -157 -60 -47 0 -116 27 -157 60 l-37 30 -27 55 -27 56 1 53 0 53 26
51 c31 61 84 106 149 128 l49 16 59 -6 59 -7 0 406 0 406 25 24 c28 29 61 32
93 9z" />
  </g>
  <g transform="translate(0.000000,512.000000) scale(0.100000,-0.100000)" fill="#ffffff00" stroke="none">
    <path d="M0 2560 l0 -2560 2560 0 2560 0 0 2560 0 2560 -2560 0 -2560 0 0
-2560z m4601 2455 c25 -9 62 -30 83 -47 l39 -32 23 -50 24 -51 0 -1608 0
-1608 13 -4 c6 -2 29 -6 49 -10 20 -3 58 -20 84 -38 l47 -32 31 -55 31 -55 4
-107 c4 -124 -1 -150 -31 -178 l-22 -20 -798 0 -798 0 0 -15 c0 -8 84 -215
186 -461 l185 -445 -11 -35 -12 -36 -32 -19 -31 -19 -125 0 -125 0 -41 19
c-58 26 -52 14 -270 537 l-197 474 -347 0 -347 0 -197 -474 c-218 -523 -212
-511 -270 -537 l-41 -19 -123 0 -123 0 -29 15 c-28 14 -60 60 -60 85 0 7 83
212 185 456 102 244 185 451 185 459 l0 15 -798 0 -798 0 -22 20 c-30 28 -35
54 -31 178 l4 107 31 55 31 55 47 32 c26 18 64 35 84 38 20 4 43 8 50 10 l12
4 0 1608 0 1608 24 51 23 50 39 32 c21 18 56 38 79 46 l40 14 2001 1 2000 1
45 -15z" />
  </g>
  <g transform="translate(0.000000,512.000000) scale(0.100000,-0.100000)" fill="#6a493f" stroke="none">
    <path d="M291 1619 c-23 -4 -63 -20 -88 -35 l-45 -26 -29 -46 c-41 -65 -49
-101 -49 -225 l0 -108 12 -22 c6 -12 18 -27 27 -34 l16 -12 681 -1 c374 0 837
-3 1027 -7 l347 -6 0 -14 c0 -20 18 -15 25 7 l6 20 339 0 339 0 6 -20 c7 -22
25 -27 25 -7 l0 14 347 6 c190 4 653 7 1027 7 l681 1 16 12 c9 7 21 22 27 34
l12 22 0 108 c0 126 -9 164 -53 230 l-32 48 -59 30 -60 30 -2250 1 -2251 2
-44 -9z" />
    <path d="M1810 180 c0 -14 -46 -60 -60 -60 -5 0 -10 -7 -10 -16 l0 -16 32 19
c18 10 41 33 51 51 l19 32 -16 0 c-9 0 -16 -5 -16 -10z" />
    <path d="M1380 131 c0 -12 29 -35 36 -28 11 10 -5 37 -21 37 -8 0 -15 -4 -15
-9z" />
    <path d="M3320 130 c0 -5 14 -16 30 -25 l30 -16 0 16 c0 8 -7 15 -15 15 -8 0
-15 5 -15 10 0 6 -7 10 -15 10 -8 0 -15 -4 -15 -10z" />
    <path d="M3703 125 c-3 -9 -3 -19 1 -22 7 -7 36 16 36 28 0 15 -30 10 -37 -6z" />
  </g>
  <g transform="translate(0.000000,512.000000) scale(0.100000,-0.100000)" fill="#4f352f" stroke="none">
    <path d="M1726 1094 c-3 -9 -4 -20 0 -25 3 -5 1 -9 -4 -9 -10 0 -35 -50 -28
-57 3 -3 -2 -12 -10 -20 -8 -9 -13 -22 -10 -29 3 -8 2 -14 -3 -14 -10 0 -34
-51 -27 -57 3 -3 -2 -12 -10 -20 -8 -9 -13 -22 -10 -29 3 -8 2 -14 -3 -14 -10
0 -34 -51 -27 -57 3 -3 -2 -12 -10 -20 -8 -9 -13 -22 -10 -29 3 -8 2 -14 -3
-14 -10 0 -34 -51 -27 -57 3 -3 -2 -12 -10 -20 -8 -9 -13 -22 -10 -29 3 -8 2
-14 -3 -14 -10 0 -34 -51 -27 -57 3 -3 -2 -12 -10 -20 -8 -9 -13 -22 -10 -29
3 -8 2 -14 -3 -14 -10 0 -34 -51 -27 -57 3 -3 -2 -12 -10 -20 -8 -9 -13 -22
-10 -29 3 -8 2 -14 -3 -14 -10 0 -34 -51 -27 -57 3 -3 -2 -12 -10 -20 -8 -9
-13 -22 -10 -29 3 -8 1 -14 -4 -14 -36 0 6 -102 51 -126 l31 -15 144 3 145 3
7 10 c4 6 14 11 22 13 20 4 62 51 55 63 -4 5 -2 9 3 9 6 0 15 14 21 30 5 17 8
30 5 30 -3 0 2 7 11 16 9 9 14 23 11 30 -3 8 -1 14 3 14 5 0 14 14 20 30 5 17
8 30 5 30 -3 0 2 7 11 16 9 9 14 23 11 30 -3 8 -1 14 3 14 5 0 14 13 20 30 5
16 8 30 5 30 -3 0 2 7 11 16 9 9 14 23 11 30 -3 8 -1 14 3 14 5 0 14 14 20 30
5 16 8 30 5 30 -3 0 2 7 11 16 9 9 14 23 11 30 -3 8 -1 14 3 14 5 0 14 14 20
30 5 17 8 30 5 30 -3 0 2 7 11 16 9 9 14 23 11 30 -3 8 -1 14 3 14 5 0 14 14
20 30 5 17 8 30 5 30 -3 0 2 7 11 16 9 9 14 23 11 30 -3 8 -1 14 3 14 5 0 14
14 20 30 5 17 8 30 5 30 -3 0 2 7 11 16 9 9 14 23 11 30 -3 8 -1 14 3 14 11 0
31 56 24 64 -4 3 -1 6 5 6 7 0 12 5 12 10 l0 10 -244 0 -244 0 -6 -16z" />
    <path d="M2900 1100 c0 -5 5 -10 12 -10 6 0 9 -3 5 -6 -7 -8 13 -64 24 -64 4
0 6 -6 3 -14 -3 -7 2 -21 11 -30 9 -9 14 -16 11 -16 -3 0 0 -13 5 -30 6 -16
15 -30 20 -30 4 0 6 -6 3 -14 -3 -7 2 -21 11 -30 9 -9 14 -16 11 -16 -3 0 0
-13 5 -30 6 -16 15 -30 20 -30 4 0 6 -6 3 -14 -3 -7 2 -21 11 -30 9 -9 14 -16
11 -16 -3 0 0 -13 5 -30 6 -16 15 -30 20 -30 4 0 6 -6 3 -14 -3 -7 2 -21 11
-30 9 -9 14 -16 11 -16 -3 0 0 -14 5 -30 6 -16 15 -30 20 -30 4 0 6 -6 3 -14
-3 -7 2 -21 11 -30 9 -9 14 -16 11 -16 -3 0 0 -14 5 -30 6 -17 15 -30 20 -30
4 0 6 -6 3 -14 -3 -7 2 -21 11 -30 9 -9 14 -16 11 -16 -3 0 0 -13 5 -30 6 -16
15 -30 20 -30 4 0 6 -6 3 -14 -3 -7 2 -21 11 -30 9 -9 14 -16 11 -16 -3 0 0
-13 5 -30 6 -16 15 -30 21 -30 5 0 7 -4 3 -9 -7 -12 35 -59 55 -63 8 -2 18 -7
22 -13 l7 -10 145 -3 144 -3 32 16 32 16 14 34 c16 40 18 75 4 75 -5 0 -7 6
-4 14 3 7 -2 20 -10 29 -8 8 -13 17 -10 20 7 6 -17 57 -27 57 -5 0 -6 6 -3 14
3 7 -2 20 -10 29 -8 8 -13 17 -10 20 7 6 -17 57 -27 57 -5 0 -6 6 -3 14 3 7
-2 20 -10 29 -8 8 -13 17 -10 20 7 6 -17 57 -27 57 -5 0 -6 6 -3 14 3 7 -2 20
-10 29 -8 8 -13 17 -10 20 7 6 -17 57 -27 57 -5 0 -6 6 -3 14 3 7 -2 20 -10
29 -8 8 -13 17 -10 20 7 6 -17 57 -27 57 -5 0 -6 6 -3 14 3 7 -2 20 -10 29 -8
8 -13 17 -10 20 7 6 -17 57 -27 57 -5 0 -6 6 -3 14 3 7 -2 20 -10 29 -8 8 -13
17 -10 20 7 7 -18 57 -28 57 -5 0 -7 4 -4 9 4 5 3 16 0 25 l-6 16 -244 0 -244
0 0 -10z" />
  </g>
  <g transform="translate(0.000000,512.000000) scale(0.100000,-0.100000)" fill="#7b80d2" stroke="none">
    <path d="M2770 4379 c-157 -32 -288 -58 -292 -59 -4 0 -23 -14 -42 -30 l-35
-31 -10 -50 -11 -50 0 -372 0 -373 -73 0 -73 0 -54 -30 -55 -31 -32 -46 -32
-47 -11 -54 -11 -53 11 -49 c19 -85 70 -147 150 -183 l45 -21 60 0 60 0 40 19
c61 28 105 70 131 126 l24 50 0 388 c0 213 1 387 3 387 2 0 115 23 252 50 137
28 250 50 252 50 2 0 3 -87 3 -193 l0 -192 -77 -1 -78 0 -41 -22 c-92 -48
-144 -135 -144 -243 l0 -57 28 -53 28 -54 42 -32 c50 -38 98 -53 167 -53 l50
0 50 24 c55 25 108 79 134 135 l16 36 3 525 3 525 -23 44 -23 45 -35 18 -35
18 -40 -1 c-22 -1 -168 -27 -325 -60z" />
  </g>
  <g transform="translate(0.000000,512.000000) scale(0.100000,-0.100000)" fill="#3b7ac8" stroke="none">
    <path d="M3865 3645 l-25 -24 0 -405 0 -404 -59 5 -58 6 -49 -17 c-66 -22
-119 -67 -151 -129 l-26 -51 0 -62 -1 -61 28 -56 27 -57 37 -30 c95 -78 239
-78 334 0 l37 30 28 58 28 57 4 221 3 220 57 -19 c31 -11 91 -22 133 -25 l78
-5 25 17 c14 9 30 29 36 43 l10 26 -12 34 -11 35 -34 14 c-18 8 -52 14 -74 14
-48 0 -138 30 -180 60 l-30 21 0 74 0 74 64 -30 64 -30 71 -6 70 -6 26 17 c14
9 30 29 36 43 l10 26 -12 34 -11 33 -28 15 c-16 8 -40 15 -53 15 -13 0 -44 7
-70 16 l-47 16 -49 44 -48 43 -22 50 c-25 58 -53 81 -99 81 l-33 0 -24 -25z" />
  </g>
  <g transform="translate(0.000000,512.000000) scale(0.100000,-0.100000)" fill="#d59c0b" stroke="none">
    <path d="M1133 3646 l-28 -24 -3 -404 -3 -405 -53 5 -54 4 -50 -16 c-64 -22
-124 -74 -152 -133 l-23 -48 0 -65 -1 -65 27 -51 c77 -150 264 -189 397 -84
l38 30 26 52 26 52 0 411 0 411 68 -33 67 -34 71 -6 70 -6 23 13 c13 6 29 27
37 46 l14 34 -14 33 -14 34 -28 10 c-16 6 -49 14 -73 17 -85 12 -165 76 -212
168 -31 62 -51 78 -98 78 l-30 0 -28 -24z" />
  </g>
  <g transform="translate(0.000000,512.000000) scale(0.100000,-0.100000)" fill="#dbe8e9" stroke="none">
    <path d="M1572 5033 c544 -2 1432 -2 1975 0 544 1 99 2 -987 2 -1086 0 -1531
-1 -988 -2z" />
    <path d="M340 3227 l-5 -1607 10 0 10 0 -3 1027 c-1 566 -3 1289 -5 1608 -1
319 -4 -143 -7 -1028z" />
    <path d="M4770 3222 l-5 -1602 10 0 10 0 -3 1027 c-1 566 -3 1287 -5 1603 -1
316 -4 -146 -7 -1028z" />
  </g>
  <g transform="translate(0.000000,512.000000) scale(0.100000,-0.100000)" fill="#c6d0cf" stroke="none">
    <path d="M1447 1623 c612 -2 1614 -2 2225 0 612 1 112 2 -1112 2 -1224 0
-1724 -1 -1113 -2z" />
  </g>
  <g transform="translate(0.000000,512.000000) scale(0.100000,-0.100000)" fill="#cbdde5" stroke="none">
    <path d="M2378 3790 c-2 -215 0 -390 5 -390 4 0 7 176 7 390 0 215 -2 390 -5
390 -2 0 -6 -176 -7 -390z" />
    <path d="M2120 3340 c-22 -22 -40 -45 -40 -51 0 -7 9 0 20 14 11 14 34 37 51
51 17 14 26 26 20 26 -6 0 -29 -18 -51 -40z" />
    <path d="M4010 3240 c0 -49 3 -90 8 -90 4 0 6 36 4 80 l-4 80 16 -6 c23 -9 20
3 -4 16 l-20 11 0 -91z" />
    <path d="M3208 3212 c-15 -32 -21 -48 -12 -37 18 22 47 85 42 90 -2 2 -15 -22
-30 -53z" />
    <path d="M2760 3206 c0 -30 110 -126 144 -126 6 0 -12 14 -41 30 l-52 30 -26
37 c-14 21 -25 34 -25 29z" />
    <path d="M2056 3080 c7 -27 42 -90 51 -90 2 0 -4 15 -14 33 -11 17 -25 43 -31
57 l-12 25 6 -25z" />
    <path d="M4012 2758 c2 -203 6 -179 10 70 2 72 0 132 -4 132 -5 0 -7 -91 -6
-202z" />
    <path d="M3943 2397 c-4 -7 -28 -28 -52 -45 -24 -18 -40 -32 -34 -32 25 0 111
75 100 86 -3 3 -9 -1 -14 -9z" />
  </g>
  <g transform="translate(0.000000,512.000000) scale(0.100000,-0.100000)" fill="#b4c8e0" stroke="none">
    <path d="M3245 3810 c0 -272 1 -384 2 -247 2 136 2 358 0 495 -1 136 -2 24 -2
-248z" />
  </g>
  <g transform="translate(0.000000,512.000000) scale(0.100000,-0.100000)" fill="#d4ded5" stroke="none">
    <path d="M1102 3202 l-2 -393 -22 5 -23 6 23 -12 c33 -17 32 -29 29 393 l-2
394 -3 -393z" />
  </g>
  <g transform="translate(0.000000,512.000000) scale(0.100000,-0.100000)" fill="#8c95d6" stroke="none">
    <path d="M3057 3972 l13 -8 3 -199 2 -200 3 208 2 207 -17 0 -18 0 12 -8z" />
  </g>
  <g transform="translate(0.000000,512.000000) scale(0.100000,-0.100000)" fill="#9cb2da" stroke="none" />
  <g transform="translate(0.000000,512.000000) scale(0.100000,-0.100000)" fill="#bbafab" stroke="none">
    <path d="M84 1285 c0 -60 1 -84 3 -52 2 32 2 81 0 110 -2 29 -3 3 -3 -58z" />
    <path d="M5034 1285 c0 -60 1 -84 3 -52 2 32 2 81 0 110 -2 29 -3 3 -3 -58z" />
  </g>
  <g transform="translate(0.000000,512.000000) scale(0.100000,-0.100000)" fill="#ab9f9c" stroke="none">
    <path d="M1523 83 c31 -2 83 -2 115 0 31 2 5 3 -58 3 -63 0 -89 -1 -57 -3z" />
    <path d="M3483 83 c31 -2 83 -2 115 0 31 2 5 3 -58 3 -63 0 -89 -1 -57 -3z" />
  </g>
  <g transform="translate(0.000000,512.000000) scale(0.100000,-0.100000)" fill="#7a635d" stroke="none" />
  <g transform="translate(0.000000,512.000000) scale(0.100000,-0.100000)" fill="#4f88cc" stroke="none" />
  <g transform="translate(0.000000,512.000000) scale(0.100000,-0.100000)" fill="#6b9cd1" stroke="none" />
  <g transform="translate(0.000000,512.000000) scale(0.100000,-0.100000)" fill="#d4d0a6" stroke="none" />
  <g transform="translate(0.000000,512.000000) scale(0.100000,-0.100000)" fill="#d5b24c" stroke="none" />
  <g transform="translate(0.000000,512.000000) scale(0.100000,-0.100000)" fill="#897773" stroke="none" />
  <g transform="translate(0.000000,512.000000) scale(0.100000,-0.100000)" fill="#9a8985" stroke="none" />
  <g transform="translate(0.000000,512.000000) scale(0.100000,-0.100000)" fill="#d5bf75" stroke="none" />
  <g transform="translate(0.000000,512.000000) scale(0.100000,-0.100000)" fill="#d6e7e8" stroke="none" />
</svg>