<svg width="512.000000pt" height="512.000000pt" viewBox="0 0 512.000000 512.000000" xmlns="http://www.w3.org/2000/svg">
  <g transform="translate(0.000000,512.000000) scale(0.100000,-0.100000)" fill="#ffffff00" stroke="none">
    <path d="M0 2560 l0 -2560 2560 0 2560 0 0 2560 0 2560 -2560 0 -2560 0 0
-2560z m4821 2200 c118 -22 221 -98 267 -198 l24 -53 -4 -72 -4 -72 -26 -58
-27 -57 -51 -50 -51 -50 -72 -34 c-136 -64 -292 -82 -454 -51 -43 8 -79 15
-80 15 -2 0 -3 -430 -3 -955 l0 -956 -25 -24 c-31 -32 -59 -32 -91 0 l-25 25
4 1052 3 1053 18 60 c87 292 342 473 597 425z m-3948 -152 c12 -6 51 -38 87
-71 36 -32 136 -113 222 -178 281 -215 368 -376 368 -685 l0 -41 -21 -27 -20
-26 -30 0 -29 0 -19 19 -18 18 -7 99 c-15 202 -51 305 -140 398 -53 55 -316
256 -335 256 l-10 0 -3 -952 -3 -953 -18 -60 c-9 -33 -34 -94 -54 -135 l-36
-75 -67 -66 -67 -66 -64 -32 c-35 -17 -93 -38 -129 -47 l-65 -16 -73 5 -73 6
-63 29 c-78 36 -139 96 -172 165 l-24 52 0 62 0 62 21 56 21 56 55 59 55 60
82 40 81 39 77 16 c95 19 179 19 283 0 44 -8 83 -15 88 -15 4 0 7 428 7 951
l0 950 11 20 c6 11 20 24 32 29 29 11 25 12 50 -2z m2673 -1273 l25 -25 -3
-992 -3 -993 -22 -78 c-30 -105 -76 -189 -145 -263 l-58 -61 -67 -36 c-38 -19
-94 -43 -126 -52 l-58 -17 -69 0 c-150 0 -286 83 -341 207 l-22 50 0 60 0 60
22 58 23 58 53 58 54 58 58 31 c65 34 178 67 263 76 49 6 97 2 253 -20 l47 -7
0 672 c0 369 -3 671 -7 671 -5 0 -336 -94 -738 -209 l-730 -208 -5 -779 -6
-779 -22 -80 c-12 -44 -36 -109 -54 -145 l-31 -65 -71 -71 -71 -71 -65 -31
c-36 -18 -100 -40 -143 -49 l-78 -17 -70 12 c-128 22 -227 90 -276 190 l-28
57 0 70 1 70 26 57 c15 32 48 80 74 108 l47 50 78 39 c43 22 113 47 155 57
l77 17 111 -7 c61 -4 130 -9 153 -12 l43 -6 2 901 3 900 20 21 21 20 814 234
c448 129 825 234 838 235 l23 1 25 -25z" />
  </g>
  <g transform="translate(0.000000,512.000000) scale(0.100000,-0.100000)" fill="#abd880" stroke="none">
    <path d="M3490 3361 c0 -11 50 -24 58 -16 8 8 -19 25 -40 25 -10 0 -18 -4 -18
-9z" />
    <path d="M2615 3124 l-779 -224 -21 -20 -20 -20 -3 -142 -4 -141 24 6 c13 3
372 105 798 227 l775 222 23 24 22 25 0 135 0 134 -17 -1 c-10 -1 -369 -102
-798 -225z" />
    <path d="M3085 1541 c-80 -13 -166 -40 -228 -74 l-58 -30 -54 -58 -53 -58 -23
-58 -22 -58 0 -70 -1 -70 23 -51 c21 -49 101 -141 101 -116 l0 12 93 0 93 0
59 15 c33 8 93 31 133 51 l73 36 54 53 53 53 31 64 c39 80 61 163 68 259 l6
76 -69 11 c-100 16 -222 22 -279 13z" />
    <path d="M3486 1124 c-15 -40 4 -48 22 -9 l12 25 -14 0 c-8 0 -17 -7 -20 -16z" />
    <path d="M1384 1060 c-96 -25 -186 -72 -245 -127 l-49 -46 -32 -65 -33 -66 0
-81 0 -81 30 -60 31 -59 29 -15 30 -15 105 1 105 0 85 30 c230 81 385 307 368
538 l-3 41 -70 12 c-38 6 -117 12 -175 12 l-105 0 -71 -19z" />
    <path d="M3320 920 c0 -5 -7 -10 -15 -10 -8 0 -15 -7 -15 -16 l0 -15 30 18
c32 19 39 33 15 33 -8 0 -15 -4 -15 -10z" />
    <path d="M1633 423 c-7 -2 -13 -11 -13 -19 l0 -14 25 12 c39 18 28 38 -12 21z" />
    <path d="M1230 381 c0 -12 48 -27 57 -17 9 8 2 13 -30 21 l-27 7 0 -11z" />
  </g>
  <g transform="translate(0.000000,512.000000) scale(0.100000,-0.100000)" fill="#8cc951" stroke="none">
    <path d="M3441 3361 l-23 -6 1 -132 2 -131 -23 -25 -23 -25 -775 -222 c-426
-122 -783 -223 -793 -223 l-18 -1 1 -831 2 -830 -16 -66 c-55 -237 -230 -388
-483 -415 l-64 -6 -56 11 c-62 12 -72 9 -52 -15 18 -22 111 -74 121 -68 4 3 8
0 8 -6 l0 -12 15 5 c8 4 17 2 20 -3 7 -11 19 -12 120 -14 44 0 89 3 100 8 11
5 27 10 35 11 33 4 90 27 90 36 0 6 5 7 10 4 5 -3 10 -1 10 6 0 7 3 9 6 6 14
-14 173 125 166 145 -1 4 2 8 7 8 11 0 44 50 44 67 0 7 4 13 8 13 7 0 28 55
33 83 1 7 5 18 10 25 4 7 5 16 2 19 -3 3 -1 12 5 19 20 24 23 135 29 879 l5
750 23 3 c12 2 22 6 22 10 0 4 14 8 32 9 17 1 34 6 37 10 3 5 19 9 36 11 16 2
32 7 35 10 3 4 18 8 35 10 16 2 32 7 35 10 3 4 18 8 35 10 16 2 32 7 35 10 3
4 18 8 35 10 16 2 32 7 35 10 3 4 18 8 35 10 16 2 32 7 35 10 3 4 18 8 35 10
16 2 32 7 35 10 3 4 18 8 35 10 16 2 32 7 35 10 3 4 18 8 35 10 16 2 32 7 35
10 3 4 18 8 35 10 16 2 32 7 35 10 3 4 18 8 35 10 16 2 32 7 35 10 3 4 18 8
35 10 16 2 32 7 35 10 3 4 18 8 35 10 16 2 32 7 35 10 3 4 18 8 35 10 16 2 32
7 35 10 3 4 18 8 35 10 16 2 32 7 35 10 3 4 18 8 35 10 16 2 32 7 35 10 3 4
18 8 35 10 16 2 32 7 35 10 3 4 18 8 35 10 16 2 32 7 35 10 3 4 18 8 35 10 16
2 32 7 35 10 3 4 18 8 35 10 16 2 33 9 37 15 5 7 7 -321 5 -728 l-3 -740 -17
-60 c-10 -33 -31 -88 -48 -123 l-31 -64 -53 -53 -54 -53 -73 -36 c-123 -60
-303 -87 -382 -56 -14 5 -26 8 -26 5 0 -10 53 -60 61 -57 5 1 9 -2 9 -7 0 -14
101 -53 150 -59 67 -7 158 -4 174 5 6 4 20 8 33 9 31 4 143 55 143 66 0 5 4 7
9 3 6 -3 14 3 20 12 6 10 11 14 11 8 0 -5 25 15 55 45 30 29 52 57 49 62 -3 4
-1 8 4 8 12 0 45 50 45 67 0 7 5 13 10 13 6 0 8 3 4 6 -3 4 1 13 9 21 8 9 13
22 10 29 -3 8 -1 14 4 14 7 0 31 94 41 160 1 8 4 456 6 994 l3 979 -15 24 c-9
13 -20 21 -25 18 -6 -4 -10 -2 -10 3 0 10 -55 12 -89 3z" />
  </g>
  <g transform="translate(0.000000,512.000000) scale(0.100000,-0.100000)" fill="#fec250" stroke="none">
    <path d="M814 4620 c-12 -5 -26 -15 -30 -22 l-9 -13 -5 -1020 -6 -1020 -17
-60 c-10 -33 -31 -88 -47 -123 l-29 -63 -56 -58 -56 -59 -57 -30 c-66 -35
-165 -67 -238 -77 l-51 -6 -62 11 c-104 19 -81 -20 47 -82 l63 -30 82 -5 82
-5 65 16 c36 9 94 30 129 47 l64 32 67 66 67 66 36 75 c20 41 45 102 54 135
l18 60 5 952 5 951 135 -101 c261 -195 306 -271 326 -551 l7 -99 18 -18 19
-19 39 0 40 0 20 26 21 27 0 51 c0 320 -84 478 -368 695 -86 65 -186 146 -222
178 -91 83 -110 92 -156 73z" />
  </g>
  <g transform="translate(0.000000,512.000000) scale(0.100000,-0.100000)" fill="#ca59a6" stroke="none">
    <path d="M4920 4731 c0 -5 5 -22 11 -38 6 -15 15 -56 20 -89 l9 -61 -16 -59
c-27 -106 -92 -172 -212 -216 l-57 -21 -120 0 -120 0 -100 27 c-55 15 -107 28
-115 29 l-15 2 -7 -45 c-3 -25 -7 -508 -7 -1073 l-1 -1028 25 -24 24 -25 31 0
31 0 24 25 25 24 0 954 0 954 68 -13 c37 -7 109 -13 160 -14 l93 0 72 16 c40
9 104 31 144 50 l72 34 51 50 51 50 27 57 26 58 4 78 4 78 -16 44 c-32 83
-186 229 -186 176z" />
  </g>
  <g transform="translate(0.000000,512.000000) scale(0.100000,-0.100000)" fill="#fedf7c" stroke="none">
    <path d="M772 3617 l-2 -948 -17 5 c-93 28 -251 33 -361 11 l-77 -16 -81 -39
-82 -40 -55 -60 -55 -59 -21 -56 -21 -56 0 -72 0 -72 25 -50 c13 -27 30 -58
37 -67 l14 -16 65 -12 64 -12 58 7 c77 8 178 40 249 77 l57 30 56 59 56 58 29
63 c16 35 37 90 47 123 l17 60 4 895 c1 492 1 949 0 1015 -2 66 -5 -307 -6
-828z" />
  </g>
  <g transform="translate(0.000000,512.000000) scale(0.100000,-0.100000)" fill="#da8bc1" stroke="none">
    <path d="M4655 4770 c-215 -43 -382 -203 -438 -421 l-14 -56 11 0 c6 -1 56
-14 111 -29 l100 -27 130 0 130 -1 57 22 c121 44 185 110 213 217 l15 60 -6
60 c-4 33 -13 77 -20 97 l-13 37 17 -5 c9 -2 -2 5 -25 16 -75 36 -178 48 -268
30z" />
    <path d="M4195 3170 c0 -553 1 -779 2 -502 2 276 2 728 0 1005 -1 276 -2 50
-2 -503z" />
  </g>
  <g transform="translate(0.000000,512.000000) scale(0.100000,-0.100000)" fill="#e5f2d8" stroke="none">
    <path d="M1790 1951 l0 -890 -17 -3 -18 -4 23 -6 22 -6 0 899 c0 494 -2 899
-5 899 -3 0 -5 -400 -5 -889z" />
    <path d="M1963 2433 l-13 -5 2 -731 3 -732 2 724 3 724 11 14 c12 14 11 14 -8
6z" />
  </g>
  <g transform="translate(0.000000,512.000000) scale(0.100000,-0.100000)" fill="#d681ba" stroke="none">
    <path d="M4345 3130 c0 -520 1 -732 2 -472 2 259 2 685 0 945 -1 259 -2 47 -2
-473z" />
  </g>
  <g transform="translate(0.000000,512.000000) scale(0.100000,-0.100000)" fill="#c6e4aa" stroke="none">
    <path d="M3575 2375 c0 -511 1 -719 2 -462 2 258 2 676 0 930 -1 254 -2 44 -2
-468z" />
  </g>
  <g transform="translate(0.000000,512.000000) scale(0.100000,-0.100000)" fill="#fedb8a" stroke="none">
    <path d="M922 3463 c2 -500 4 -762 5 -583 7 851 7 1490 1 1490 -5 0 -7 -408
-6 -907z" />
    <path d="M1400 3628 c0 -23 35 -58 58 -58 l17 0 -25 13 c-13 7 -30 24 -37 37
l-13 25 0 -17z" />
    <path d="M207 2618 c-31 -17 -56 -33 -54 -34 4 -5 117 56 117 62 0 6 -1 6 -63
-28z" />
  </g>
  <g transform="translate(0.000000,512.000000) scale(0.100000,-0.100000)" fill="#f7f6ec" stroke="none" />
  <g transform="translate(0.000000,512.000000) scale(0.100000,-0.100000)" fill="#96cd60" stroke="none" />
  <g transform="translate(0.000000,512.000000) scale(0.100000,-0.100000)" fill="#a0d36e" stroke="none">
    <path d="M2838 913 c18 -2 45 -2 60 0 15 2 0 4 -33 4 -33 0 -45 -2 -27 -4z" />
  </g>
  <g transform="translate(0.000000,512.000000) scale(0.100000,-0.100000)" fill="#bcdf9a" stroke="none" />
  <g transform="translate(0.000000,512.000000) scale(0.100000,-0.100000)" fill="#d9edc6" stroke="none" />
  <g transform="translate(0.000000,512.000000) scale(0.100000,-0.100000)" fill="#fec85e" stroke="none">
    <path d="M1355 4221 c21 -22 40 -41 42 -41 11 0 -33 51 -55 66 l-27 17 40 -42z" />
  </g>
  <g transform="translate(0.000000,512.000000) scale(0.100000,-0.100000)" fill="#fef0d5" stroke="none" />
  <g transform="translate(0.000000,512.000000) scale(0.100000,-0.100000)" fill="#cee7b5" stroke="none" />
  <g transform="translate(0.000000,512.000000) scale(0.100000,-0.100000)" fill="#fee4aa" stroke="none" />
  <g transform="translate(0.000000,512.000000) scale(0.100000,-0.100000)" fill="#fed16e" stroke="none" />
  <g transform="translate(0.000000,512.000000) scale(0.100000,-0.100000)" fill="#f1d6e8" stroke="none" />
  <g transform="translate(0.000000,512.000000) scale(0.100000,-0.100000)" fill="#fee9bf" stroke="none" />
  <g transform="translate(0.000000,512.000000) scale(0.100000,-0.100000)" fill="#e0a1cc" stroke="none" />
  <g transform="translate(0.000000,512.000000) scale(0.100000,-0.100000)" fill="#e9bcdb" stroke="none" />
</svg>