<svg width="512.000000pt" height="512.000000pt" viewBox="0 0 512.000000 512.000000" xmlns="http://www.w3.org/2000/svg">
  <g transform="translate(0.000000,512.000000) scale(0.100000,-0.100000)" fill="#f6f3f6" stroke="none">
    <path d="M470 5111 c-141 -44 -267 -170 -311 -312 l-19 -61 0 -2178 0 -2178
19 -61 c37 -119 132 -230 248 -287 l58 -29 1193 -3 c655 -1 1192 1 1192 4 0 4
-8 13 -17 20 l-18 12 -3 284 -3 283 11 75 c7 41 21 97 31 123 11 26 19 52 19
57 l0 10 -415 0 -416 0 -24 25 c-30 29 -32 55 -6 86 l19 24 457 5 457 5 44
100 c24 55 44 107 44 117 l0 18 -498 0 -499 0 -21 23 c-27 29 -28 57 -3 88
l19 24 539 3 539 2 189 433 c104 237 191 442 193 454 l4 23 -726 0 -727 0 -24
25 c-30 30 -31 54 -4 89 l20 26 745 0 744 0 0 120 0 120 -744 0 -745 0 -20 26
c-27 35 -26 59 4 89 l24 25 741 0 740 0 0 455 0 455 -746 2 -746 3 -19 24
c-25 31 -24 63 4 89 l23 22 742 0 742 0 0 120 0 120 -740 0 -741 0 -24 25
c-14 13 -25 34 -25 45 0 11 11 32 25 45 l24 25 741 0 740 0 0 218 0 218 -11
60 c-6 32 -24 88 -41 122 l-30 64 -58 58 -58 58 -69 34 -68 33 -1345 2 c-740
1 -1356 -2 -1370 -6z m1060 -663 c18 -13 43 -36 54 -51 l21 -28 0 -379 0 -379
-21 -27 c-11 -15 -33 -37 -48 -48 l-27 -21 -384 0 -384 0 -27 21 c-15 11 -37
33 -48 48 l-21 27 0 379 0 379 21 28 c11 15 36 38 54 51 l33 22 372 0 372 0
33 -22z m0 -1430 c18 -13 43 -36 54 -51 l21 -28 0 -379 0 -379 -21 -27 c-11
-15 -33 -37 -48 -48 l-27 -21 -378 -3 -377 -3 -34 23 c-18 13 -43 36 -54 51
l-21 28 0 379 0 379 21 28 c11 15 36 38 54 51 l33 22 372 0 372 0 33 -22z m6
-1434 c15 -11 37 -33 48 -48 l21 -27 0 -379 0 -379 -21 -28 c-11 -15 -36 -38
-54 -50 l-33 -23 -372 0 -372 0 -33 23 c-18 12 -43 35 -54 50 l-21 28 -3 342
c-2 188 0 361 3 384 l6 43 27 31 c14 18 40 38 57 45 l30 14 372 -3 372 -2 27
-21z" />
    <path d="M1230 4175 l0 -15 34 0 35 0 19 -25 c11 -14 25 -25 31 -25 19 0 12
30 -14 55 l-24 25 -41 0 -40 0 0 -15z" />
    <path d="M1162 4118 c-16 -16 -15 -38 1 -38 17 0 37 20 37 37 0 16 -22 17 -38
1z" />
    <path d="M1330 4082 c0 -9 -9 -23 -20 -30 -11 -7 -20 -19 -20 -28 l0 -15 18 3
c9 2 21 13 27 26 5 12 13 22 17 22 5 0 8 9 8 20 l0 20 -15 0 -15 0 0 -18z" />
    <path d="M1112 4058 c-16 -16 -15 -38 1 -38 17 0 37 20 37 37 0 16 -22 17 -38
1z" />
    <path d="M915 4035 c-14 -14 -25 -32 -25 -40 0 -22 28 -18 35 4 3 11 15 23 26
26 22 7 26 35 4 35 -8 0 -26 -11 -40 -25z" />
    <path d="M980 4045 c0 -8 7 -15 16 -15 9 0 25 -11 36 -25 l19 -25 25 0 24 0 0
14 c0 7 -8 17 -17 20 -33 13 -63 31 -63 38 0 5 -9 8 -20 8 l-20 0 0 -15z" />
    <path d="M1252 3988 c-16 -16 -15 -38 1 -38 17 0 37 20 37 37 0 16 -22 17 -38
1z" />
    <path d="M890 3950 l0 -20 15 0 15 0 0 20 0 20 -15 0 -15 0 0 -20z" />
    <path d="M1192 3918 c-16 -16 -15 -38 1 -38 17 0 37 20 37 37 0 16 -22 17 -38
1z" />
    <path d="M950 3887 c0 -16 32 -47 48 -47 18 0 14 25 -6 43 -22 20 -42 22 -42
4z" />
    <path d="M1129 3844 l-24 -26 -37 6 -38 6 0 -14 c0 -17 21 -26 60 -26 l28 0
31 26 c32 27 41 54 18 54 -8 0 -24 -12 -38 -26z" />
    <path d="M1233 2753 c-7 -2 -13 -11 -13 -19 l0 -14 38 6 39 6 20 -26 c12 -14
26 -26 32 -26 19 0 12 30 -14 55 l-24 25 -33 -1 c-18 0 -39 -3 -45 -6z" />
    <path d="M1172 2698 c-16 -16 -15 -38 1 -38 17 0 37 20 37 37 0 16 -22 17 -38
1z" />
    <path d="M1330 2656 c0 -7 -7 -19 -15 -26 -19 -16 -19 -40 -1 -40 18 0 46 38
46 62 l0 18 -15 0 c-8 0 -15 -6 -15 -14z" />
    <path d="M1117 2632 c-20 -22 -22 -42 -4 -42 16 0 47 32 47 48 0 18 -25 14
-43 -6z" />
    <path d="M915 2605 c-26 -25 -33 -55 -14 -55 6 0 20 11 31 25 l19 25 30 0 29
0 0 15 0 15 -35 0 -36 0 -24 -25z" />
    <path d="M1030 2587 c0 -20 22 -37 47 -37 l23 0 0 13 c0 6 -12 18 -27 25 -34
15 -43 15 -43 -1z" />
    <path d="M1252 2558 c-16 -16 -15 -38 1 -38 17 0 37 20 37 37 0 16 -22 17 -38
1z" />
    <path d="M890 2520 c0 -11 5 -20 10 -20 6 0 10 -7 10 -15 0 -8 7 -15 15 -15 8
0 15 7 15 15 0 8 -4 15 -10 15 -5 0 -10 9 -10 20 l0 20 -15 0 -15 0 0 -20z" />
    <path d="M1202 2498 c-16 -16 -15 -38 1 -38 17 0 37 20 37 37 0 16 -22 17 -38
1z" />
    <path d="M960 2447 c0 -16 32 -47 48 -47 18 0 14 25 -6 43 -22 20 -42 22 -42
4z" />
    <path d="M1136 2419 l-28 -31 -39 6 -39 6 0 -14 c0 -17 21 -26 59 -26 l28 0
36 31 c37 32 48 59 24 59 -8 0 -26 -14 -41 -31z" />
    <path d="M1233 1324 c-7 -3 -13 -11 -13 -17 0 -7 -10 -17 -22 -22 -26 -12 -45
-41 -35 -52 11 -10 40 9 52 35 l10 22 33 6 33 6 19 -17 20 -18 0 -27 c0 -15
-7 -33 -15 -40 -19 -16 -19 -40 -1 -40 23 0 46 41 46 81 l0 37 -18 22 -17 21
-40 4 c-22 3 -46 2 -52 -1z" />
    <path d="M1122 1208 c-16 -16 -15 -38 1 -38 17 0 37 20 37 37 0 16 -22 17 -38
1z" />
    <path d="M915 1175 c-26 -25 -33 -55 -14 -55 6 0 20 12 32 26 l20 26 35 -6 35
-5 14 -21 15 -21 26 3 27 3 3 18 4 19 -19 -3 c-21 -2 -53 10 -71 28 -7 7 -29
13 -48 13 l-35 0 -24 -25z" />
    <path d="M1262 1138 c-16 -16 -15 -38 1 -38 17 0 37 20 37 37 0 16 -22 17 -38
1z" />
    <path d="M890 1087 c0 -20 30 -57 46 -57 19 0 17 20 -5 48 -21 24 -41 29 -41
9z" />
    <path d="M1207 1072 c-20 -22 -22 -42 -4 -42 16 0 47 32 47 48 0 18 -25 14
-43 -6z" />
    <path d="M970 1007 c0 -14 31 -47 44 -47 4 0 14 -7 22 -15 9 -8 22 -15 30 -15
22 0 16 28 -8 36 -12 4 -31 17 -41 30 -20 26 -47 32 -47 11z" />
    <path d="M1152 1008 c-7 -7 -12 -17 -12 -24 0 -6 -11 -15 -25 -18 l-25 -6 0
-15 c0 -8 4 -15 9 -15 19 0 41 13 41 24 0 6 10 16 22 21 13 6 24 18 26 28 l3
17 -13 0 c-8 0 -19 -5 -26 -12z" />
    <path d="M3860 5096 c0 -13 20 -26 41 -26 15 0 10 27 -7 34 -24 9 -34 7 -34
-8z" />
    <path d="M3940 5057 c0 -8 12 -20 27 -28 15 -8 42 -31 61 -51 35 -38 62 -49
62 -25 0 13 -60 77 -73 77 -4 0 -16 9 -27 20 -23 23 -50 26 -50 7z" />
    <path d="M4122 4868 c2 -7 13 -41 23 -75 l20 -63 14 0 14 0 -7 33 c-3 17 -14
51 -23 75 l-16 42 -14 0 c-8 0 -13 -6 -11 -12z" />
    <path d="M4170 4295 l0 -414 -50 -115 c-27 -63 -50 -123 -50 -133 l0 -18 158
-67 c86 -37 219 -95 295 -128 75 -33 141 -60 145 -60 4 0 25 42 46 93 22 50
57 128 78 172 21 43 38 83 38 87 0 12 -28 10 -32 -2 l-3 -11 -289 126 c-158
69 -292 125 -297 125 l-9 0 0 380 0 380 -15 0 -15 0 0 -415z" />
    <path d="M4596 3244 c-9 -24 -7 -34 8 -34 13 0 26 20 26 41 0 15 -27 10 -34
-7z" />
    <path d="M4356 2694 c-9 -24 -7 -34 8 -34 13 0 26 20 26 41 0 15 -27 10 -34
-7z" />
    <path d="M4176 2278 c-3 -13 -6 -438 -6 -945 l0 -923 15 0 15 0 0 923 c0 507
3 932 6 945 l6 22 -15 0 c-8 0 -17 -10 -21 -22z" />
    <path d="M3451 614 c-62 -133 -97 -174 -341 -399 -118 -108 -217 -201 -219
-207 l-3 -10 148 4 149 3 68 34 69 33 58 58 58 58 30 64 c41 85 52 155 52 320
l0 138 -13 0 c-7 0 -32 -43 -56 -96z" />
    <path d="M4160 374 c0 -22 -51 -148 -62 -152 -14 -6 -9 -32 7 -32 8 0 15 7 15
15 0 8 4 15 9 15 10 0 48 95 58 142 l6 28 -17 0 -16 0 0 -16z" />
    <path d="M4028 143 c-19 -21 -46 -44 -61 -52 -29 -15 -37 -41 -12 -41 8 0 24
9 35 20 11 11 24 20 28 20 13 0 72 64 72 78 0 23 -28 12 -62 -25z" />
    <path d="M3820 15 l0 -15 20 0 20 0 0 15 0 15 -20 0 -20 0 0 -15z" />
  </g>
  <g transform="translate(0.000000,512.000000) scale(0.100000,-0.100000)" fill="#ffffff00" stroke="none">
    <path d="M0 2560 l0 -2560 278 1 277 1 -50 12 c-157 40 -288 163 -336 317
l-19 61 0 2168 0 2168 19 61 c48 153 181 278 336 317 l50 12 -277 1 -278 1 0
-2560z" />
    <path d="M3794 5109 l-7 -12 26 5 26 5 -6 -10 -6 -10 26 5 26 5 -6 -10 -6 -10
17 6 c9 4 15 3 12 -2 -7 -11 43 -33 56 -25 l11 7 -8 -13 -8 -13 16 6 16 6 7
-11 7 -11 -14 8 -14 9 14 -18 c8 -9 20 -15 26 -12 15 5 79 -57 69 -67 -10 -10
17 -38 29 -30 l10 6 -7 -11 c-9 -15 12 -54 24 -47 l10 6 -7 -17 -6 -17 13 8
13 8 -7 -12 c-10 -15 3 -53 15 -45 l10 6 -7 -28 -7 -27 11 7 11 6 -6 -36 -6
-37 11 7 12 7 0 -397 0 -397 21 27 21 27 -6 15 c-3 8 -2 13 3 10 12 -8 35 50
25 65 l-7 12 10 -6 10 -7 33 74 32 75 -8 12 -7 12 10 -6 9 -6 27 55 c15 30 24
61 21 67 -4 7 -4 9 1 5 4 -4 30 12 57 37 l49 44 57 21 56 21 77 -3 c42 -2 75
-6 73 -9 -2 -4 10 -12 27 -20 18 -7 44 -23 60 -36 l29 -24 11 7 12 7 -7 -12
-8 -12 17 -19 c10 -11 22 -17 28 -13 l10 6 -6 -10 c-4 -6 2 -30 12 -54 11 -24
23 -72 28 -106 l10 -62 -10 6 -10 6 5 -31 c2 -17 1 -29 -2 -27 -4 2 -17 -20
-29 -50 l-23 -54 8 -12 7 -12 -10 6 -11 7 -12 -30 c-6 -16 -9 -34 -4 -41 l7
-12 -10 6 -10 7 -33 -74 -32 -75 8 -12 7 -12 -10 6 c-6 4 -14 0 -17 -9 l-6
-15 13 7 12 8 -11 -15 c-6 -8 -40 -79 -75 -159 -35 -80 -69 -151 -77 -159 -7
-8 -11 -22 -9 -33 3 -10 2 -16 -3 -13 -11 7 -33 -52 -24 -66 l7 -12 -13 8 -13
8 6 -17 7 -17 -9 5 c-12 8 -35 -50 -25 -65 l7 -12 -10 6 -11 7 -12 -30 c-6
-16 -9 -34 -4 -41 l7 -12 -10 6 -10 6 -18 -38 -17 -39 7 -13 8 -12 -10 6 -11
7 -12 -30 c-6 -16 -9 -34 -4 -41 l7 -12 -10 6 -10 6 -18 -38 -17 -39 7 -13 8
-12 -10 6 -11 7 -12 -30 c-6 -16 -9 -34 -4 -41 l7 -12 -10 6 -11 7 -12 -30
c-6 -16 -9 -34 -4 -41 l7 -12 -13 8 -13 8 6 -17 7 -17 -9 5 c-12 8 -35 -50
-25 -65 l7 -12 -10 6 -11 7 -12 -30 c-6 -16 -9 -34 -4 -41 l7 -12 -10 6 -10 6
-18 -38 -17 -39 7 -13 8 -12 -10 6 -11 7 -12 -30 c-6 -16 -9 -34 -4 -41 l7
-12 -10 6 -10 6 -18 -38 -17 -39 7 -13 8 -12 -9 6 -9 5 3 -935 2 -934 -11 7
-12 7 6 -37 6 -36 -11 6 -11 7 5 -21 6 -22 -11 7 -10 6 5 -21 6 -22 -11 7 -10
6 5 -21 6 -22 -11 7 -10 6 6 -17 7 -17 -12 7 -11 7 6 -16 6 -17 -12 3 -12 2 1
-17 c1 -10 -2 -16 -6 -13 -10 6 -35 -24 -26 -32 10 -10 -54 -72 -69 -67 -6 3
-18 -3 -26 -12 l-14 -18 14 9 14 8 -7 -11 -7 -11 -16 6 -16 6 8 -13 8 -13 -11
7 c-6 3 -22 1 -36 -5 l-25 -12 6 -10 6 -10 -12 7 c-15 9 -53 -3 -46 -15 l6 -9
-32 7 -32 6 7 -11 7 -12 660 0 659 0 0 2560 0 2560 -659 0 -660 0 -7 -11z" />
    <path d="M1256 4179 l7 -11 -20 6 -19 6 -23 -24 c-13 -14 -20 -29 -17 -34 3
-5 -1 -15 -9 -22 -8 -7 -15 -9 -15 -5 0 4 -7 2 -15 -5 -9 -7 -14 -19 -11 -26
3 -7 -2 -18 -10 -24 -8 -7 -14 -9 -14 -5 0 4 -7 2 -15 -5 -9 -7 -14 -18 -11
-25 7 -20 -23 -13 -41 9 l-18 21 25 -20 25 -20 -24 28 -25 27 -19 -6 -20 -6 7
11 7 11 -20 0 c-28 0 -52 -11 -45 -21 l5 -9 -17 7 -17 6 6 -17 7 -17 -9 5
c-10 7 -21 -17 -21 -45 l0 -20 11 7 11 7 -6 -20 -6 -19 24 -23 c14 -13 29 -20
34 -17 5 3 18 -4 28 -17 l19 -22 -25 20 -25 20 35 -38 34 -37 14 5 c7 2 11 1
8 -3 -2 -4 16 -7 40 -7 l44 1 35 34 c20 19 33 40 31 46 -3 7 2 18 10 24 8 7
14 9 14 5 0 -5 9 0 20 10 12 10 19 24 16 31 -3 7 2 18 10 24 8 7 14 9 14 5 0
-4 7 -2 15 5 9 7 14 19 11 26 -3 7 3 18 12 26 l17 13 -15 -20 -15 -20 23 19
22 19 -6 20 -6 20 11 -7 11 -7 0 24 c0 13 -9 36 -21 51 l-21 27 -20 -7 -21 -6
7 11 7 11 -21 0 -21 0 7 -11z" />
    <path d="M1266 2749 l7 -11 -23 7 -23 7 7 -11 7 -11 -14 6 c-16 6 -42 -21 -33
-34 3 -6 -1 -15 -9 -22 -8 -7 -15 -9 -15 -5 0 4 -7 2 -15 -5 -9 -7 -14 -19
-11 -26 2 -7 -5 -20 -17 -31 l-22 -18 20 25 20 25 -33 -30 c-18 -16 -30 -35
-28 -41 3 -7 -1 -11 -7 -10 -20 3 -38 17 -32 26 8 12 -23 33 -40 26 l-16 -6 6
10 6 10 -21 0 -21 0 7 -11 7 -11 -21 6 -20 7 -21 -27 c-12 -15 -21 -38 -21
-51 l0 -24 10 6 10 6 -3 -23 -2 -23 13 3 c8 1 11 -2 8 -6 -7 -12 30 -46 42
-38 5 3 18 -4 28 -17 l19 -22 -25 20 -25 20 30 -33 29 -33 14 6 13 5 -7 -11
-7 -11 23 7 23 7 -7 -11 -7 -11 16 0 16 0 -7 11 -7 11 23 -7 23 -7 -7 11 -7
11 17 -7 17 -6 -6 15 -6 16 22 19 22 18 -20 -25 -20 -25 33 30 c18 16 30 35
28 41 -3 7 2 18 10 24 8 7 14 9 14 5 0 -4 7 -2 15 5 9 7 14 19 11 26 -3 7 2
18 10 24 8 7 14 9 14 5 0 -5 9 0 20 10 12 10 19 24 16 31 -3 7 3 18 12 26 l17
13 -15 -20 -15 -20 18 14 17 14 -6 20 -6 20 11 -7 11 -7 0 24 c0 13 -9 36 -21
51 l-21 27 -20 -7 -21 -6 7 11 7 11 -16 0 -16 0 7 -11z" />
    <path d="M1236 1309 c2 -4 -4 -6 -14 -5 l-17 1 0 -17 c0 -10 -9 -25 -20 -35
l-19 -18 19 25 20 25 -33 -30 c-18 -16 -30 -35 -28 -41 3 -7 -2 -18 -10 -24
-8 -7 -14 -9 -14 -5 0 4 -7 2 -15 -5 -8 -7 -14 -19 -13 -28 l3 -15 -17 -2 c-9
-2 -23 4 -30 13 l-13 17 20 -15 20 -15 -19 23 -20 23 -13 -6 c-8 -2 -12 -1 -9
3 2 4 -16 7 -41 7 l-46 -1 -18 -23 c-11 -13 -19 -36 -19 -52 l0 -29 37 -40 36
-41 13 5 c7 2 20 -5 31 -17 l18 -22 -25 20 -25 20 25 -28 24 -28 14 6 13 5 -6
-10 c-3 -5 5 -12 19 -16 28 -7 69 3 61 16 -3 4 3 7 13 6 l17 -1 0 15 c1 21 15
41 25 35 11 -6 33 22 26 33 -3 5 4 18 17 28 l22 19 -20 -25 -20 -25 33 30 c18
16 30 35 28 41 -3 7 2 18 10 24 8 7 14 9 14 5 0 -4 7 -2 15 5 9 7 14 19 11 26
-3 7 3 18 12 26 l17 13 -15 -20 -15 -20 18 14 17 14 -6 20 -6 20 11 -7 11 -7
0 21 0 21 -11 -7 -11 -7 6 20 6 20 -16 14 -17 14 -43 0 c-23 0 -41 -2 -38 -6z" />
  </g>
  <g transform="translate(0.000000,512.000000) scale(0.100000,-0.100000)" fill="#bed8fa" stroke="none">
    <path d="M710 4458 c-18 -13 -43 -36 -54 -51 l-21 -28 0 -389 0 -389 21 -27
c11 -15 33 -37 48 -48 l27 -21 394 0 394 0 27 21 c15 11 37 33 48 48 l21 27 0
389 0 389 -21 28 c-11 15 -36 38 -54 51 l-33 22 -382 0 -382 0 -33 -22z m615
-303 l25 -24 0 -29 0 -28 -111 -132 -111 -132 -25 -6 c-34 -9 -58 4 -135 76
l-68 62 0 29 0 30 25 24 24 25 28 0 28 0 37 -30 36 -30 38 48 c21 26 59 68 83
95 l44 47 29 0 29 0 24 -25z" />
    <path d="M710 3028 c-18 -13 -43 -36 -54 -51 l-21 -28 0 -389 0 -389 21 -28
c11 -15 36 -38 54 -51 l34 -23 387 3 388 3 27 21 c15 11 37 33 48 48 l21 27 0
389 0 389 -21 28 c-11 15 -36 38 -54 51 l-33 22 -382 0 -382 0 -33 -22z m615
-303 l25 -24 0 -29 0 -30 -110 -130 c-150 -179 -153 -179 -292 -46 l-48 46 0
29 0 30 25 24 24 25 24 0 c13 0 42 -13 65 -29 l40 -30 63 76 c76 90 104 113
136 113 l24 0 24 -25z" />
    <path d="M725 1606 c-17 -7 -43 -27 -57 -45 l-27 -31 -6 -43 c-3 -23 -5 -200
-3 -394 l3 -352 21 -28 c11 -15 36 -38 54 -50 l33 -23 382 0 382 0 33 23 c18
12 43 35 54 50 l21 28 0 389 0 389 -21 27 c-11 15 -33 37 -48 48 l-27 21 -382
2 -382 3 -30 -14z m608 -317 c9 -12 17 -34 17 -50 l0 -28 -110 -130 -111 -131
-26 -6 -26 -7 -31 17 c-17 9 -57 41 -88 71 l-58 53 0 32 0 31 25 24 24 25 24
0 c13 0 42 -13 65 -30 l41 -29 66 79 c37 44 77 87 88 96 l22 15 30 -6 c17 -3
38 -15 48 -26z" />
  </g>
  <g transform="translate(0.000000,512.000000) scale(0.100000,-0.100000)" fill="#e0dce0" stroke="none">
    <path d="M3153 5105 c27 -7 73 -26 104 -41 l56 -27 57 -57 58 -58 30 -64 c17
-34 36 -92 42 -128 l11 -65 -3 -208 -3 -207 100 0 101 0 22 -16 c12 -8 27 -24
32 -35 l11 -19 -12 -22 c-7 -13 -19 -28 -28 -35 l-16 -12 -105 -1 -105 0 0
-120 0 -120 102 0 c117 0 129 -3 147 -39 l14 -26 -8 -21 c-5 -12 -19 -29 -32
-38 l-22 -16 -101 0 -100 0 0 -455 0 -456 114 3 114 3 164 375 c90 206 172
400 183 430 10 30 37 97 59 148 l41 93 0 429 0 428 -19 61 c-50 160 -187 286
-349 320 l-53 11 -327 -1 -327 -1 48 -13z" />
    <path d="M2009 4241 c-13 -11 -21 -22 -17 -26 4 -4 14 0 23 9 9 9 21 16 26 16
5 0 9 5 9 10 0 15 -15 12 -41 -9z" />
    <path d="M1980 3781 c0 -5 9 -19 20 -32 l19 -24 1 18 c0 9 -4 17 -10 17 -5 0
-10 7 -10 15 0 8 -4 15 -10 15 -5 0 -10 -4 -10 -9z" />
    <path d="M1994 2795 c-9 -14 -14 -28 -11 -32 7 -6 46 36 47 50 0 16 -20 6 -36
-18z" />
    <path d="M3505 2560 l0 -120 30 0 30 0 48 110 c26 60 47 114 47 120 l0 10 -77
0 -78 0 0 -120z" />
    <path d="M1980 2351 c0 -5 9 -19 20 -32 l19 -24 0 15 c0 16 -22 50 -33 50 -3
0 -6 -4 -6 -9z" />
    <path d="M3835 1494 l-330 -756 4 -142 3 -141 -12 -65 c-6 -36 -25 -94 -42
-128 l-30 -64 -58 -58 -57 -57 -56 -27 c-31 -15 -77 -34 -104 -41 l-48 -13
327 -1 327 -1 53 11 c162 34 299 160 349 320 l19 61 0 929 c0 511 -3 929 -7
929 -5 0 -156 -340 -338 -756z" />
    <path d="M1997 1370 c-19 -28 -21 -40 -7 -40 6 0 10 6 10 14 0 8 5 16 12 18 6
2 9 10 6 18 l-4 14 -17 -24z" />
    <path d="M1990 900 c0 -14 49 -44 58 -35 4 4 1 10 -6 12 -7 3 -19 11 -26 19
-17 16 -26 18 -26 4z" />
    <path d="M2800 205 l0 -95 10 0 10 0 0 95 0 95 -10 0 -10 0 0 -95z" />
  </g>
  <g transform="translate(0.000000,512.000000) scale(0.100000,-0.100000)" fill="#df7e83" stroke="none">
    <path d="M4051 3588 c-131 -305 -304 -696 -347 -784 -30 -62 -54 -117 -54
-124 0 -14 -90 -223 -99 -230 -8 -6 -56 -115 -66 -150 -12 -42 -343 -796 -406
-927 -32 -67 -59 -129 -59 -136 0 -15 -37 -101 -105 -242 -43 -88 -85 -202
-85 -227 l0 -13 104 -44 c58 -24 110 -41 117 -39 7 2 291 641 630 1419 l618
1414 20 -3 c48 -7 14 16 -81 57 -57 24 -118 50 -136 57 l-33 14 -18 -42z" />
    <path d="M4400 3475 c0 -7 5 -15 11 -17 l11 -4 -617 -1412 c-339 -777 -615
-1420 -613 -1428 l3 -16 100 -44 c126 -55 116 -57 158 33 44 97 1208 2765
1210 2776 1 5 -58 35 -130 67 l-133 58 0 -13z" />
  </g>
  <g transform="translate(0.000000,512.000000) scale(0.100000,-0.100000)" fill="#808080" stroke="none">
    <path d="M2025 4248 c-30 -17 -44 -40 -45 -71 l0 -28 25 -24 24 -25 848 0 848
1 16 12 c45 35 49 79 10 118 l-29 29 -839 0 -838 -1 -20 -11z" />
    <path d="M2005 3858 l-27 -21 5 -38 c3 -21 13 -46 23 -56 l18 -18 844 -3 845
-2 24 15 c13 9 28 28 34 42 l10 27 -12 28 c-6 16 -20 33 -30 38 l-18 10 -844
0 -844 0 -28 -22z" />
    <path d="M2006 2799 c-31 -37 -33 -67 -5 -103 l20 -26 817 -2 818 -3 36 83 36
82 -848 0 -848 0 -26 -31z" />
    <path d="M2001 2424 c-31 -40 -21 -96 23 -126 6 -4 340 -8 741 -8 l730 0 16
43 c9 23 24 59 33 80 l16 37 -769 0 -770 0 -20 -26z" />
    <path d="M2036 1393 c-31 -8 -48 -31 -53 -71 l-5 -37 22 -20 22 -20 504 -5
504 -5 31 70 c17 39 34 76 36 83 l5 12 -523 -1 c-288 -1 -533 -4 -543 -6z" />
    <path d="M2005 995 l-25 -24 0 -28 c1 -32 15 -55 47 -71 l22 -12 409 0 409 0
36 80 36 80 -455 0 -455 0 -24 -25z" />
  </g>
  <g transform="translate(0.000000,512.000000) scale(0.100000,-0.100000)" fill="#db636e" stroke="none">
    <path d="M4293 3518 c-10 -14 -1233 -2812 -1240 -2839 l-4 -15 63 -27 c35 -15
68 -27 73 -27 10 0 1250 2831 1250 2853 0 7 -6 11 -12 10 -7 -2 -13 1 -13 6 0
10 -69 37 -82 33 -5 -1 -8 3 -8 8 0 14 -16 12 -27 -2z" />
  </g>
  <g transform="translate(0.000000,512.000000) scale(0.100000,-0.100000)" fill="#eed133" stroke="none">
    <path d="M4534 4449 c-62 -24 -126 -77 -158 -132 -42 -72 -167 -370 -159 -377
4 -5 138 -64 296 -133 l288 -125 14 28 c42 81 147 336 156 381 l11 51 -7 46
c-3 26 -17 70 -31 98 l-24 51 -48 45 -48 45 -57 22 -58 21 -62 -1 -62 0 -51
-20z" />
  </g>
  <g transform="translate(0.000000,512.000000) scale(0.100000,-0.100000)" fill="#a87f7f" stroke="none">
    <path d="M2826 770 c-2 -8 -9 -40 -15 -70 l-10 -55 3 -308 3 -308 19 -14 c37
-28 83 -11 147 56 13 13 63 60 112 104 49 44 98 89 109 100 12 11 47 43 79 72
97 86 162 177 130 180 -18 2 -54 17 -203 85 -41 19 -90 40 -107 47 -18 8 -33
18 -33 23 0 5 -4 7 -9 4 -11 -7 -203 73 -213 88 l-7 10 -5 -14z" />
  </g>
  <g transform="translate(0.000000,512.000000) scale(0.100000,-0.100000)" fill="#b6b5b6" stroke="none">
    <path d="M3553 3723 c32 -2 81 -2 110 0 29 2 3 3 -58 3 -60 0 -84 -1 -52 -3z" />
    <path d="M2412 2823 c201 -2 534 -2 740 0 205 1 40 2 -367 2 -407 0 -575 -1
-373 -2z" />
    <path d="M2052 2295 c6 -6 1439 -7 1446 0 3 3 -322 5 -723 5 -401 0 -726 -2
-723 -5z" />
  </g>
  <g transform="translate(0.000000,512.000000) scale(0.100000,-0.100000)" fill="#c1bec0" stroke="none">
    <path d="M2413 3723 c202 -2 532 -2 735 0 202 1 36 2 -368 2 -404 0 -570 -1
-367 -2z" />
    <path d="M2575 1400 l-530 -5 527 -3 527 -2 6 10 c3 6 5 9 3 8 -2 -2 -241 -5
-533 -8z" />
  </g>
  <g transform="translate(0.000000,512.000000) scale(0.100000,-0.100000)" fill="#a6a5a6" stroke="none">
    <path d="M2473 4253 c230 -2 604 -2 830 0 227 1 39 2 -418 2 -456 0 -642 -1
-412 -2z" />
    <path d="M3558 2823 c29 -2 74 -2 100 0 26 2 2 3 -53 3 -55 0 -76 -1 -47 -3z" />
    <path d="M2200 863 c370 -7 670 -7 670 0 0 4 -183 6 -407 5 -225 -1 -343 -4
-263 -5z" />
  </g>
  <g transform="translate(0.000000,512.000000) scale(0.100000,-0.100000)" fill="#969696" stroke="none">
    <path d="M2463 4103 c229 -2 605 -2 835 0 229 1 41 2 -418 2 -459 0 -647 -1
-417 -2z" />
    <path d="M2490 1020 l-445 -5 448 -3 447 -2 0 10 c0 6 -1 9 -2 8 -2 -2 -203
-5 -448 -8z" />
  </g>
  <g transform="translate(0.000000,512.000000) scale(0.100000,-0.100000)" fill="#f1e6e4" stroke="none" />
  <g transform="translate(0.000000,512.000000) scale(0.100000,-0.100000)" fill="#dd737b" stroke="none" />
  <g transform="translate(0.000000,512.000000) scale(0.100000,-0.100000)" fill="#dc6c75" stroke="none" />
  <g transform="translate(0.000000,512.000000) scale(0.100000,-0.100000)" fill="#e0888d" stroke="none" />
  <g transform="translate(0.000000,512.000000) scale(0.100000,-0.100000)" fill="#e1c7ca" stroke="none">
    <path d="M2804 415 c0 -72 1 -99 3 -62 2 37 2 96 0 130 -2 34 -3 4 -3 -68z" />
  </g>
  <g transform="translate(0.000000,512.000000) scale(0.100000,-0.100000)" fill="#e59da2" stroke="none" />
  <g transform="translate(0.000000,512.000000) scale(0.100000,-0.100000)" fill="#e4b1b4" stroke="none" />
  <g transform="translate(0.000000,512.000000) scale(0.100000,-0.100000)" fill="#f5e69c" stroke="none" />
  <g transform="translate(0.000000,512.000000) scale(0.100000,-0.100000)" fill="#e6bbbe" stroke="none" />
  <g transform="translate(0.000000,512.000000) scale(0.100000,-0.100000)" fill="#f2dd70" stroke="none" />
  <g transform="translate(0.000000,512.000000) scale(0.100000,-0.100000)" fill="#f1d1d4" stroke="none" />
  <g transform="translate(0.000000,512.000000) scale(0.100000,-0.100000)" fill="#bc9f9f" stroke="none" />
</svg>