<svg width="512.000000pt" height="512.000000pt" viewBox="0 0 512.000000 512.000000" xmlns="http://www.w3.org/2000/svg">
  <g transform="translate(0.000000,512.000000) scale(0.100000,-0.100000)" fill="#ffffff00" stroke="none">
    <path d="M0 2560 l0 -2560 2560 0 2560 0 0 2560 0 2560 -2560 0 -2560 0 0
-2560z m2367 1968 l23 -21 0 -164 0 -163 15 0 c8 0 82 27 163 59 168 67 285
103 417 128 l90 18 260 0 260 0 115 -23 c63 -13 167 -42 230 -64 63 -22 125
-42 137 -45 l21 -5 25 84 c14 45 29 95 32 111 l7 27 77 0 77 0 51 -172 50
-173 84 -17 c46 -10 156 -23 244 -29 l160 -11 23 -21 22 -20 0 -26 c0 -13 -10
-35 -22 -48 l-21 -23 -98 0 c-54 0 -151 7 -215 15 -64 9 -119 14 -121 11 -2
-2 14 -64 36 -138 l41 -134 0 -191 0 -191 15 -6 c9 -3 88 -11 178 -17 l162
-11 23 -21 22 -20 0 -27 0 -27 -25 -23 -25 -23 -147 6 c-82 4 -160 10 -175 13
l-28 6 0 -325 0 -325 15 -6 c9 -3 88 -11 178 -17 l162 -11 23 -21 22 -20 0
-27 0 -27 -25 -23 -25 -23 -147 6 c-82 4 -160 10 -175 13 l-28 6 0 -714 0
-714 -15 -52 -16 -52 -43 -53 -42 -52 -59 -30 -59 -30 -75 0 -76 0 -47 22
c-60 27 -133 101 -161 161 l-22 47 -5 835 -5 835 -55 19 c-98 32 -231 55 -390
67 -143 10 -194 9 -382 -7 l-68 -6 0 -219 0 -219 -21 -45 c-39 -83 -119 -135
-209 -135 l-50 0 -45 21 c-181 85 -180 333 3 419 l47 22 67 -4 68 -5 0 63 0
64 -18 0 c-32 0 -123 -31 -297 -100 -187 -75 -304 -111 -440 -137 l-90 -18
-260 0 -260 0 -90 18 c-148 30 -231 55 -425 132 -160 64 -342 125 -371 125
l-9 0 0 -210 0 -210 -21 -45 c-39 -83 -119 -135 -209 -135 l-50 0 -45 21
c-181 85 -180 333 3 419 l47 22 68 -5 68 -4 -3 86 -3 86 -135 8 -135 8 -23 21
-22 21 0 27 0 27 25 23 24 23 136 -5 135 -5 0 141 0 140 22 23 21 23 26 0 c13
0 35 -10 48 -22 l23 -21 0 -153 0 -153 43 -11 c106 -27 225 -67 384 -131 181
-72 313 -110 453 -130 l85 -12 195 0 195 0 106 17 c140 22 250 54 433 128 83
34 198 76 256 94 l105 32 3 160 2 159 23 21 22 21 322 80 c358 90 357 90 390
59 l23 -21 0 -27 0 -27 -22 -21 -23 -21 -295 -73 -295 -74 -3 -100 -3 -99 283
0 283 0 90 -18 c50 -10 122 -27 161 -37 38 -11 73 -20 77 -20 4 0 7 144 7 320
l0 319 -17 10 c-35 17 -170 51 -274 67 l-104 16 -200 1 -200 0 -106 -17 c-142
-22 -249 -54 -453 -136 -188 -75 -304 -111 -441 -137 l-90 -18 -260 0 -260 0
-90 18 c-142 28 -252 62 -422 131 -287 115 -389 140 -633 157 l-165 11 -23 21
-22 20 0 27 0 27 25 23 24 23 143 -6 c230 -9 375 -42 636 -144 155 -61 161
-61 144 -4 -37 122 13 238 126 291 l47 22 67 -4 68 -5 0 103 0 104 -27 6
c-136 29 -254 66 -412 128 -302 120 -384 140 -631 157 l-165 11 -22 21 -23 20
0 27 0 27 25 23 24 23 143 -6 c242 -10 376 -42 681 -162 158 -63 355 -125 396
-125 l11 0 0 123 0 124 23 21 24 22 389 79 c214 44 404 79 423 80 l35 1 23
-22z" />
    <path d="M1915 4324 c-170 -34 -313 -63 -317 -64 -5 0 -8 -40 -8 -89 l0 -88
108 -7 107 -7 135 10 c74 6 174 18 222 27 l88 16 0 134 0 134 -12 -1 c-7 -1
-152 -30 -323 -65z" />
    <path d="M3205 4244 c-236 -17 -361 -48 -622 -151 l-193 -77 0 -193 0 -193
-21 -45 c-39 -83 -119 -135 -209 -135 l-50 0 -45 21 c-181 85 -180 333 3 419
l47 22 67 -4 68 -5 0 33 0 34 -17 -1 c-10 0 -52 -7 -93 -15 l-75 -15 -237 -6
-238 -5 0 -229 0 -229 -21 -45 c-12 -25 -39 -60 -60 -79 -22 -18 -39 -38 -39
-44 l0 -10 88 -8 c48 -5 164 -8 257 -7 l170 1 106 16 c141 22 248 54 454 136
189 76 304 112 440 137 l90 18 260 0 260 0 90 -18 c50 -10 122 -27 161 -37 38
-11 73 -20 77 -20 4 0 7 39 7 88 l0 87 60 199 c33 110 60 205 60 211 0 13
-126 64 -237 95 -134 39 -443 66 -608 54z" />
    <path d="M2120 3757 c-14 -7 -31 -25 -38 -40 l-13 -28 6 -28 c3 -16 15 -37 26
-47 l21 -19 40 1 40 1 20 21 21 20 1 41 1 41 -20 20 c-11 11 -34 22 -50 25
l-30 6 -25 -14z" />
    <path d="M1320 3597 c-14 -7 -31 -25 -38 -40 l-13 -28 6 -28 c3 -16 15 -37 26
-47 l21 -19 40 1 40 1 20 21 21 20 1 41 1 41 -20 20 c-11 11 -34 22 -50 25
l-30 6 -25 -14z" />
    <path d="M360 2317 c-14 -7 -31 -25 -38 -40 l-13 -28 6 -28 c3 -16 15 -37 26
-47 l21 -19 40 1 40 1 20 21 21 20 1 41 1 41 -20 20 c-11 11 -34 22 -50 25
l-30 6 -25 -14z" />
    <path d="M2760 2317 c-14 -7 -31 -25 -38 -40 l-13 -28 6 -28 c3 -16 15 -37 26
-47 l21 -19 40 1 40 1 20 21 21 20 1 41 1 41 -20 20 c-11 11 -34 22 -50 25
l-30 6 -25 -14z" />
  </g>
  <g transform="translate(0.000000,512.000000) scale(0.100000,-0.100000)" fill="#a3d3f6" stroke="none">
    <path d="M183 4378 l-23 -24 0 -35 0 -36 23 -20 22 -21 165 -11 c246 -17 329
-37 631 -157 167 -66 306 -109 412 -128 l37 -7 0 84 0 85 -92 22 c-51 12 -183
58 -293 101 -328 128 -453 157 -705 166 l-155 5 -22 -24z" />
    <path d="M3095 4394 c-218 -31 -311 -56 -542 -146 l-162 -63 -1 -87 0 -88 11
0 c5 0 88 31 183 69 206 83 313 115 455 137 l106 16 190 0 190 0 104 -16 c125
-19 217 -44 337 -91 48 -19 89 -34 90 -32 1 1 9 29 18 62 8 33 18 69 21 80 l6
20 -103 37 c-137 49 -158 55 -274 79 l-99 21 -250 3 c-137 2 -263 1 -280 -1z" />
    <path d="M2160 4118 c-47 -10 -148 -22 -224 -28 l-139 -10 -104 6 -103 7 0
-88 0 -87 238 5 237 5 90 17 c108 20 96 6 93 106 l-3 84 -85 -17z" />
    <path d="M4420 4119 c0 -18 41 -153 49 -162 13 -14 223 -37 337 -37 l111 0 21
23 22 23 0 35 0 36 -22 20 -23 21 -155 11 c-86 6 -192 17 -235 26 -96 18 -105
18 -105 4z" />
    <path d="M2223 3715 c18 -38 36 -31 21 9 -3 9 -12 16 -19 16 l-13 0 11 -25z" />
    <path d="M2225 3648 c-6 -13 -20 -27 -32 -33 -26 -11 -30 -25 -8 -25 18 0 65
47 65 65 0 22 -14 18 -25 -7z" />
    <path d="M2100 3615 c0 -7 7 -16 16 -19 40 -15 47 3 9 21 l-25 11 0 -13z" />
    <path d="M183 3578 l-23 -24 0 -35 0 -36 23 -20 22 -21 165 -11 c244 -17 346
-42 633 -157 170 -69 280 -103 422 -131 l90 -18 270 0 270 0 90 18 c137 26
253 62 441 137 204 82 311 114 453 136 l106 16 190 0 190 0 106 -16 c93 -14
228 -48 282 -71 l17 -7 0 90 0 91 -57 16 c-32 10 -103 26 -158 38 l-100 21
-275 0 -275 1 -90 -18 c-136 -26 -251 -61 -440 -137 -206 -82 -313 -114 -454
-136 l-106 -16 -160 -1 c-88 -1 -200 2 -248 7 l-88 8 12 14 11 14 -16 0 c-9 0
-16 -4 -16 -8 0 -13 -71 -32 -116 -32 -67 1 -184 68 -184 107 l0 13 -22 -2
c-13 -1 -81 21 -153 49 -251 99 -398 132 -635 140 l-155 5 -22 -24z" />
    <path d="M1423 3555 c18 -38 36 -31 21 9 -3 9 -12 16 -19 16 l-13 0 11 -25z" />
    <path d="M1425 3488 c-6 -13 -20 -27 -32 -33 -26 -11 -30 -25 -8 -25 18 0 65
47 65 65 0 22 -14 18 -25 -7z" />
    <path d="M1300 3455 c0 -7 7 -16 16 -19 40 -15 47 3 9 21 l-25 11 0 -13z" />
    <path d="M4550 3227 l0 -85 23 -6 c12 -4 93 -10 180 -13 l158 -6 24 23 25 23
0 37 0 37 -22 20 -23 21 -160 11 c-88 6 -170 14 -182 17 l-23 6 0 -85z" />
    <path d="M182 2777 l-22 -23 0 -35 0 -36 23 -20 22 -21 120 -7 c66 -3 130 -8
143 -11 l22 -4 0 84 0 84 -31 6 c-17 3 -82 6 -144 6 l-112 0 -21 -23z" />
    <path d="M3078 2793 l-48 -4 0 -85 0 -86 88 8 c48 5 159 8 247 7 l160 -2 106
-16 c93 -13 227 -47 282 -70 l17 -7 0 90 0 91 -57 16 c-32 10 -101 26 -153 37
l-95 20 -250 3 c-137 1 -271 1 -297 -2z" />
    <path d="M630 2683 l0 -89 24 -2 c41 -3 184 -52 349 -118 170 -69 280 -103
422 -131 l90 -18 270 0 270 0 90 18 c137 26 252 62 455 143 102 40 209 79 238
85 l52 12 0 89 0 89 -17 -5 c-137 -39 -193 -58 -339 -116 -205 -82 -312 -114
-453 -136 l-106 -16 -185 -1 c-297 0 -434 28 -737 148 -170 67 -301 110 -390
130 l-33 7 0 -89z" />
    <path d="M4550 2427 l0 -85 23 -6 c12 -4 93 -10 180 -13 l158 -6 24 23 25 23
0 37 0 37 -22 20 -23 21 -160 11 c-88 6 -170 14 -182 17 l-23 6 0 -85z" />
    <path d="M463 2275 c18 -38 36 -31 21 9 -3 9 -12 16 -19 16 l-13 0 11 -25z" />
    <path d="M2863 2275 c18 -38 36 -31 21 9 -3 9 -12 16 -19 16 l-13 0 11 -25z" />
    <path d="M465 2208 c-6 -13 -20 -27 -32 -33 -26 -11 -30 -25 -8 -25 18 0 65
47 65 65 0 22 -14 18 -25 -7z" />
    <path d="M2865 2208 c-6 -13 -20 -27 -32 -33 -26 -11 -30 -25 -8 -25 18 0 65
47 65 65 0 22 -14 18 -25 -7z" />
    <path d="M340 2175 c0 -7 7 -16 16 -19 40 -15 47 3 9 21 l-25 11 0 -13z" />
    <path d="M2740 2175 c0 -7 7 -16 16 -19 40 -15 47 3 9 21 l-25 11 0 -13z" />
  </g>
  <g transform="translate(0.000000,512.000000) scale(0.100000,-0.100000)" fill="#3396e7" stroke="none">
    <path d="M2256 4553 c-2 -3 -16 -6 -30 -9 -14 -2 -36 -6 -49 -8 -12 -3 -35 -7
-52 -11 -16 -3 -40 -7 -53 -10 -12 -2 -33 -7 -47 -10 -14 -2 -36 -7 -50 -10
-14 -2 -35 -7 -48 -9 -12 -3 -35 -7 -52 -11 -33 -6 -68 -12 -103 -20 -28 -6
-65 -13 -100 -20 -15 -3 -37 -7 -50 -10 -54 -11 -69 -14 -102 -19 -19 -3 -45
-16 -57 -29 l-23 -23 -1 -299 0 -300 -61 3 -62 4 -38 -13 c-21 -7 -38 -16 -38
-21 0 -4 -6 -8 -13 -8 -16 0 -67 -51 -67 -67 0 -6 -5 -13 -11 -15 -5 -2 -11
-11 -13 -20 -1 -10 -5 -21 -9 -24 -9 -9 -9 -139 0 -148 4 -3 8 -14 9 -24 2 -9
8 -18 13 -20 6 -2 11 -9 11 -16 0 -20 51 -63 100 -85 l45 -21 49 0 c53 0 126
18 126 32 0 4 6 8 14 8 19 0 73 63 91 107 l15 35 0 397 1 397 17 1 c9 1 29 4
45 7 15 3 38 8 52 11 14 2 36 7 50 10 14 2 36 7 50 10 14 2 36 7 50 10 14 2
36 7 50 10 14 2 36 7 50 10 14 2 36 7 50 10 14 2 37 7 53 10 15 3 37 7 50 10
34 7 75 15 100 19 l22 3 0 -231 -1 -231 -67 3 -67 3 -37 -15 c-44 -19 -108
-73 -108 -91 0 -7 -5 -15 -11 -17 -5 -2 -11 -11 -13 -20 -1 -10 -5 -21 -9 -24
-9 -9 -9 -139 0 -148 4 -3 8 -14 9 -24 2 -9 8 -18 13 -20 6 -2 11 -10 11 -17
0 -18 64 -72 107 -90 l35 -15 64 0 63 0 6 10 c4 6 10 8 14 5 23 -14 112 74
139 138 l12 29 0 445 1 446 -23 24 -22 23 -48 -1 c-26 -1 -50 -4 -52 -6z m-47
-815 l24 -17 2 -36 1 -36 -17 -21 -18 -20 -37 -3 -36 -2 -23 25 -23 25 4 29
c8 67 68 94 123 56z m-800 -160 l24 -17 2 -36 1 -36 -17 -21 -18 -20 -37 -3
-36 -2 -23 25 -23 25 4 29 c8 67 68 94 123 56z" />
    <path d="M4149 4468 c-1 -21 -6 -40 -23 -85 -8 -24 -13 -43 -11 -43 2 0 -4
-20 -15 -45 -11 -25 -17 -45 -15 -45 2 0 -2 -19 -10 -41 -8 -23 -15 -45 -15
-50 l0 -9 180 0 180 0 0 10 c0 6 -7 26 -14 45 -8 19 -13 35 -11 35 2 0 -3 19
-11 43 -9 23 -17 51 -19 61 -3 10 -10 35 -17 55 -14 41 -15 46 -17 66 l-1 15
-90 0 -90 0 -1 -12z" />
    <path d="M3240 3199 l-315 -80 -23 -22 -22 -22 -1 -300 0 -300 -67 3 -67 3
-37 -15 c-44 -19 -108 -73 -108 -91 0 -7 -5 -15 -11 -17 -5 -2 -11 -11 -13
-20 -1 -10 -5 -21 -9 -24 -9 -9 -9 -139 0 -148 4 -3 8 -14 9 -24 2 -9 8 -18
13 -20 6 -2 11 -10 11 -17 0 -18 64 -72 107 -90 l35 -15 63 0 c34 0 65 3 69 7
3 4 14 8 24 9 9 2 18 8 20 13 2 6 10 11 17 11 18 0 72 64 90 106 l15 36 2 396
3 396 295 74 295 73 23 21 22 21 0 37 0 37 -23 21 -23 22 -40 -1 c-21 0 -181
-37 -354 -80z m-391 -901 l24 -17 2 -36 1 -36 -17 -21 -18 -20 -37 -3 -36 -2
-23 25 -23 25 4 29 c8 67 68 94 123 56z" />
    <path d="M502 3097 l-22 -24 -1 -299 0 -299 -67 3 -67 3 -37 -15 c-44 -19
-108 -73 -108 -91 0 -7 -5 -15 -11 -17 -5 -2 -11 -11 -13 -20 -1 -10 -5 -21
-9 -24 -9 -9 -9 -139 0 -148 4 -3 8 -14 9 -24 2 -9 8 -18 13 -20 6 -2 11 -10
11 -17 0 -18 64 -72 107 -90 l35 -15 63 0 c34 0 65 3 69 7 3 4 14 8 24 9 9 2
18 8 20 13 2 6 10 11 17 11 18 0 72 64 90 107 l15 35 0 446 0 445 -22 24 -21
23 -37 0 -37 0 -21 -23z m-53 -799 l24 -17 2 -36 1 -36 -17 -21 -18 -20 -37
-3 -36 -2 -23 25 -23 25 4 29 c8 67 68 94 123 56z" />
  </g>
  <g transform="translate(0.000000,512.000000) scale(0.100000,-0.100000)" fill="#ffd33a" stroke="none">
    <path d="M3920 3605 c0 -47 0 -305 0 -575 0 -269 0 -740 0 -1045 l0 -555 125
0 125 0 0 1130 0 1130 -125 0 -125 0 0 -85z" />
    <path d="M4310 2560 l0 -1130 125 0 125 0 0 455 c0 250 0 673 0 940 0 267 0
571 0 675 l0 190 -125 0 -125 0 0 -1130z" />
  </g>
  <g transform="translate(0.000000,512.000000) scale(0.100000,-0.100000)" fill="#d39073" stroke="none">
    <path d="M4053 4130 c-6 -19 -39 -127 -73 -238 -34 -112 -59 -206 -56 -209 7
-7 625 -7 632 0 3 3 -11 61 -31 129 -21 67 -38 128 -40 133 -1 6 -7 22 -13 36
-12 29 -34 105 -37 129 -1 8 -6 24 -11 35 l-9 20 -176 0 -176 0 -10 -35z" />
    <path d="M4043 1443 l-123 -4 0 -164 0 -165 320 0 320 0 0 165 0 165 -78 0
c-44 0 -132 2 -198 4 -65 1 -174 1 -241 -1z" />
  </g>
  <g transform="translate(0.000000,512.000000) scale(0.100000,-0.100000)" fill="#f7b030" stroke="none">
    <path d="M4160 2560 l0 -1120 80 0 80 0 0 1120 0 1120 -80 0 -80 0 0 -1120z" />
  </g>
  <g transform="translate(0.000000,512.000000) scale(0.100000,-0.100000)" fill="#e9eef1" stroke="none">
    <path d="M3922 998 l4 -123 21 -47 c27 -60 101 -133 161 -161 l47 -22 86 0 85
0 59 30 59 30 42 52 43 53 16 52 15 52 0 103 0 103 -321 0 -321 0 4 -122z" />
  </g>
  <g transform="translate(0.000000,512.000000) scale(0.100000,-0.100000)" fill="#eef6fc" stroke="none">
    <path d="M2397 3218 c-32 -11 -56 -22 -54 -24 5 -5 99 26 112 37 12 11 11 11
-58 -13z" />
    <path d="M2397 2418 c-32 -11 -56 -22 -54 -24 5 -5 99 26 112 37 12 11 11 11
-58 -13z" />
  </g>
  <g transform="translate(0.000000,512.000000) scale(0.100000,-0.100000)" fill="#b0d9f6" stroke="none">
    <path d="M2100 3740 c-11 -11 -20 -28 -20 -37 l0 -18 13 25 c7 13 24 30 37 37
l25 13 -17 0 c-10 0 -27 -9 -38 -20z" />
    <path d="M1300 3580 c-11 -11 -20 -28 -20 -37 l0 -18 13 25 c7 13 24 30 37 37
l25 13 -17 0 c-10 0 -27 -9 -38 -20z" />
    <path d="M340 2300 c-11 -11 -20 -28 -20 -37 l0 -18 13 25 c7 13 24 30 37 37
l25 13 -17 0 c-10 0 -27 -9 -38 -20z" />
    <path d="M2740 2300 c-11 -11 -20 -28 -20 -37 l0 -18 13 25 c7 13 24 30 37 37
l25 13 -17 0 c-10 0 -27 -9 -38 -20z" />
  </g>
  <g transform="translate(0.000000,512.000000) scale(0.100000,-0.100000)" fill="#cce6f9" stroke="none" />
  <g transform="translate(0.000000,512.000000) scale(0.100000,-0.100000)" fill="#e2f1fb" stroke="none" />
  <g transform="translate(0.000000,512.000000) scale(0.100000,-0.100000)" fill="#daedfa" stroke="none" />
  <g transform="translate(0.000000,512.000000) scale(0.100000,-0.100000)" fill="#baddf7" stroke="none" />
  <g transform="translate(0.000000,512.000000) scale(0.100000,-0.100000)" fill="#c2e1f8" stroke="none" />
  <g transform="translate(0.000000,512.000000) scale(0.100000,-0.100000)" fill="#4fa5ea" stroke="none" />
  <g transform="translate(0.000000,512.000000) scale(0.100000,-0.100000)" fill="#3e9be6" stroke="none" />
  <g transform="translate(0.000000,512.000000) scale(0.100000,-0.100000)" fill="#63afec" stroke="none" />
  <g transform="translate(0.000000,512.000000) scale(0.100000,-0.100000)" fill="#3798e7" stroke="none" />
  <g transform="translate(0.000000,512.000000) scale(0.100000,-0.100000)" fill="#8cc4f1" stroke="none" />
  <g transform="translate(0.000000,512.000000) scale(0.100000,-0.100000)" fill="#7abaef" stroke="none" />
  <g transform="translate(0.000000,512.000000) scale(0.100000,-0.100000)" fill="#d8aa97" stroke="none" />
  <g transform="translate(0.000000,512.000000) scale(0.100000,-0.100000)" fill="#7ca7cf" stroke="none" />
  <g transform="translate(0.000000,512.000000) scale(0.100000,-0.100000)" fill="#f0dad1" stroke="none" />
  <g transform="translate(0.000000,512.000000) scale(0.100000,-0.100000)" fill="#e8c6b7" stroke="none" />
  <g transform="translate(0.000000,512.000000) scale(0.100000,-0.100000)" fill="#dbe0e9" stroke="none" />
</svg>