<svg width="512.000000pt" height="512.000000pt" viewBox="0 0 512.000000 512.000000" xmlns="http://www.w3.org/2000/svg">
  <g transform="translate(0.000000,512.000000) scale(0.100000,-0.100000)" fill="#ffffff00" stroke="none">
    <path d="M0 2560 l0 -2560 2560 0 2560 0 0 2560 0 2560 -2560 0 -2560 0 0
-2560z m529 2305 c50 -73 91 -139 91 -144 l0 -11 -55 0 -55 0 0 -2095 0 -2095
2105 0 2105 0 0 60 0 60 11 0 c15 0 262 -177 271 -194 l7 -13 -133 -97 c-74
-53 -139 -96 -145 -96 l-11 0 0 50 0 50 -2160 2 -2159 3 -23 23 -23 23 -3
2159 -2 2160 -60 0 -60 0 0 16 c0 23 189 286 200 279 5 -3 49 -66 99 -140z
m-299 -345 l0 -60 -60 0 -60 0 0 60 0 60 60 0 60 0 0 -60z m3072 -339 l45 -29
22 -45 22 -45 117 -1076 116 -1076 13 0 c7 0 13 2 13 5 0 30 77 339 91 367 30
58 77 107 133 136 l51 26 75 0 75 0 51 -22 c63 -28 126 -92 153 -153 l21 -46
70 -404 c39 -222 72 -414 75 -426 l5 -23 90 0 90 0 0 -95 0 -95 -70 0 -70 0 0
-14 c0 -19 75 -85 116 -102 l34 -14 0 -91 0 -92 -45 6 c-129 18 -261 146 -282
272 l-5 32 -152 6 -151 7 -60 16 c-58 15 -170 66 -190 85 -5 5 -16 9 -25 9
l-15 0 -37 -78 c-147 -310 -493 -429 -793 -274 l-70 36 -75 76 -76 75 -33 63
-33 64 -22 -6 c-11 -3 -61 -19 -111 -37 l-90 -32 -102 -5 -103 -5 -62 13 c-81
15 -169 51 -235 95 -29 19 -59 35 -66 35 l-14 0 -11 -51 c-19 -79 -62 -158
-124 -225 l-57 -61 -62 -33 c-34 -18 -84 -39 -113 -46 l-51 -14 -397 0 -398 0
0 90 0 89 403 3 402 3 53 29 c104 58 139 118 178 307 l28 135 -21 90 c-12 49
-68 423 -125 832 l-103 742 -11 0 c-15 0 -9 41 -119 -785 l-95 -720 -25 -82
-25 -82 -50 -74 c-104 -155 -264 -255 -441 -276 l-59 -7 0 93 0 93 29 0 c16 0
58 9 94 20 l65 20 59 44 60 44 40 60 40 60 17 64 c9 34 61 413 115 840 l99
778 19 37 c11 21 39 52 62 68 l43 30 67 0 67 0 41 -27 41 -27 20 -43 20 -43
83 -597 83 -598 12 0 c16 0 15 -7 79 300 30 146 63 287 72 315 l16 50 56 55
56 56 58 18 58 18 57 -4 57 -4 46 -22 c61 -30 117 -86 144 -147 l23 -50 103
-512 103 -513 12 0 c21 0 31 70 174 1215 168 1352 152 1264 248 1314 l37 20
56 1 55 0 46 -29z m-3072 -151 l0 -60 -60 0 -60 0 0 60 0 60 60 0 60 0 0 -60z
m0 -500 l0 -60 -60 0 -60 0 0 60 0 60 60 0 60 0 0 -60z m0 -490 l0 -60 -60 0
-60 0 0 60 0 60 60 0 60 0 0 -60z m-2 -507 l-3 -58 -57 -3 -58 -3 0 61 0 60
60 0 61 0 -3 -57z m2 -493 l0 -60 -60 0 -60 0 0 60 0 60 60 0 60 0 0 -60z m0
-500 l0 -60 -60 0 -60 0 0 60 0 60 60 0 60 0 0 -60z m0 -490 l0 -60 -60 0 -60
0 0 60 0 60 60 0 60 0 0 -60z m0 -500 l0 -60 -60 0 -60 0 0 60 0 60 60 0 60 0
0 -60z m385 -370 l0 -55 -57 -3 -58 -3 0 61 0 61 58 -3 57 -3 0 -55z m995 0
l0 -60 -60 0 -60 0 0 60 0 60 60 0 60 0 0 -60z m990 0 l0 -60 -60 0 -60 0 0
60 0 60 60 0 60 0 0 -60z m990 0 l0 -61 -57 3 -58 3 -3 44 c-2 24 -1 50 2 57
l5 14 56 0 55 0 0 -60z m1000 0 l0 -60 -60 0 -60 0 0 60 0 60 60 0 60 0 0 -60z
m-3480 -10 l0 -61 -57 3 -58 3 -3 58 -3 57 61 0 60 0 0 -60z m998 3 l-3 -58
-57 -3 -58 -3 0 61 0 60 60 0 61 0 -3 -57z m990 0 l-3 -58 -57 -3 -58 -3 0 61
0 60 60 0 61 0 -3 -57z m992 -3 l0 -61 -57 3 -58 3 -3 58 -3 57 61 0 60 0 0
-60z" />
    <path d="M3051 2898 c-79 -607 -151 -1144 -161 -1194 l-18 -92 -31 -64 c-16
-35 -46 -85 -66 -110 -54 -72 -36 -137 67 -241 l57 -58 68 -32 68 -32 105 0
105 0 60 30 60 29 56 55 c65 66 93 120 116 224 l16 76 -32 71 c-54 116 -55
126 -183 1307 l-123 1133 -10 0 -10 0 -144 -1102z" />
    <path d="M2135 2721 c-11 -5 -28 -17 -38 -28 l-17 -20 -115 -544 c-130 -616
-123 -570 -89 -614 61 -80 190 -140 323 -151 l76 -6 73 16 c40 8 99 28 130 43
l57 28 3 25 c3 26 -219 1147 -236 1190 -5 14 -19 34 -31 44 l-21 19 -47 3
c-27 2 -57 0 -68 -5z" />
    <path d="M3953 2240 c-34 -14 -38 -26 -118 -386 l-75 -338 28 -29 c37 -40 101
-76 173 -98 l61 -19 124 0 c68 0 124 1 124 3 0 29 -142 800 -151 820 -22 49
-103 72 -166 47z" />
  </g>
  <g transform="translate(0.000000,512.000000) scale(0.100000,-0.100000)" fill="#3ab7fb" stroke="none">
    <path d="M3160 4220 c-85 -16 -141 -73 -160 -164 -6 -28 -73 -555 -150 -1171
-77 -616 -147 -1148 -156 -1182 l-16 -61 26 -128 c14 -70 29 -130 32 -133 11
-11 73 73 110 146 l35 73 19 92 c10 51 83 590 162 1198 78 608 144 1092 146
1075 70 -670 246 -2251 254 -2284 13 -56 74 -191 85 -191 4 0 27 87 50 193
l43 192 -120 1100 -120 1100 -23 45 -23 45 -45 26 c-49 30 -96 39 -149 29z" />
    <path d="M1282 3429 c-102 -51 -92 -9 -207 -924 -52 -412 -102 -779 -111 -813
l-17 -64 -40 -60 -40 -60 -60 -44 -59 -44 -65 -20 c-36 -11 -78 -20 -94 -20
l-29 0 0 -104 0 -105 58 6 c31 3 92 16 134 30 l77 24 74 49 c84 56 131 104
188 193 l40 61 24 81 25 80 95 720 c52 396 99 735 103 753 l7 34 103 -744
c114 -817 132 -921 156 -897 3 3 28 115 57 249 l51 245 -87 625 -87 625 -20
43 -20 43 -41 27 -40 27 -66 3 -66 3 -43 -22z" />
    <path d="M1820 1440 l-24 -120 19 -14 c54 -40 131 -80 197 -103 l73 -26 120
-5 120 -4 67 16 c37 8 99 28 138 43 l71 28 -6 20 c-4 11 -16 58 -27 105 -12
47 -22 86 -24 88 -1 2 -19 -8 -41 -22 -21 -13 -67 -35 -103 -47 l-65 -23 -100
1 -100 1 -60 21 c-73 26 -155 81 -190 127 -37 49 -39 46 -65 -86z" />
    <path d="M3736 1408 c-14 -61 -25 -112 -24 -112 2 -1 14 -7 28 -15 68 -39 141
-71 195 -85 l60 -16 153 -7 152 -6 0 24 c0 13 -7 59 -15 102 -8 43 -15 81 -15
83 0 2 -54 4 -119 4 l-119 0 -61 19 c-71 22 -136 58 -170 95 -35 38 -36 36
-65 -86z" />
    <path d="M4450 1373 c0 -5 7 -52 17 -105 l16 -98 79 0 78 0 0 105 0 105 -95 0
c-52 0 -95 -3 -95 -7z" />
  </g>
  <g transform="translate(0.000000,512.000000) scale(0.100000,-0.100000)" fill="#ec7b72" stroke="none">
    <path d="M2067 2903 l-49 -16 -48 -44 c-27 -24 -58 -63 -70 -88 l-21 -44 -65
-303 c-36 -167 -72 -334 -79 -373 -7 -38 -32 -158 -55 -265 -23 -107 -55 -260
-72 -339 -41 -200 -74 -258 -180 -317 l-53 -29 -402 -3 -403 -3 0 -99 0 -100
408 0 407 0 50 14 c150 40 281 157 338 303 9 23 84 362 167 755 l150 713 25
25 25 25 49 0 49 0 22 -20 c34 -30 33 -26 170 -710 71 -352 135 -658 142 -680
6 -22 12 -42 13 -45 0 -3 16 -34 35 -70 l34 -65 76 -75 75 -76 70 -36 c39 -20
98 -43 131 -52 l62 -16 84 0 84 0 59 15 c203 53 399 245 431 422 3 15 14 66
25 113 12 47 23 96 25 110 23 120 147 657 155 672 31 58 149 46 178 -19 7 -15
46 -219 87 -453 103 -589 109 -620 135 -676 30 -62 93 -125 159 -159 l53 -27
53 -5 54 -6 0 101 0 102 -34 14 c-40 17 -118 85 -111 96 3 5 1 10 -4 12 -4 1
-50 239 -100 527 l-91 524 -21 46 c-27 61 -90 125 -153 153 l-51 23 -85 0 -85
0 -51 -27 c-124 -65 -140 -104 -244 -588 -113 -524 -123 -554 -209 -641 l-56
-55 -60 -29 -60 -29 -95 -1 -95 0 -65 31 c-204 98 -205 102 -375 949 l-127
630 -23 50 c-27 61 -82 117 -144 147 l-46 23 -75 2 -75 3 -48 -17z" />
  </g>
  <g transform="translate(0.000000,512.000000) scale(0.100000,-0.100000)" fill="#666666" stroke="none">
    <path d="M328 4903 c-47 -65 -92 -130 -102 -144 l-16 -26 6 -17 6 -16 59 0 59
0 2 -2160 3 -2159 23 -23 23 -23 2159 -3 2160 -2 0 -49 0 -49 15 -6 15 -5 140
101 c177 128 178 110 -6 241 l-121 87 -22 0 -21 0 0 -60 0 -60 -2095 0 -2095
0 0 2085 0 2085 54 0 54 0 6 15 5 14 -97 143 c-54 79 -105 144 -114 146 l-16
3 -84 -118z" />
  </g>
  <g transform="translate(0.000000,512.000000) scale(0.100000,-0.100000)" fill="#cccccc" stroke="none">
    <path d="M100 4520 l0 -70 70 0 70 0 0 70 0 70 -70 0 -70 0 0 -70z" />
    <path d="M100 4030 l0 -70 70 0 70 0 0 70 0 70 -70 0 -70 0 0 -70z" />
    <path d="M100 3530 l0 -70 70 0 70 0 0 70 0 70 -70 0 -70 0 0 -70z" />
    <path d="M100 3040 l0 -70 70 0 70 0 0 70 0 70 -70 0 -70 0 0 -70z" />
    <path d="M100 2530 l0 -71 68 3 67 3 3 68 3 67 -71 0 -70 0 0 -70z" />
    <path d="M100 2040 l0 -70 70 0 70 0 0 70 0 70 -70 0 -70 0 0 -70z" />
    <path d="M100 1540 l0 -70 70 0 70 0 0 70 0 70 -70 0 -70 0 0 -70z" />
    <path d="M100 1050 l0 -70 70 0 70 0 0 70 0 70 -70 0 -70 0 0 -70z" />
    <path d="M100 550 l0 -70 70 0 70 0 0 70 0 70 -70 0 -70 0 0 -70z" />
    <path d="M490 180 l0 -71 68 3 67 3 0 65 0 65 -67 3 -68 3 0 -71z" />
    <path d="M1480 180 l0 -70 70 0 70 0 0 70 0 70 -70 0 -70 0 0 -70z" />
    <path d="M2470 180 l0 -70 70 0 70 0 0 70 0 70 -70 0 -70 0 0 -70z" />
    <path d="M3464 236 c-3 -7 -4 -38 -2 -67 l3 -54 68 -3 67 -3 0 71 0 70 -65 0
-66 0 -5 -14z" />
    <path d="M4460 180 l0 -70 70 0 70 0 0 70 0 70 -70 0 -70 0 0 -70z" />
    <path d="M982 173 l3 -68 68 -3 67 -3 0 71 0 70 -70 0 -71 0 3 -67z" />
    <path d="M1980 170 l0 -71 68 3 67 3 3 68 3 67 -71 0 -70 0 0 -70z" />
    <path d="M2970 170 l0 -71 68 3 67 3 3 68 3 67 -71 0 -70 0 0 -70z" />
    <path d="M3962 173 l3 -68 68 -3 67 -3 0 71 0 70 -70 0 -71 0 3 -67z" />
  </g>
  <g transform="translate(0.000000,512.000000) scale(0.100000,-0.100000)" fill="#e0e0e0" stroke="none">
    <path d="M345 2550 c0 -1185 1 -1670 2 -1077 2 592 2 1562 0 2155 -1 592 -2
107 -2 -1078z" />
    <path d="M515 2613 l0 -2088 2100 0 2100 0 -2097 2 -2098 3 -3 2085 -2 2085 0
-2087z" />
    <path d="M228 4524 l4 -66 -66 4 c-36 1 -66 0 -66 -4 0 -5 32 -8 70 -8 l70 0
0 70 c0 39 -3 70 -7 70 -5 0 -6 -30 -5 -66z" />
    <path d="M100 4093 c0 -5 29 -6 65 -5 l65 4 0 -62 0 -62 -65 4 c-36 1 -65 0
-65 -4 0 -5 32 -8 70 -8 l70 0 0 70 0 70 -70 0 c-38 0 -70 -3 -70 -7z" />
    <path d="M225 3530 c0 -38 3 -70 8 -70 4 0 7 32 7 70 0 39 -3 70 -7 70 -5 0
-8 -31 -8 -70z" />
    <path d="M228 3058 c5 -89 9 -97 11 -20 0 39 -2 72 -6 72 -5 0 -7 -24 -5 -52z" />
    <path d="M230 2533 l-5 -72 8 8 c4 4 7 37 5 72 l-3 64 -5 -72z" />
    <path d="M228 2040 c-2 -39 0 -70 5 -70 4 0 7 32 7 70 0 90 -7 90 -12 0z" />
    <path d="M228 1544 l4 -66 -66 4 c-36 1 -66 0 -66 -4 0 -5 32 -8 70 -8 l70 0
0 70 c0 39 -3 70 -7 70 -5 0 -6 -30 -5 -66z" />
    <path d="M100 1113 c0 -5 29 -6 65 -5 l65 4 0 -62 0 -62 -65 4 c-36 1 -65 0
-65 -4 0 -5 32 -8 70 -8 l70 0 0 70 0 70 -70 0 c-38 0 -70 -3 -70 -7z" />
    <path d="M100 613 c0 -5 30 -6 66 -5 l66 4 -4 -66 c-1 -36 0 -66 5 -66 4 0 7
32 7 70 l0 70 -70 0 c-38 0 -70 -3 -70 -7z" />
    <path d="M1482 333 c593 -2 1563 -2 2155 0 593 1 108 2 -1077 2 -1185 0 -1670
-1 -1078 -2z" />
    <path d="M505 244 c46 -7 123 -8 118 -1 -2 4 -34 6 -71 6 -37 -1 -58 -3 -47
-5z" />
    <path d="M1480 243 c0 -5 30 -6 66 -5 l66 4 -4 -66 c-1 -36 0 -66 5 -66 4 0 7
32 7 70 l0 70 -70 0 c-38 0 -70 -3 -70 -7z" />
    <path d="M2470 180 c0 -38 3 -70 8 -70 4 0 5 30 4 66 l-4 66 66 -4 c36 -1 66
0 66 5 0 4 -31 7 -70 7 l-70 0 0 -70z" />
    <path d="M3467 243 c-3 -5 18 -7 46 -5 86 5 96 9 25 11 -37 0 -69 -2 -71 -6z" />
    <path d="M4460 243 c0 -5 30 -6 66 -5 l66 4 -4 -66 c-1 -36 0 -66 5 -66 4 0 7
32 7 70 l0 70 -70 0 c-38 0 -70 -3 -70 -7z" />
    <path d="M981 178 c0 -37 2 -69 7 -71 4 -3 6 18 4 46 -5 86 -9 96 -11 25z" />
    <path d="M3100 173 l-5 -72 8 8 c4 4 7 37 5 72 l-3 64 -5 -72z" />
    <path d="M3961 178 c0 -37 2 -69 7 -71 4 -3 6 18 4 46 -5 86 -9 96 -11 25z" />
  </g>
  <g transform="translate(0.000000,512.000000) scale(0.100000,-0.100000)" fill="#d1eefd" stroke="none">
    <path d="M1252 3410 c-23 -17 -42 -36 -41 -43 l1 -12 5 13 c3 8 26 27 51 43
25 16 41 29 35 29 -5 0 -29 -14 -51 -30z" />
    <path d="M4170 1380 l-95 -5 98 -5 97 -5 0 13 c0 6 -1 11 -2 10 -2 -1 -46 -4
-98 -8z" />
    <path d="M4450 1375 l0 -10 95 0 c123 0 123 13 0 17 l-95 3 0 -10z" />
    <path d="M4185 1180 l-110 -6 113 -2 112 -2 0 10 c0 6 -1 9 -2 8 -2 -1 -52 -5
-113 -8z" />
    <path d="M4560 1180 l-75 -6 78 -2 77 -2 0 10 c0 6 -1 9 -2 8 -2 -1 -37 -4
-78 -8z" />
  </g>
  <g transform="translate(0.000000,512.000000) scale(0.100000,-0.100000)" fill="#efeeef" stroke="none">
    <path d="M100 3593 c0 -5 24 -7 52 -5 89 5 97 9 21 11 -40 0 -73 -2 -73 -6z" />
    <path d="M100 3103 c0 -5 24 -7 52 -5 89 5 97 9 21 11 -40 0 -73 -2 -73 -6z" />
    <path d="M100 2468 c0 -5 30 -7 68 -7 69 2 62 6 -20 11 -27 2 -48 0 -48 -4z" />
    <path d="M100 1978 c0 -5 33 -7 73 -7 76 2 68 6 -21 11 -28 2 -52 0 -52 -4z" />
    <path d="M620 178 l-5 -67 8 8 c4 4 7 35 5 67 l-3 59 -5 -67z" />
    <path d="M2112 178 l-2 -67 -67 -4 -68 -3 68 -2 68 -2 5 14 c3 7 3 40 1 72
l-3 59 -2 -67z" />
    <path d="M3461 183 c0 -34 2 -64 7 -66 4 -3 6 16 4 41 -5 80 -9 90 -11 25z" />
    <path d="M1050 110 l-65 -7 68 -1 67 -2 0 10 c0 6 -1 9 -2 8 -2 -1 -32 -4 -68
-8z" />
    <path d="M2970 108 c0 -5 30 -7 68 -7 69 2 62 6 -20 11 -27 2 -48 0 -48 -4z" />
    <path d="M4030 110 l-65 -7 68 -1 67 -2 0 10 c0 6 -1 9 -2 8 -2 -1 -32 -4 -68
-8z" />
  </g>
  <g transform="translate(0.000000,512.000000) scale(0.100000,-0.100000)" fill="#5cc2fb" stroke="none">
    <path d="M4634 1275 c0 -55 1 -76 3 -47 2 29 2 74 0 100 -2 26 -3 2 -3 -53z" />
  </g>
  <g transform="translate(0.000000,512.000000) scale(0.100000,-0.100000)" fill="#d4d4d4" stroke="none">
    <path d="M104 4576 c-3 -7 -3 -38 -1 -67 l3 -54 2 62 2 62 63 4 62 3 -63 2
-63 2 -5 -14z" />
    <path d="M103 4030 c0 -36 2 -50 4 -32 2 17 2 47 0 65 -2 17 -4 3 -4 -33z" />
    <path d="M104 3525 l1 -60 60 -1 60 0 -57 3 -57 4 -4 57 -3 57 0 -60z" />
    <path d="M103 3035 c0 -38 2 -53 4 -32 2 20 2 52 0 70 -2 17 -4 1 -4 -38z" />
    <path d="M103 2535 c0 -38 2 -53 4 -32 2 20 2 52 0 70 -2 17 -4 1 -4 -38z" />
    <path d="M103 2040 c0 -36 2 -50 4 -32 2 17 2 47 0 65 -2 17 -4 3 -4 -33z" />
    <path d="M104 1596 c-3 -7 -3 -38 -1 -67 l3 -54 2 62 2 62 63 4 62 3 -63 2
-63 2 -5 -14z" />
    <path d="M103 1050 c0 -36 2 -50 4 -32 2 17 2 47 0 65 -2 17 -4 3 -4 -33z" />
    <path d="M104 545 l1 -60 60 -1 60 0 -57 3 -57 4 -4 57 -3 57 0 -60z" />
    <path d="M1113 175 c0 -38 2 -53 4 -32 2 20 2 52 0 70 -2 17 -4 1 -4 -38z" />
    <path d="M1484 175 l1 -60 60 -1 60 0 -57 3 -57 4 -4 57 -3 57 0 -60z" />
    <path d="M2602 183 l-2 -62 -62 -4 -63 -3 63 -2 63 -2 5 14 c3 7 3 38 1 67
l-3 54 -2 -62z" />
    <path d="M2973 175 c0 -38 2 -53 4 -32 2 20 2 52 0 70 -2 17 -4 1 -4 -38z" />
    <path d="M4093 175 c0 -38 2 -53 4 -32 2 20 2 52 0 70 -2 17 -4 1 -4 -38z" />
    <path d="M4464 175 l1 -60 60 -1 60 0 -57 3 -57 4 -4 57 -3 57 0 -60z" />
    <path d="M517 113 c18 -2 50 -2 70 0 21 2 7 4 -32 4 -38 0 -55 -2 -38 -4z" />
    <path d="M3497 113 c18 -2 50 -2 70 0 21 2 7 4 -32 4 -38 0 -55 -2 -38 -4z" />
  </g>
  <g transform="translate(0.000000,512.000000) scale(0.100000,-0.100000)" fill="#74cbfc" stroke="none">
    <path d="M564 1367 c-3 -8 -3 -54 -2 -103 l3 -89 5 103 c5 101 4 114 -6 89z" />
  </g>
  <g transform="translate(0.000000,512.000000) scale(0.100000,-0.100000)" fill="#b5e3fc" stroke="none" />
  <g transform="translate(0.000000,512.000000) scale(0.100000,-0.100000)" fill="#ee8e86" stroke="none">
    <path d="M4644 960 c0 -58 1 -81 3 -52 2 28 2 76 0 105 -2 28 -3 5 -3 -53z" />
    <path d="M2810 979 c14 -12 47 -32 75 -45 58 -28 45 -18 -40 31 l-60 35 25
-21z" />
  </g>
  <g transform="translate(0.000000,512.000000) scale(0.100000,-0.100000)" fill="#f3b6b1" stroke="none">
    <path d="M570 1073 c0 -7 287 -7 630 0 74 1 -37 4 -247 5 -211 1 -383 -1 -383
-5z" />
  </g>
  <g transform="translate(0.000000,512.000000) scale(0.100000,-0.100000)" fill="#9ddafc" stroke="none" />
  <g transform="translate(0.000000,512.000000) scale(0.100000,-0.100000)" fill="#f1a49e" stroke="none">
    <path d="M574 985 c0 -55 1 -76 3 -47 2 29 2 74 0 100 -2 26 -3 2 -3 -53z" />
  </g>
  <g transform="translate(0.000000,512.000000) scale(0.100000,-0.100000)" fill="#89d3fc" stroke="none" />
  <g transform="translate(0.000000,512.000000) scale(0.100000,-0.100000)" fill="#f9dfdd" stroke="none" />
  <g transform="translate(0.000000,512.000000) scale(0.100000,-0.100000)" fill="#f7cfcc" stroke="none" />
  <g transform="translate(0.000000,512.000000) scale(0.100000,-0.100000)" fill="#f5c1bd" stroke="none" />
  <g transform="translate(0.000000,512.000000) scale(0.100000,-0.100000)" fill="#9696a1" stroke="none" />
  <g transform="translate(0.000000,512.000000) scale(0.100000,-0.100000)" fill="#73a5d1" stroke="none" />
  <g transform="translate(0.000000,512.000000) scale(0.100000,-0.100000)" fill="#cb878c" stroke="none" />
  <g transform="translate(0.000000,512.000000) scale(0.100000,-0.100000)" fill="#af959e" stroke="none" />
  <g transform="translate(0.000000,512.000000) scale(0.100000,-0.100000)" fill="#b6b7bc" stroke="none" />
</svg>